{"glyphs":{"0":{"ha":713,"x_min":19,"x_max":701,"o":"m 688 686 q 699 518 701 610 q 658 281 697 403 q 541 78 619 160 q 349 -4 463 -4 q 235 14 282 -4 q 96 114 142 49 q 38 252 50 179 q 24 438 26 325 l 22 474 q 19 553 19 521 q 37 717 19 640 q 97 863 54 794 l 96 864 l 113 881 q 220 963 161 933 q 356 993 279 993 q 578 904 493 993 q 688 686 663 815 m 425 433 q 426 515 426 456 q 417 642 426 581 q 390 735 408 704 q 344 757 368 757 q 333 756 338 757 q 312 746 322 754 q 296 726 301 738 q 284 686 289 717 q 275 622 279 656 q 268 482 268 543 q 286 321 268 393 l 286 322 q 293 300 292 308 q 324 242 308 250 l 326 242 q 353 238 339 238 q 388 254 375 238 q 410 301 401 271 q 422 396 419 332 q 425 435 422 413 l 425 433 z "},"1":{"ha":508,"x_min":-18,"x_max":471,"o":"m 351 -7 q 194 7 271 -7 l 194 146 q 203 413 194 235 l 206 457 q 211 644 211 585 q 171 621 193 621 q 112 632 161 621 q 22 657 63 643 q -18 679 -18 671 q 23 776 -15 706 q 107 917 61 846 q 161 996 153 988 l 178 996 q 297 999 247 999 q 464 992 386 999 q 471 753 471 893 q 463 438 471 646 q 456 122 456 264 q 457 25 456 57 q 351 -7 457 -7 z "},"2":{"ha":692,"x_min":19,"x_max":679,"o":"m 461 378 q 376 330 401 347 q 331 287 350 313 q 283 206 311 261 q 375 204 315 204 q 493 206 454 204 q 644 208 579 208 q 658 129 658 175 l 657 107 l 657 43 q 660 8 657 21 q 655 0 660 1 q 633 -1 650 -1 l 106 -8 l 60 -11 q 34 -9 43 -11 q 19 -7 25 -7 q 25 110 25 65 q 34 246 26 194 q 71 346 42 297 q 256 486 126 407 q 374 565 331 532 q 404 603 393 578 q 415 658 415 629 q 400 722 415 694 q 360 751 385 749 q 300 703 315 750 q 279 582 285 657 q 117 571 197 571 q 32 581 71 571 q 22 674 22 629 q 43 802 22 742 q 104 908 64 863 q 211 972 139 950 q 364 994 283 994 q 521 971 460 994 q 628 872 590 935 q 675 731 667 808 l 675 718 l 676 706 q 678 606 679 638 q 615 474 671 524 q 461 378 558 425 z "},"3":{"ha":683,"x_min":17,"x_max":654,"o":"m 31 158 q 24 224 28 175 l 24 229 q 21 313 21 271 q 82 315 47 311 q 128 318 113 318 q 193 324 164 324 q 243 321 210 324 q 285 261 256 288 q 344 235 314 235 q 393 267 371 235 l 393 265 q 403 311 403 285 q 395 349 403 331 q 376 378 388 367 q 336 394 358 388 q 296 401 314 401 q 222 390 267 401 q 204 467 204 425 q 207 515 204 482 l 208 563 q 207 596 208 585 q 299 610 239 610 q 378 624 351 611 q 401 688 406 638 q 386 738 400 721 q 351 754 372 754 q 288 731 321 754 q 242 675 254 707 q 110 669 210 669 l 18 672 l 17 731 q 17 762 17 736 q 24 811 17 788 l 24 810 q 140 945 50 899 q 344 992 231 992 q 513 958 433 992 q 629 869 593 924 q 644 822 639 853 q 651 765 650 792 q 654 582 654 657 q 649 304 654 485 q 647 268 647 292 q 641 200 646 229 q 624 142 636 171 q 564 60 603 96 q 472 8 525 25 q 336 -8 421 -8 q 235 -1 286 -8 q 179 11 201 3 l 167 14 l 156 18 l 157 18 q 107 38 125 28 q 82 56 89 49 q 31 158 38 100 z "},"4":{"ha":651,"x_min":-3,"x_max":649,"o":"m 554 467 q 569 468 558 468 q 597 465 578 468 q 649 463 628 463 l 642 240 q 611 241 618 240 q 603 242 604 242 q 551 243 592 244 q 554 222 556 239 q 538 7 540 18 q 498 -8 526 -6 q 399 -11 469 -11 l 301 -11 q 296 32 296 -6 q 304 179 296 76 q 310 263 310 246 q 265 260 304 263 q 188 258 226 258 q 63 260 106 258 q 13 272 19 263 q -3 399 -3 319 q -1 469 -3 447 q 39 540 22 510 q 68 592 56 571 q 174 774 125 692 q 308 982 224 856 l 404 983 q 501 986 465 986 q 565 979 540 986 l 564 951 q 554 501 554 660 l 554 467 m 351 728 q 303 629 338 703 q 242 506 264 549 q 210 464 219 464 q 259 462 215 464 q 342 460 303 460 l 351 728 z "},"5":{"ha":699,"x_min":31,"x_max":682,"o":"m 279 300 l 279 301 q 301 240 285 258 q 342 226 318 221 q 399 268 379 233 q 419 349 419 303 q 401 431 419 393 q 350 479 382 468 l 351 479 q 281 485 319 485 q 213 482 257 485 l 179 481 l 99 478 q 32 483 65 478 q 31 735 32 658 l 31 974 q 118 975 81 974 q 594 983 476 983 q 661 978 639 983 q 665 939 665 974 q 663 864 665 917 l 661 828 q 660 783 660 810 l 660 765 q 558 758 636 761 q 401 756 479 756 q 281 760 310 756 q 279 735 279 749 q 283 719 279 724 q 296 715 286 715 l 339 717 q 421 711 389 717 q 617 572 551 686 q 682 308 682 458 q 674 185 682 246 q 608 75 660 121 q 483 5 557 29 q 332 -19 410 -19 q 183 6 251 -19 q 72 84 114 32 q 31 213 31 136 q 40 307 31 250 l 278 313 l 279 300 z "},"6":{"ha":699,"x_min":24,"x_max":696,"o":"m 689 282 q 648 122 696 188 q 517 22 600 56 q 336 -11 435 -11 q 269 -8 290 -11 q 76 146 129 17 q 24 474 24 275 q 32 682 24 546 q 35 719 35 707 l 35 732 q 43 794 38 772 q 53 815 43 796 q 197 942 93 894 q 410 990 300 990 q 544 955 486 990 q 635 862 603 919 q 668 739 668 804 q 658 669 668 707 q 528 660 600 660 l 486 660 l 432 658 q 406 757 429 732 q 374 775 389 775 q 340 761 354 775 q 307 706 317 740 q 297 625 297 672 q 300 572 297 608 l 301 547 q 304 475 306 510 q 349 489 318 482 q 467 506 415 506 q 528 499 506 506 q 587 472 558 489 q 633 436 615 456 q 667 381 653 415 q 686 315 682 347 l 689 282 m 479 310 q 454 339 475 335 q 410 331 433 342 q 371 300 386 321 q 361 271 361 286 q 369 242 361 256 q 386 221 376 229 q 414 215 400 215 q 451 225 436 215 q 482 267 472 236 l 482 283 q 479 310 482 301 z "},"7":{"ha":661,"x_min":1,"x_max":664,"o":"m 8 785 q 15 935 15 842 l 17 960 l 17 989 q 83 990 35 990 l 143 992 l 225 993 q 399 996 331 996 q 663 983 554 996 q 661 925 661 964 q 663 858 661 881 q 664 785 664 835 q 547 547 618 681 q 292 79 476 413 l 249 3 l 174 0 l 175 0 q 89 -4 138 -4 q 1 8 39 -4 q 158 333 65 144 q 365 774 308 647 l 8 785 z "},"8":{"ha":681,"x_min":13,"x_max":664,"o":"m 658 643 q 556 479 635 549 q 631 380 603 438 q 660 267 660 322 q 639 157 660 213 q 581 58 618 101 q 480 -1 546 21 q 342 -24 414 -24 q 189 3 261 -24 q 81 75 117 29 q 31 167 49 115 q 13 272 13 219 q 36 386 13 329 q 101 489 60 443 q 46 585 67 531 q 25 692 25 639 q 56 833 25 765 q 143 944 86 900 q 278 990 200 988 q 365 992 311 992 q 468 984 429 992 q 542 957 507 976 l 556 949 q 633 850 603 922 q 664 693 664 778 q 658 643 664 665 m 338 614 q 371 631 358 613 q 383 675 383 650 q 367 713 383 697 q 332 728 351 728 q 292 699 306 728 q 289 679 289 688 q 302 635 289 656 q 338 614 315 615 m 397 317 q 392 342 397 329 q 381 360 386 356 q 331 379 357 379 q 294 356 310 379 q 279 303 279 333 q 303 254 279 264 q 340 247 318 247 l 361 249 q 388 269 376 250 q 397 317 399 289 z "},"9":{"ha":713,"x_min":18,"x_max":688,"o":"m 682 449 q 685 396 682 438 q 688 331 688 351 q 683 265 688 297 q 610 75 667 154 q 510 10 572 32 q 374 -12 449 -12 q 192 24 281 -12 q 58 119 103 61 q 18 254 18 179 q 21 303 18 288 l 21 315 l 104 318 l 135 319 q 199 322 174 322 q 279 317 244 322 q 306 270 288 289 q 346 253 324 251 l 344 253 q 391 300 378 257 q 401 401 404 343 q 318 390 360 390 q 173 426 240 390 q 65 521 106 461 q 30 603 42 556 q 18 699 18 650 q 75 882 18 813 q 192 962 118 935 q 356 992 267 989 l 376 990 l 397 990 q 542 976 488 989 q 628 911 596 963 q 669 804 660 864 q 679 654 678 744 l 682 449 m 364 756 q 321 742 349 756 q 300 700 300 733 q 307 650 301 672 q 333 621 317 632 q 365 610 349 610 q 393 617 379 610 q 415 638 407 625 q 428 688 422 651 q 410 735 429 715 q 364 756 390 756 z "},"\u0000":{"ha":0,"x_min":0,"x_max":0,"o":""},"\r":{"ha":278,"x_min":0,"x_max":0,"o":""}," ":{"ha":278,"x_min":0,"x_max":0,"o":""},"A":{"ha":603,"x_min":-11,"x_max":629,"o":"m 629 -4 q 533 -14 585 -14 q 400 1 472 -14 q 369 113 390 28 q 336 226 349 199 l 308 228 l 285 226 q 267 144 279 210 q 247 56 257 90 q 219 -6 238 22 q 178 -8 206 -8 q 124 -6 165 -8 q -11 0 3 0 q -8 33 -11 7 q 0 90 -6 58 l 31 265 q 99 640 67 481 q 185 978 132 800 q 238 981 204 981 l 246 981 q 422 988 336 981 q 453 859 439 922 q 478 746 467 796 q 538 489 522 553 l 629 -4 m 339 404 q 310 682 308 682 l 308 696 q 306 663 308 696 q 293 497 301 558 l 281 404 l 339 404 z "},"Á":{"ha":603,"x_min":-11,"x_max":629,"o":"m 482 1132 q 389 1036 404 1067 q 303 1032 360 1032 q 223 1036 264 1032 q 161 1046 182 1040 q 254 1138 194 1074 q 417 1292 357 1243 l 529 1174 l 482 1132 m 629 -4 q 533 -14 585 -14 q 400 1 472 -14 q 369 113 390 28 q 336 226 349 199 l 308 228 l 285 226 q 267 144 279 210 q 247 56 257 90 q 219 -6 238 22 q 178 -8 206 -8 q 124 -6 165 -8 q -11 0 3 0 q -8 33 -11 7 q 0 90 -6 58 l 31 265 q 99 640 67 481 q 185 978 132 800 q 238 981 204 981 l 246 981 q 422 988 336 981 q 453 859 439 922 q 478 746 467 796 q 538 489 522 553 l 629 -4 m 339 404 q 310 682 308 682 l 308 696 q 306 663 308 696 q 293 497 301 558 l 281 404 l 339 404 z "},"Â":{"ha":603,"x_min":-11,"x_max":629,"o":"m 538 1054 q 497 1036 522 1039 q 424 1033 471 1033 q 369 1036 386 1033 q 340 1048 353 1038 q 318 1072 328 1058 q 304 1090 308 1085 q 281 1067 300 1086 q 242 1038 261 1047 q 185 1033 214 1033 q 132 1038 157 1033 l 58 1043 q 131 1127 93 1089 q 229 1221 168 1165 l 307 1294 l 538 1054 m 629 -4 q 533 -14 585 -14 q 400 1 472 -14 q 369 113 390 28 q 336 226 349 199 l 308 228 l 285 226 q 267 144 279 210 q 247 56 257 90 q 219 -6 238 22 q 178 -8 206 -8 q 124 -6 165 -8 q -11 0 3 0 q -8 33 -11 7 q 0 90 -6 58 l 31 265 q 99 640 67 481 q 185 978 132 800 q 238 981 204 981 l 246 981 q 422 988 336 981 q 453 859 439 922 q 478 746 467 796 q 538 489 522 553 l 629 -4 m 339 404 q 310 682 308 682 l 308 696 q 306 663 308 696 q 293 497 301 558 l 281 404 l 339 404 z "},"Ä":{"ha":603,"x_min":-11,"x_max":629,"o":"m 76 1047 q 71 1115 71 1075 l 72 1144 l 72 1168 l 74 1183 l 74 1197 q 122 1207 92 1203 q 179 1211 151 1211 q 267 1197 238 1211 q 265 1175 267 1183 l 263 1133 l 256 1046 l 76 1047 m 318 1047 q 313 1115 313 1075 l 314 1144 l 314 1168 l 315 1183 l 315 1197 q 363 1207 333 1203 q 421 1211 393 1211 q 508 1197 479 1211 q 507 1175 508 1183 l 504 1133 l 497 1046 l 318 1047 m 629 -4 q 533 -14 585 -14 q 400 1 472 -14 q 369 113 390 28 q 336 226 349 199 l 308 228 l 285 226 q 267 144 279 210 q 247 56 257 90 q 219 -6 238 22 q 178 -8 206 -8 q 124 -6 165 -8 q -11 0 3 0 q -8 33 -11 7 q 0 90 -6 58 l 31 265 q 99 640 67 481 q 185 978 132 800 q 238 981 204 981 l 246 981 q 422 988 336 981 q 453 859 439 922 q 478 746 467 796 q 538 489 522 553 l 629 -4 m 339 404 q 310 682 308 682 l 308 696 q 306 663 308 696 q 293 497 301 558 l 281 404 l 339 404 z "},"À":{"ha":603,"x_min":-11,"x_max":629,"o":"m 168 1292 q 250 1219 206 1263 q 332 1138 294 1176 l 332 1139 l 360 1111 l 388 1082 q 425 1044 425 1044 q 363 1035 404 1039 q 283 1032 322 1032 q 200 1036 229 1032 q 115 1121 185 1058 l 106 1129 l 107 1129 q 54 1176 75 1156 l 168 1292 m 629 -4 q 533 -14 585 -14 q 400 1 472 -14 q 369 113 390 28 q 336 226 349 199 l 308 228 l 285 226 q 267 144 279 210 q 247 56 257 90 q 219 -6 238 22 q 178 -8 206 -8 q 124 -6 165 -8 q -11 0 3 0 q -8 33 -11 7 q 0 90 -6 58 l 31 265 q 99 640 67 481 q 185 978 132 800 q 238 981 204 981 l 246 981 q 422 988 336 981 q 453 859 439 922 q 478 746 467 796 q 538 489 522 553 l 629 -4 m 339 404 q 310 682 308 682 l 308 696 q 306 663 308 696 q 293 497 301 558 l 281 404 l 339 404 z "},"Å":{"ha":603,"x_min":-11,"x_max":629,"o":"m 285 1036 q 243 1038 256 1036 q 193 1054 217 1040 q 160 1088 169 1068 q 153 1127 154 1106 q 151 1174 151 1149 q 156 1228 151 1207 q 176 1271 160 1250 q 290 1306 215 1306 q 374 1293 332 1306 q 436 1254 417 1281 q 446 1182 446 1215 q 424 1072 446 1122 q 374 1043 413 1050 q 285 1036 336 1036 m 299 1110 q 336 1126 326 1110 q 344 1175 344 1154 q 300 1231 344 1231 q 267 1222 274 1231 q 258 1199 263 1215 q 254 1165 254 1182 q 283 1111 254 1117 l 299 1110 m 629 -4 q 533 -14 585 -14 q 400 1 472 -14 q 369 113 390 28 q 336 226 349 199 l 308 228 l 285 226 q 267 144 279 210 q 247 56 257 90 q 219 -6 238 22 q 178 -8 206 -8 q 124 -6 165 -8 q -11 0 3 0 q -8 33 -11 7 q 0 90 -6 58 l 31 265 q 99 640 67 481 q 185 978 132 800 q 238 981 204 981 l 246 981 q 422 988 336 981 q 453 859 439 922 q 478 746 467 796 q 538 489 522 553 l 629 -4 m 339 404 q 310 682 308 682 l 308 696 q 306 663 308 696 q 293 497 301 558 l 281 404 l 339 404 z "},"Ã":{"ha":603,"x_min":-11,"x_max":629,"o":"m 0 1043 q 40 1147 14 1088 q 92 1235 65 1206 q 150 1272 115 1258 q 221 1286 185 1286 q 306 1263 269 1286 q 328 1242 318 1254 q 342 1228 339 1231 q 375 1194 363 1204 q 390 1189 382 1189 q 423 1215 407 1189 q 449 1269 439 1242 q 568 1274 486 1274 l 601 1275 q 603 1247 603 1265 q 563 1113 603 1175 q 456 1036 522 1050 q 425 1033 436 1033 q 344 1052 381 1033 q 292 1107 307 1071 q 251 1135 276 1135 q 217 1117 232 1135 q 203 1074 203 1099 q 210 1043 203 1056 q 92 1046 118 1046 l 0 1043 m 629 -4 q 533 -14 585 -14 q 400 1 472 -14 q 369 113 390 28 q 336 226 349 199 l 308 228 l 285 226 q 267 144 279 210 q 247 56 257 90 q 219 -6 238 22 q 178 -8 206 -8 q 124 -6 165 -8 q -11 0 3 0 q -8 33 -11 7 q 0 90 -6 58 l 31 265 q 99 640 67 481 q 185 978 132 800 q 238 981 204 981 l 246 981 q 422 988 336 981 q 453 859 439 922 q 478 746 467 796 q 538 489 522 553 l 629 -4 m 339 404 q 310 682 308 682 l 308 696 q 306 663 308 696 q 293 497 301 558 l 281 404 l 339 404 z "},"Æ":{"ha":994,"x_min":-19,"x_max":992,"o":"m 978 -1 q 775 -3 836 -1 q 583 -6 650 -6 q 369 1 457 -6 l 329 156 l 271 157 q 243 58 254 111 q 231 -6 232 4 l 160 -6 l 13 -7 l -19 -8 q 31 275 -3 122 q 125 681 64 428 q 193 969 172 878 q 775 978 379 978 q 986 975 964 978 l 986 768 q 928 756 968 758 q 801 753 889 754 q 617 746 688 753 l 617 596 q 660 593 631 593 l 707 593 q 786 585 753 593 q 793 511 793 563 l 792 446 q 790 386 790 425 q 685 376 754 376 q 622 374 642 376 l 621 353 q 618 285 618 311 q 629 206 618 221 q 768 203 682 203 q 990 196 910 203 q 992 133 992 174 q 978 -1 992 58 m 319 456 q 303 518 310 518 q 282 404 296 518 l 331 400 l 319 456 z "},"B":{"ha":663,"x_min":36,"x_max":668,"o":"m 565 464 q 643 353 618 397 q 668 251 668 310 q 664 200 668 228 q 549 31 642 76 q 310 -14 456 -14 q 40 3 267 -14 q 36 336 36 107 q 38 785 36 585 l 38 965 q 272 1000 160 1000 q 530 931 429 1000 q 631 706 631 863 q 560 485 631 604 l 560 486 q 557 478 557 481 q 565 465 557 474 l 565 464 m 411 706 q 358 753 390 744 q 324 756 336 756 q 269 763 288 758 q 274 690 274 739 l 274 640 q 275 586 274 606 l 315 586 q 399 628 376 586 q 417 682 417 661 q 411 706 417 694 m 411 279 q 403 331 411 303 l 403 329 q 383 357 396 344 q 358 372 371 369 q 293 381 336 378 q 284 380 289 381 q 274 381 279 379 q 260 279 260 322 q 275 201 260 229 q 353 205 325 200 q 401 233 382 210 q 411 279 411 247 z "},"C":{"ha":678,"x_min":22,"x_max":676,"o":"m 282 738 q 275 650 279 732 q 271 483 271 568 q 275 339 271 397 q 297 266 279 301 q 340 218 315 231 q 414 263 389 215 l 413 263 q 425 342 425 289 q 431 407 425 383 q 497 401 465 401 l 561 403 q 656 392 611 403 q 672 290 672 343 q 633 140 672 211 q 524 25 593 69 q 369 -22 454 -19 q 311 -26 344 -26 q 121 22 203 -26 q 29 168 39 71 q 22 467 22 307 q 24 683 22 599 l 25 746 q 28 794 24 767 q 42 842 33 821 q 74 906 54 874 q 117 958 94 938 q 203 999 146 982 q 315 1015 257 1015 q 493 972 410 1015 q 626 852 576 928 q 676 688 676 776 q 657 582 676 635 q 560 569 599 569 q 414 588 507 569 l 410 640 q 394 737 407 704 q 338 768 381 769 q 334 767 336 768 q 328 767 332 767 l 329 767 q 282 738 286 760 z "},"Ç":{"ha":661,"x_min":22,"x_max":656,"o":"m 126 942 q 193 965 157 960 q 274 969 229 971 l 314 969 q 467 950 414 969 q 603 831 551 914 q 656 656 656 747 q 635 553 656 596 q 594 551 608 553 l 544 550 q 413 563 494 550 q 399 633 401 590 q 383 708 394 679 q 340 743 372 736 q 293 722 313 744 q 271 667 274 700 q 265 485 265 556 q 274 303 265 390 l 274 304 q 297 244 282 271 q 333 210 313 218 q 404 253 382 210 l 403 253 q 415 336 413 275 q 418 388 415 360 q 475 389 456 388 l 538 390 q 640 378 599 390 q 656 278 656 328 q 624 140 656 206 q 533 32 593 75 q 396 -19 474 -11 l 393 -32 q 354 -185 374 -117 q 313 -183 338 -183 q 272 -185 283 -183 q 233 -186 260 -186 q 207 -185 215 -186 q 193 -183 197 -185 q 189 -174 189 -181 q 208 -78 189 -142 q 224 -18 221 -31 q 63 84 101 -21 q 24 358 24 189 l 25 471 q 24 539 25 515 l 22 613 q 44 801 22 719 q 126 942 65 883 z "},"D":{"ha":669,"x_min":32,"x_max":663,"o":"m 563 861 q 649 654 628 758 l 649 656 q 663 565 660 621 q 660 503 660 524 l 658 481 q 656 415 658 471 q 642 306 653 360 q 569 153 615 228 q 458 0 522 79 q 267 -3 342 -3 l 167 -4 l 58 -6 q 33 453 33 176 q 35 633 33 574 q 36 819 36 688 q 33 919 36 853 l 32 961 l 42 963 q 213 982 115 982 l 249 981 l 286 981 q 342 979 304 979 q 397 981 379 979 q 496 931 449 967 q 571 850 543 896 l 563 861 m 436 476 q 431 525 436 501 q 404 620 419 583 q 357 668 389 657 l 360 668 q 310 671 326 671 q 274 668 282 671 q 276 574 276 618 l 276 538 l 275 500 q 274 404 274 468 q 272 311 274 343 q 301 303 293 303 l 319 303 q 351 307 342 303 q 401 357 374 313 q 436 476 436 410 z "},"Ð":{"ha":669,"x_min":-29,"x_max":661,"o":"m 51 663 q 53 769 53 700 l 51 919 q 50 958 50 932 l 88 964 q 202 981 156 975 q 297 986 249 986 q 455 958 388 986 q 563 863 522 931 q 624 729 607 788 q 657 568 651 644 q 661 482 661 531 q 640 303 661 389 q 549 91 604 167 q 447 4 494 15 q 304 -7 386 -7 q 207 -4 271 -7 l 182 -3 q 57 -1 96 0 q 50 328 53 101 l 50 369 q -22 371 24 371 q -25 446 -22 393 l -26 468 q -28 576 -29 529 l 51 575 l 51 663 m 440 467 q 423 613 440 540 q 361 724 406 686 l 363 724 q 314 735 340 735 q 281 731 296 735 q 253 721 267 726 l 254 571 q 275 570 260 571 q 336 569 290 569 q 339 474 336 543 l 340 378 l 253 379 l 253 353 l 253 294 q 256 238 253 239 q 290 233 269 233 q 336 236 308 233 q 421 315 401 253 q 440 467 440 378 z "},"E":{"ha":668,"x_min":33,"x_max":667,"o":"m 667 124 q 651 -3 667 53 q 471 -6 590 -3 l 289 -7 q 42 1 165 -7 q 38 347 43 46 q 33 610 33 518 q 43 964 33 800 l 165 968 q 479 976 371 976 q 660 969 572 976 q 665 901 665 940 q 663 833 665 881 q 660 764 660 789 q 474 746 576 746 l 293 744 q 286 636 286 679 q 294 578 286 603 l 386 589 q 444 586 406 589 l 463 585 q 469 494 469 543 l 467 383 q 347 371 422 371 l 311 372 q 299 369 301 372 l 293 297 q 299 203 293 240 q 439 199 371 203 q 497 196 463 197 q 579 194 532 194 l 664 197 q 667 124 667 133 z "},"É":{"ha":668,"x_min":33,"x_max":667,"o":"m 521 1132 q 428 1036 443 1067 q 342 1032 399 1032 q 262 1036 303 1032 q 200 1046 221 1040 q 293 1138 233 1074 q 456 1292 396 1243 l 568 1174 l 521 1132 m 667 124 q 651 -3 667 53 q 471 -6 590 -3 l 289 -7 q 42 1 165 -7 q 38 347 43 46 q 33 610 33 518 q 43 964 33 800 l 165 968 q 479 976 371 976 q 660 969 572 976 q 665 901 665 940 q 663 833 665 881 q 660 764 660 789 q 474 746 576 746 l 293 744 q 286 636 286 679 q 294 578 286 603 l 386 589 q 444 586 406 589 l 463 585 q 469 494 469 543 l 467 383 q 347 371 422 371 l 311 372 q 299 369 301 372 l 293 297 q 299 203 293 240 q 439 199 371 203 q 497 196 463 197 q 579 194 532 194 l 664 197 q 667 124 667 133 z "},"Ê":{"ha":668,"x_min":33,"x_max":667,"o":"m 538 1054 q 497 1036 522 1039 q 424 1033 471 1033 q 369 1036 386 1033 q 340 1048 353 1038 q 318 1072 328 1058 q 304 1090 308 1085 q 281 1067 300 1086 q 242 1038 261 1047 q 185 1033 214 1033 q 132 1038 157 1033 l 58 1043 q 131 1127 93 1089 q 229 1221 168 1165 l 307 1294 l 538 1054 m 667 124 q 651 -3 667 53 q 471 -6 590 -3 l 289 -7 q 42 1 165 -7 q 38 347 43 46 q 33 610 33 518 q 43 964 33 800 l 165 968 q 479 976 371 976 q 660 969 572 976 q 665 901 665 940 q 663 833 665 881 q 660 764 660 789 q 474 746 576 746 l 293 744 q 286 636 286 679 q 294 578 286 603 l 386 589 q 444 586 406 589 l 463 585 q 469 494 469 543 l 467 383 q 347 371 422 371 l 311 372 q 299 369 301 372 l 293 297 q 299 203 293 240 q 439 199 371 203 q 497 196 463 197 q 579 194 532 194 l 664 197 q 667 124 667 133 z "},"Ë":{"ha":668,"x_min":33,"x_max":667,"o":"m 131 1047 q 125 1115 125 1075 l 126 1144 l 126 1168 l 128 1183 l 128 1197 q 176 1207 146 1203 q 233 1211 206 1211 q 321 1197 292 1211 q 319 1175 321 1183 l 317 1133 l 310 1046 l 131 1047 m 372 1047 q 367 1115 367 1075 l 368 1144 l 368 1168 l 369 1183 l 369 1197 q 417 1207 388 1203 q 475 1211 447 1211 q 563 1197 533 1211 q 561 1175 563 1183 l 558 1133 l 551 1046 l 372 1047 m 667 124 q 651 -3 667 53 q 471 -6 590 -3 l 289 -7 q 42 1 165 -7 q 38 347 43 46 q 33 610 33 518 q 43 964 33 800 l 165 968 q 479 976 371 976 q 660 969 572 976 q 665 901 665 940 q 663 833 665 881 q 660 764 660 789 q 474 746 576 746 l 293 744 q 286 636 286 679 q 294 578 286 603 l 386 589 q 444 586 406 589 l 463 585 q 469 494 469 543 l 467 383 q 347 371 422 371 l 311 372 q 299 369 301 372 l 293 297 q 299 203 293 240 q 439 199 371 203 q 497 196 463 197 q 579 194 532 194 l 664 197 q 667 124 667 133 z "},"È":{"ha":668,"x_min":33,"x_max":667,"o":"m 247 1292 q 329 1219 285 1263 q 411 1138 374 1176 l 411 1139 l 439 1111 l 467 1082 q 504 1044 504 1044 q 442 1035 483 1039 q 363 1032 401 1032 q 279 1036 308 1032 q 194 1121 264 1058 l 185 1129 l 186 1129 q 133 1176 154 1156 l 247 1292 m 667 124 q 651 -3 667 53 q 471 -6 590 -3 l 289 -7 q 42 1 165 -7 q 38 347 43 46 q 33 610 33 518 q 43 964 33 800 l 165 968 q 479 976 371 976 q 660 969 572 976 q 665 901 665 940 q 663 833 665 881 q 660 764 660 789 q 474 746 576 746 l 293 744 q 286 636 286 679 q 294 578 286 603 l 386 589 q 444 586 406 589 l 463 585 q 469 494 469 543 l 467 383 q 347 371 422 371 l 311 372 q 299 369 301 372 l 293 297 q 299 203 293 240 q 439 199 371 203 q 497 196 463 197 q 579 194 532 194 l 664 197 q 667 124 667 133 z "},"F":{"ha":686,"x_min":36,"x_max":704,"o":"m 493 356 q 403 346 475 353 q 369 344 389 344 q 331 339 350 343 l 321 44 l 321 -4 q 151 -11 263 -11 q 36 3 56 -11 l 38 229 l 38 411 q 39 949 39 557 q 212 967 99 958 q 429 975 325 975 q 701 950 600 975 l 701 924 q 702 901 701 918 q 704 824 703 883 q 701 736 704 775 l 600 731 l 549 728 l 524 726 l 449 722 q 329 715 369 719 l 325 706 q 321 669 321 693 q 324 626 321 647 q 329 600 326 604 q 396 596 364 596 q 508 603 460 596 q 515 544 515 588 l 515 517 l 514 483 l 513 457 l 513 431 q 515 365 513 401 q 493 356 515 358 z "},"G":{"ha":668,"x_min":17,"x_max":658,"o":"m 443 504 q 578 499 503 504 l 622 496 l 646 494 l 649 465 q 654 399 650 450 q 658 313 658 349 q 647 172 658 242 q 599 67 638 110 q 500 1 560 24 q 313 -29 399 -29 q 192 -8 246 -29 q 49 161 82 40 q 32 258 39 199 q 17 507 32 243 q 18 578 17 551 q 32 761 21 703 q 122 925 51 872 q 267 978 175 964 q 332 982 299 982 q 560 912 471 982 q 649 713 649 842 l 646 668 l 646 649 q 622 647 636 647 q 597 647 608 647 l 531 647 q 429 653 478 647 q 354 767 396 767 q 339 768 347 767 q 324 769 331 769 q 285 753 301 769 q 275 719 283 751 q 249 461 249 632 q 254 321 249 376 q 292 203 264 228 q 314 192 306 194 q 351 194 329 190 q 389 204 372 197 q 419 249 413 214 q 428 292 424 265 q 431 324 432 318 l 397 324 q 318 332 346 321 q 315 404 315 361 l 315 419 q 316 438 315 425 q 313 489 317 451 q 360 494 324 489 q 443 504 415 504 z "},"H":{"ha":693,"x_min":33,"x_max":672,"o":"m 672 4 q 522 -6 615 -6 q 436 -8 475 -6 q 424 203 428 51 q 411 382 421 319 l 358 385 q 294 379 317 385 q 290 303 290 339 q 292 210 290 240 l 292 174 l 293 138 q 286 11 293 54 q 208 -7 254 -7 q 153 -4 186 -7 l 140 -3 q 107 0 115 0 l 63 -3 q 43 374 53 122 q 33 821 33 625 q 35 976 33 932 l 192 979 q 257 969 228 979 q 267 832 264 910 l 268 799 q 275 697 271 738 q 289 607 279 656 l 342 601 q 369 604 356 601 q 394 608 382 607 l 397 608 q 407 813 407 714 q 403 968 407 885 q 481 983 435 978 q 569 989 526 989 q 635 986 607 989 l 672 4 z "},"I":{"ha":361,"x_min":32,"x_max":329,"o":"m 329 971 q 325 643 329 808 q 319 297 319 424 q 328 7 319 151 q 219 -14 307 -14 q 146 -12 169 -14 l 129 -11 l 104 -10 q 33 -21 76 -10 q 42 236 42 100 q 39 396 42 290 l 38 476 q 32 715 32 624 q 44 986 32 853 q 83 989 63 989 q 114 987 94 989 q 160 986 133 985 q 275 983 232 982 l 329 983 l 329 971 z "},"Í":{"ha":360,"x_min":32,"x_max":428,"o":"m 381 1132 q 288 1036 303 1067 q 201 1032 258 1032 q 122 1036 163 1032 q 60 1046 81 1040 q 153 1138 93 1074 q 315 1292 256 1243 l 428 1174 l 381 1132 m 329 971 q 325 643 329 808 q 319 297 319 424 q 328 7 319 151 q 219 -14 307 -14 q 146 -12 169 -14 l 129 -11 l 104 -10 q 33 -21 76 -10 q 42 236 42 100 q 39 396 42 290 l 38 476 q 32 715 32 624 q 44 986 32 853 q 83 989 63 989 q 114 987 94 989 q 160 986 133 985 q 275 983 232 982 l 329 983 l 329 971 z "},"Î":{"ha":361,"x_min":-60,"x_max":419,"o":"m 419 1054 q 378 1036 404 1039 q 306 1033 353 1033 q 251 1036 268 1033 q 222 1048 235 1038 q 200 1072 210 1058 q 186 1090 190 1085 q 163 1067 182 1086 q 124 1038 143 1047 q 67 1033 97 1033 q 14 1038 39 1033 l -60 1043 q 13 1127 -25 1089 q 111 1221 50 1165 l 189 1294 l 419 1054 m 329 971 q 325 643 329 808 q 319 297 319 424 q 328 7 319 151 q 219 -14 307 -14 q 146 -12 169 -14 l 129 -11 l 104 -10 q 33 -21 76 -10 q 42 236 42 100 q 39 396 42 290 l 38 476 q 32 715 32 624 q 44 986 32 853 q 83 989 63 989 q 114 987 94 989 q 160 986 133 985 q 275 983 232 982 l 329 983 l 329 971 z "},"Ï":{"ha":361,"x_min":-22,"x_max":415,"o":"m -17 1047 q -22 1115 -22 1075 l -21 1144 l -21 1168 l -19 1183 l -19 1197 q 28 1207 -1 1203 q 86 1211 58 1211 q 174 1197 144 1211 q 172 1175 174 1183 l 169 1133 l 163 1046 l -17 1047 m 225 1047 q 219 1115 219 1075 l 221 1144 l 221 1168 l 222 1183 l 222 1197 q 270 1207 240 1203 q 328 1211 300 1211 q 415 1197 386 1211 q 414 1175 415 1183 l 411 1133 l 404 1046 l 225 1047 m 329 971 q 325 643 329 808 q 319 297 319 424 q 328 7 319 151 q 219 -14 307 -14 q 146 -12 169 -14 l 129 -11 l 104 -10 q 33 -21 76 -10 q 42 236 42 100 q 39 396 42 290 l 38 476 q 32 715 32 624 q 44 986 32 853 q 83 989 63 989 q 114 987 94 989 q 160 986 133 985 q 275 983 232 982 l 329 983 l 329 971 z "},"Ì":{"ha":361,"x_min":-43,"x_max":329,"o":"m 71 1292 q 153 1219 108 1263 q 235 1138 197 1176 l 235 1139 l 263 1111 l 290 1082 q 328 1044 328 1044 q 266 1035 307 1039 q 186 1032 225 1032 q 103 1036 132 1032 q 18 1121 88 1058 l 8 1129 l 10 1129 q -43 1176 -22 1156 l 71 1292 m 329 971 q 325 643 329 808 q 319 297 319 424 q 328 7 319 151 q 219 -14 307 -14 q 146 -12 169 -14 l 129 -11 l 104 -10 q 33 -21 76 -10 q 42 236 42 100 q 39 396 42 290 l 38 476 q 32 715 32 624 q 44 986 32 853 q 83 989 63 989 q 114 987 94 989 q 160 986 133 985 q 275 983 232 982 l 329 983 l 329 971 z "},"J":{"ha":643,"x_min":-17,"x_max":618,"o":"m 611 919 q 614 726 611 857 l 615 672 q 618 536 618 589 q 617 457 618 483 q 615 400 615 439 q 603 231 613 299 q 556 103 593 163 q 443 15 519 43 l 443 17 q 278 -18 375 -18 q 169 -7 222 -18 q 26 127 68 24 q -17 358 -17 231 l -15 379 l -15 403 q 93 414 25 414 q 242 400 172 414 l 242 389 q 308 238 253 242 q 349 259 335 232 q 368 328 364 286 q 363 721 363 561 q 367 976 363 847 l 367 993 l 611 996 l 611 919 z "},"K":{"ha":638,"x_min":33,"x_max":665,"o":"m 665 3 q 567 -8 619 -8 q 493 -6 540 -8 q 436 -4 478 -4 q 369 95 399 40 q 304 232 340 150 q 292 263 297 246 q 288 283 288 281 l 283 300 l 278 318 q 281 142 278 247 q 283 4 283 56 q 167 -10 233 -10 q 39 4 99 -10 q 33 278 33 125 q 38 607 33 443 q 42 978 42 774 q 171 976 88 979 q 269 975 197 975 q 271 717 271 922 l 271 689 q 346 822 317 763 q 439 978 394 915 l 531 976 q 664 969 601 979 q 618 853 647 911 q 536 704 589 796 l 528 690 q 426 499 475 607 l 665 3 z "},"L":{"ha":640,"x_min":29,"x_max":658,"o":"m 657 100 q 658 51 658 83 q 653 10 658 22 q 639 -4 649 -1 q 606 -7 629 -7 l 596 -7 l 574 -6 l 538 -7 q 283 -10 451 -10 q 29 -8 124 -10 l 29 24 q 39 485 39 253 q 36 719 39 553 l 36 753 l 36 804 q 35 889 35 828 l 33 979 q 88 991 53 986 q 157 996 122 996 q 235 990 196 996 q 297 975 274 985 q 294 815 294 875 q 297 565 294 732 q 299 319 299 482 l 299 229 q 411 225 344 229 l 485 222 q 594 218 543 218 q 658 221 631 218 q 657 179 658 189 l 657 181 q 656 126 654 143 l 657 100 z "},"M":{"ha":696,"x_min":36,"x_max":660,"o":"m 654 -11 q 558 -4 610 -4 q 532 -5 553 -4 q 429 -7 511 -6 q 426 125 426 68 l 417 431 l 400 399 q 367 346 379 361 q 342 331 356 331 q 269 431 311 332 q 269 394 268 417 q 269 360 269 372 l 269 325 q 282 0 269 190 q 161 -10 222 -10 l 67 -7 l 47 -7 q 42 -6 43 -7 q 40 -3 40 -6 l 39 13 q 36 229 36 65 q 40 954 36 421 q 84 964 61 961 q 150 967 107 967 l 218 965 q 264 967 249 965 q 296 914 282 946 q 347 783 310 882 q 356 811 349 786 q 421 974 364 836 q 468 969 439 969 q 543 972 490 969 l 660 975 l 654 -11 z "},"N":{"ha":692,"x_min":33,"x_max":654,"o":"m 388 117 q 272 382 300 308 l 272 115 q 274 -3 272 29 q 192 -14 236 -14 q 150 -11 178 -14 q 106 -8 119 -8 l 38 -6 l 38 99 q 35 351 38 188 q 33 600 33 433 q 46 975 33 824 q 129 985 83 985 q 203 979 160 985 q 264 963 247 974 q 312 862 283 926 q 367 733 340 797 l 422 606 q 419 835 419 703 q 421 982 419 942 q 542 993 478 993 q 654 981 596 993 l 654 -4 q 638 -8 650 -4 q 589 -14 624 -14 q 515 -10 582 -15 q 473 -7 499 -8 q 443 -7 447 -6 l 388 117 z "},"Ñ":{"ha":717,"x_min":33,"x_max":658,"o":"m 56 1043 q 95 1147 69 1088 q 147 1235 121 1206 q 206 1272 171 1258 q 276 1286 240 1286 q 361 1263 325 1286 q 384 1242 374 1254 q 397 1228 394 1231 q 431 1194 418 1204 q 446 1189 438 1189 q 478 1215 463 1189 q 504 1269 494 1242 q 624 1274 542 1274 l 657 1275 q 658 1247 658 1265 q 618 1113 658 1175 q 511 1036 578 1050 q 481 1033 492 1033 q 399 1052 436 1033 q 347 1107 363 1071 q 307 1135 332 1135 q 273 1117 288 1135 q 258 1074 258 1099 q 265 1043 258 1056 q 147 1046 174 1046 l 56 1043 m 388 117 q 272 382 300 308 l 272 115 q 274 -3 272 29 q 192 -14 236 -14 q 150 -11 178 -14 q 106 -8 119 -8 l 38 -6 l 38 99 q 35 351 38 188 q 33 600 33 433 q 46 975 33 824 q 129 985 83 985 q 203 979 160 985 q 264 963 247 974 q 312 862 283 926 q 367 733 340 797 l 422 606 q 419 835 419 703 q 421 982 419 942 q 542 993 478 993 q 654 981 596 993 l 654 -4 q 638 -8 650 -4 q 589 -14 624 -14 q 515 -10 582 -15 q 473 -7 499 -8 q 443 -7 447 -6 l 388 117 z "},"O":{"ha":671,"x_min":18,"x_max":654,"o":"m 650 736 q 654 649 654 693 l 653 624 l 653 599 q 650 464 650 553 q 646 314 650 365 l 642 268 q 585 76 635 156 q 522 25 564 47 q 431 -11 481 3 q 310 -26 379 -26 q 265 -25 278 -26 q 144 5 197 -19 q 65 76 90 29 q 29 233 32 139 l 26 278 q 25 324 25 289 q 18 542 18 438 q 22 669 18 606 q 47 805 26 739 q 108 921 67 871 l 139 938 q 333 981 228 981 q 459 963 400 981 q 563 913 518 946 q 626 825 611 868 q 650 736 643 781 m 435 585 l 429 657 q 410 726 426 696 q 369 768 394 756 q 347 772 358 772 q 282 750 314 772 q 249 710 265 736 q 225 658 233 685 q 211 503 211 597 q 213 432 211 456 l 213 433 q 221 360 218 406 l 222 340 q 238 238 228 271 l 238 239 q 274 197 250 211 q 326 182 299 182 q 372 192 349 182 q 411 222 394 203 q 428 253 425 240 q 432 292 432 265 q 433 326 432 315 l 435 344 l 436 371 l 436 390 l 438 417 l 438 483 l 435 578 l 435 585 z "},"Ó":{"ha":674,"x_min":18,"x_max":654,"o":"m 529 1132 q 436 1036 451 1067 q 350 1032 407 1032 q 270 1036 311 1032 q 208 1046 229 1040 q 301 1138 242 1074 q 464 1292 404 1243 l 576 1174 l 529 1132 m 650 736 q 654 649 654 693 l 653 624 l 653 599 q 650 464 650 553 q 646 314 650 365 l 642 268 q 585 76 635 156 q 522 25 564 47 q 431 -11 481 3 q 310 -26 379 -26 q 265 -25 278 -26 q 144 5 197 -19 q 65 76 90 29 q 29 233 32 139 l 26 278 q 25 324 25 289 q 18 542 18 438 q 22 669 18 606 q 47 805 26 739 q 108 921 67 871 l 139 938 q 333 981 228 981 q 459 963 400 981 q 563 913 518 946 q 626 825 611 868 q 650 736 643 781 m 435 585 l 429 657 q 410 726 426 696 q 369 768 394 756 q 347 772 358 772 q 282 750 314 772 q 249 710 265 736 q 225 658 233 685 q 211 503 211 597 q 213 432 211 456 l 213 433 q 221 360 218 406 l 222 340 q 238 238 228 271 l 238 239 q 274 197 250 211 q 326 182 299 182 q 372 192 349 182 q 411 222 394 203 q 428 253 425 240 q 432 292 432 265 q 433 326 432 315 l 435 344 l 436 371 l 436 390 l 438 417 l 438 483 l 435 578 l 435 585 z "},"Ô":{"ha":672,"x_min":18,"x_max":654,"o":"m 574 1054 q 533 1036 558 1039 q 460 1033 507 1033 q 406 1036 422 1033 q 376 1048 389 1038 q 354 1072 364 1058 q 340 1090 344 1085 q 317 1067 336 1086 q 278 1038 297 1047 q 221 1033 250 1033 q 168 1038 193 1033 l 94 1043 q 167 1127 129 1089 q 265 1221 204 1165 l 343 1294 l 574 1054 m 650 736 q 654 649 654 693 l 653 624 l 653 599 q 650 464 650 553 q 646 314 650 365 l 642 268 q 585 76 635 156 q 522 25 564 47 q 431 -11 481 3 q 310 -26 379 -26 q 265 -25 278 -26 q 144 5 197 -19 q 65 76 90 29 q 29 233 32 139 l 26 278 q 25 324 25 289 q 18 542 18 438 q 22 669 18 606 q 47 805 26 739 q 108 921 67 871 l 139 938 q 333 981 228 981 q 459 963 400 981 q 563 913 518 946 q 626 825 611 868 q 650 736 643 781 m 435 585 l 429 657 q 410 726 426 696 q 369 768 394 756 q 347 772 358 772 q 282 750 314 772 q 249 710 265 736 q 225 658 233 685 q 211 503 211 597 q 213 432 211 456 l 213 433 q 221 360 218 406 l 222 340 q 238 238 228 271 l 238 239 q 274 197 250 211 q 326 182 299 182 q 372 192 349 182 q 411 222 394 203 q 428 253 425 240 q 432 292 432 265 q 433 326 432 315 l 435 344 l 436 371 l 436 390 l 438 417 l 438 483 l 435 578 l 435 585 z "},"Ö":{"ha":672,"x_min":18,"x_max":654,"o":"m 128 1047 q 122 1115 122 1075 l 124 1144 l 124 1168 l 125 1183 l 125 1197 q 173 1207 143 1203 q 231 1211 203 1211 q 318 1197 289 1211 q 317 1175 318 1183 l 314 1133 l 307 1046 l 128 1047 m 369 1047 q 364 1115 364 1075 l 365 1144 l 365 1168 l 367 1183 l 367 1197 q 415 1207 385 1203 q 472 1211 444 1211 q 560 1197 531 1211 q 558 1175 560 1183 l 556 1133 l 549 1046 l 369 1047 m 650 736 q 654 649 654 693 l 653 624 l 653 599 q 650 464 650 553 q 646 314 650 365 l 642 268 q 585 76 635 156 q 522 25 564 47 q 431 -11 481 3 q 310 -26 379 -26 q 265 -25 278 -26 q 144 5 197 -19 q 65 76 90 29 q 29 233 32 139 l 26 278 q 25 324 25 289 q 18 542 18 438 q 22 669 18 606 q 47 805 26 739 q 108 921 67 871 l 139 938 q 333 981 228 981 q 459 963 400 981 q 563 913 518 946 q 626 825 611 868 q 650 736 643 781 m 435 585 l 429 657 q 410 726 426 696 q 369 768 394 756 q 347 772 358 772 q 282 750 314 772 q 249 710 265 736 q 225 658 233 685 q 211 503 211 597 q 213 432 211 456 l 213 433 q 221 360 218 406 l 222 340 q 238 238 228 271 l 238 239 q 274 197 250 211 q 326 182 299 182 q 372 192 349 182 q 411 222 394 203 q 428 253 425 240 q 432 292 432 265 q 433 326 432 315 l 435 344 l 436 371 l 436 390 l 438 417 l 438 483 l 435 578 l 435 585 z "},"Ò":{"ha":674,"x_min":18,"x_max":654,"o":"m 185 1292 q 267 1219 222 1263 q 349 1138 311 1176 l 349 1139 l 376 1111 l 404 1082 q 442 1044 442 1044 q 380 1035 421 1039 q 300 1032 339 1032 q 217 1036 246 1032 q 132 1121 201 1058 l 122 1129 l 124 1129 q 71 1176 92 1156 l 185 1292 m 650 736 q 654 649 654 693 l 653 624 l 653 599 q 650 464 650 553 q 646 314 650 365 l 642 268 q 585 76 635 156 q 522 25 564 47 q 431 -11 481 3 q 310 -26 379 -26 q 265 -25 278 -26 q 144 5 197 -19 q 65 76 90 29 q 29 233 32 139 l 26 278 q 25 324 25 289 q 18 542 18 438 q 22 669 18 606 q 47 805 26 739 q 108 921 67 871 l 139 938 q 333 981 228 981 q 459 963 400 981 q 563 913 518 946 q 626 825 611 868 q 650 736 643 781 m 435 585 l 429 657 q 410 726 426 696 q 369 768 394 756 q 347 772 358 772 q 282 750 314 772 q 249 710 265 736 q 225 658 233 685 q 211 503 211 597 q 213 432 211 456 l 213 433 q 221 360 218 406 l 222 340 q 238 238 228 271 l 238 239 q 274 197 250 211 q 326 182 299 182 q 372 192 349 182 q 411 222 394 203 q 428 253 425 240 q 432 292 432 265 q 433 326 432 315 l 435 344 l 436 371 l 436 390 l 438 417 l 438 483 l 435 578 l 435 585 z "},"Ø":{"ha":665,"x_min":19,"x_max":650,"o":"m 647 538 q 643 342 647 424 q 624 181 639 260 q 547 57 607 107 q 406 -3 488 7 q 324 -6 382 -6 q 264 -8 285 -6 q 243 -31 260 -15 q 138 -35 233 -35 q 31 -37 50 -35 q 29 -17 29 -32 q 38 55 29 18 q 67 104 47 92 q 19 472 19 304 q 21 540 19 511 q 24 588 22 568 q 28 701 28 644 q 58 849 31 794 q 158 954 100 924 q 306 985 217 985 l 340 985 q 369 983 358 985 l 369 1006 q 432 1015 369 1015 q 491 1014 468 1015 q 524 1013 514 1013 q 610 993 575 1013 q 594 943 610 976 q 582 899 582 913 q 650 676 650 817 l 647 538 m 219 519 q 300 771 271 672 q 265 746 282 764 q 240 706 249 728 l 240 707 q 232 619 235 676 l 219 519 m 399 356 l 371 276 q 346 194 353 218 q 392 221 371 204 q 421 261 413 238 q 436 394 436 328 q 433 458 436 429 l 399 356 z "},"Õ":{"ha":672,"x_min":18,"x_max":654,"o":"m 35 1025 q 74 1128 49 1069 q 126 1217 100 1188 q 185 1254 150 1240 q 256 1268 219 1268 q 340 1244 304 1268 q 363 1224 353 1236 q 376 1210 374 1213 q 410 1176 397 1186 q 425 1171 417 1171 q 458 1197 442 1171 q 483 1251 474 1224 q 603 1256 521 1256 l 636 1257 q 638 1229 638 1247 q 597 1094 638 1157 q 490 1018 557 1032 q 460 1015 471 1015 q 378 1034 415 1015 q 326 1089 342 1053 q 286 1117 311 1117 q 252 1099 267 1117 q 238 1056 238 1081 q 244 1025 238 1038 q 126 1028 153 1028 l 35 1025 m 650 736 q 654 649 654 693 l 653 624 l 653 599 q 650 464 650 553 q 646 314 650 365 l 642 268 q 585 76 635 156 q 522 25 564 47 q 431 -11 481 3 q 310 -26 379 -26 q 265 -25 278 -26 q 144 5 197 -19 q 65 76 90 29 q 29 233 32 139 l 26 278 q 25 324 25 289 q 18 542 18 438 q 22 669 18 606 q 47 805 26 739 q 108 921 67 871 l 139 938 q 333 981 228 981 q 459 963 400 981 q 563 913 518 946 q 626 825 611 868 q 650 736 643 781 m 435 585 l 429 657 q 410 726 426 696 q 369 768 394 756 q 347 772 358 772 q 282 750 314 772 q 249 710 265 736 q 225 658 233 685 q 211 503 211 597 q 213 432 211 456 l 213 433 q 221 360 218 406 l 222 340 q 238 238 228 271 l 238 239 q 274 197 250 211 q 326 182 299 182 q 372 192 349 182 q 411 222 394 203 q 428 253 425 240 q 432 292 432 265 q 433 326 432 315 l 435 344 l 436 371 l 436 390 l 438 417 l 438 483 l 435 578 l 435 585 z "},"Œ":{"ha":1153,"x_min":15,"x_max":1151,"o":"m 1149 188 q 1151 119 1151 143 q 1132 -3 1151 49 q 914 -4 1063 -4 l 828 -4 q 604 -10 683 -4 q 481 -18 540 -11 l 472 -18 q 344 -26 389 -26 q 254 -21 293 -26 q 118 40 176 -8 q 35 156 60 88 q 15 361 15 235 q 24 551 15 424 q 31 700 29 638 q 75 844 32 775 q 186 951 118 914 q 306 979 240 979 q 361 976 328 979 q 435 975 410 974 q 711 972 613 972 q 1121 976 944 972 l 1147 976 l 1147 936 l 1149 901 q 1143 761 1149 818 q 1060 752 1107 754 q 906 750 1013 750 l 774 750 q 771 686 775 724 q 768 636 768 653 q 775 588 768 613 l 951 581 q 954 511 954 542 q 953 483 954 506 q 950 371 953 460 q 846 374 881 374 q 779 372 801 374 q 776 265 776 360 q 785 194 776 242 l 936 201 l 985 203 q 1149 197 1054 203 l 1149 188 m 440 360 q 456 579 456 492 q 454 628 456 611 q 443 692 451 667 l 435 710 l 436 710 q 400 757 421 743 q 335 776 369 776 q 279 760 315 776 q 256 724 267 749 q 242 672 246 700 q 239 590 239 646 l 239 574 q 242 513 242 556 q 240 442 242 465 l 239 413 l 239 385 q 243 317 239 350 q 260 247 247 282 q 292 193 272 211 q 324 178 308 178 q 378 201 347 178 q 416 263 403 224 q 440 360 429 303 z "},"P":{"ha":690,"x_min":31,"x_max":693,"o":"m 693 681 q 692 643 693 654 q 631 497 682 564 q 503 392 579 431 q 342 354 426 354 q 331 353 338 354 q 314 354 324 353 q 315 321 315 338 q 314 290 314 304 l 314 8 l 299 7 q 168 -4 261 -4 q 40 3 99 -4 q 35 471 35 138 l 35 639 q 31 968 35 865 q 254 999 138 999 q 559 923 433 999 q 693 682 685 847 l 693 681 m 418 743 q 369 768 396 763 q 316 774 343 774 q 275 775 289 775 q 276 700 276 753 l 276 688 q 278 619 276 646 q 288 571 281 592 l 307 571 q 348 571 317 571 q 402 579 379 571 q 438 607 425 588 q 451 661 451 631 q 429 731 451 699 l 418 743 z "},"Þ":{"ha":664,"x_min":31,"x_max":657,"o":"m 275 225 q 271 53 275 136 l 269 28 q 272 7 269 18 q 183 -17 249 -17 q 138 -15 153 -17 l 92 -14 q 31 -21 51 -14 q 40 317 40 144 q 38 558 40 400 q 35 779 35 686 q 40 1021 35 911 l 271 1017 l 272 971 q 274 864 274 936 q 325 881 296 878 q 403 885 354 885 q 532 840 474 883 q 624 723 590 797 q 657 557 657 649 q 632 385 657 474 q 556 238 607 297 q 432 178 506 178 q 350 190 392 178 q 275 225 308 203 m 328 685 q 291 676 301 685 q 278 639 281 667 q 276 531 276 611 q 280 447 276 475 q 297 403 283 419 q 342 386 311 386 q 417 427 389 386 q 444 529 444 468 q 436 601 444 574 q 400 660 428 636 q 328 685 372 685 z "},"Q":{"ha":688,"x_min":21,"x_max":671,"o":"m 654 225 q 653 213 654 222 q 647 192 651 203 q 613 111 640 169 l 617 106 q 634 84 626 94 q 642 67 642 74 q 633 40 642 50 q 599 11 624 29 q 560 -10 576 -3 q 524 -18 543 -18 q 497 -8 513 -18 q 468 14 481 1 q 400 -10 442 -1 q 319 -15 358 -18 q 199 10 246 -10 q 111 69 153 29 q 38 187 56 121 q 21 350 21 253 l 21 543 q 27 717 21 639 q 51 860 33 794 q 155 960 72 921 q 351 999 238 999 q 481 989 435 999 q 564 942 526 979 q 635 825 601 906 q 671 511 671 715 q 667 367 671 422 q 664 321 664 336 q 654 228 661 257 l 654 225 m 453 301 q 454 343 454 317 l 456 397 l 456 501 q 446 671 456 578 q 420 751 442 724 q 347 778 399 778 q 281 771 301 778 q 253 744 261 764 q 243 678 246 725 q 233 476 233 569 l 233 408 l 232 368 q 243 239 232 279 l 243 240 q 349 167 271 167 l 340 174 q 318 197 336 179 q 293 249 293 228 q 301 267 293 260 q 325 285 310 275 q 325 284 325 285 q 326 285 325 283 q 358 310 335 288 q 408 329 378 329 q 440 319 429 329 q 453 301 451 310 z "},"R":{"ha":719,"x_min":24,"x_max":740,"o":"m 594 258 q 684 115 650 174 q 740 -3 718 57 l 718 -3 q 643 -6 701 -3 q 550 -8 585 -8 q 492 -6 531 -8 l 468 -4 q 307 304 378 201 l 307 268 q 317 46 307 182 l 317 47 q 318 14 318 38 q 163 -8 271 -8 l 129 -7 l 56 -7 q 40 244 40 -7 q 36 701 40 472 q 24 975 32 929 l 61 981 q 199 997 144 992 q 310 1003 253 1003 q 414 997 371 1003 q 565 942 494 988 q 677 829 635 896 q 719 692 719 763 q 675 543 719 624 q 601 460 647 493 q 492 419 556 426 q 579 281 529 353 q 594 258 589 264 m 394 613 q 425 640 414 618 q 436 693 436 663 q 408 767 436 750 q 372 781 390 778 q 329 783 353 783 l 269 774 q 272 703 272 732 q 276 611 272 628 q 335 608 300 608 q 394 613 367 608 z "},"S":{"ha":674,"x_min":-10,"x_max":671,"o":"m 646 651 q 531 642 588 642 q 411 657 463 642 q 414 676 414 671 q 390 729 414 708 q 338 750 367 750 q 301 737 317 750 q 282 697 285 724 q 278 675 278 685 l 279 663 q 279 660 279 660 q 308 619 289 631 q 353 604 326 608 q 493 553 422 594 q 607 456 564 511 q 649 376 633 419 q 664 290 664 332 q 632 150 664 218 q 521 29 596 72 q 357 -14 446 -14 q 181 22 267 -14 q 43 124 96 57 q -4 278 -10 190 l -4 290 q 85 297 36 297 q 156 296 126 297 q 250 294 182 294 q 276 229 251 253 q 332 206 300 206 q 378 224 360 206 q 397 275 397 242 q 396 294 397 288 q 347 367 389 346 q 235 401 306 388 l 214 406 q 110 454 154 417 q 35 558 60 503 q 10 669 10 614 q 65 840 10 760 q 207 956 119 919 q 342 978 261 978 q 532 939 446 978 q 633 851 596 906 q 671 724 671 797 q 663 651 671 696 l 646 651 z "},"Š":{"ha":674,"x_min":-75,"x_max":606,"o":"m 108 1264 q 149 1282 124 1279 q 222 1285 175 1285 q 276 1282 260 1285 q 306 1270 293 1281 q 328 1247 318 1260 q 342 1228 338 1233 q 365 1251 346 1232 q 404 1281 385 1271 q 461 1285 431 1285 q 514 1281 489 1285 l 588 1275 q 515 1191 553 1229 q 417 1097 478 1153 l 339 1024 l 108 1264 m 581 651 q 465 642 522 642 q 346 657 397 642 q 349 676 349 671 q 325 729 349 708 q 272 750 301 750 q 235 737 251 750 q 217 697 219 724 q 213 675 213 685 l 214 663 q 214 660 214 660 q 242 619 224 631 q 288 604 261 608 q 428 553 357 594 q 542 456 499 511 q 583 376 568 419 q 599 290 599 332 q 567 150 599 218 q 456 29 531 72 q 292 -14 381 -14 q 116 22 201 -14 q -22 124 31 57 q -69 278 -75 190 l -69 290 q 19 297 -29 297 q 90 296 61 297 q 185 294 117 294 q 210 229 186 253 q 267 206 235 206 q 313 224 294 206 q 332 275 332 242 q 331 294 332 288 q 282 367 324 346 q 169 401 240 388 l 149 406 q 44 454 89 417 q -31 558 -6 503 q -56 669 -56 614 q -1 840 -56 760 q 142 956 54 919 q 276 978 196 978 q 467 939 381 978 q 568 851 531 906 q 606 724 606 797 q 597 651 606 696 l 581 651 z "},"T":{"ha":615,"x_min":-8,"x_max":624,"o":"m 621 972 q 624 883 624 925 q 614 739 624 803 q 542 747 568 747 l 476 749 q 440 744 440 749 q 438 663 438 725 q 447 4 438 540 q 353 -3 407 -3 l 313 -3 q 185 -12 243 -3 q 178 16 181 -6 q 178 56 176 38 l 178 124 l 179 249 q 168 742 179 501 q 125 749 153 749 l 69 747 q 1 754 22 747 q -6 800 -3 763 q -8 885 -8 838 q -7 985 -8 954 l 53 985 l 107 986 l 185 986 l 265 988 q 603 972 472 988 l 621 972 z "},"U":{"ha":701,"x_min":31,"x_max":679,"o":"m 672 936 q 679 661 679 788 q 656 208 679 421 q 578 48 644 113 q 408 -26 513 -17 l 410 -26 q 364 -29 385 -29 q 207 -3 282 -29 q 83 75 132 22 q 31 204 33 128 q 33 508 31 306 l 35 599 q 38 817 38 746 q 36 951 38 908 l 71 951 l 154 954 q 274 939 222 954 q 268 700 268 783 q 286 254 268 499 l 286 256 q 311 213 294 228 q 347 199 328 199 q 389 217 369 199 q 415 263 408 235 l 415 261 q 424 665 421 389 l 425 754 q 428 938 425 821 l 457 942 q 510 946 476 942 q 578 950 567 951 q 661 936 638 950 l 672 936 z "},"Ú":{"ha":701,"x_min":31,"x_max":679,"o":"m 553 1132 q 460 1036 475 1067 q 374 1032 431 1032 q 294 1036 335 1032 q 232 1046 253 1040 q 325 1138 265 1074 q 488 1292 428 1243 l 600 1174 l 553 1132 m 672 936 q 679 661 679 788 q 656 208 679 421 q 578 48 644 113 q 408 -26 513 -17 l 410 -26 q 364 -29 385 -29 q 207 -3 282 -29 q 83 75 132 22 q 31 204 33 128 q 33 508 31 306 l 35 599 q 38 817 38 746 q 36 951 38 908 l 71 951 l 154 954 q 274 939 222 954 q 268 700 268 783 q 286 254 268 499 l 286 256 q 311 213 294 228 q 347 199 328 199 q 389 217 369 199 q 415 263 408 235 l 415 261 q 424 665 421 389 l 425 754 q 428 938 425 821 l 457 942 q 510 946 476 942 q 578 950 567 951 q 661 936 638 950 l 672 936 z "},"Û":{"ha":701,"x_min":31,"x_max":679,"o":"m 574 1054 q 533 1036 558 1039 q 460 1033 507 1033 q 406 1036 422 1033 q 376 1048 389 1038 q 354 1072 364 1058 q 340 1090 344 1085 q 317 1067 336 1086 q 278 1038 297 1047 q 221 1033 250 1033 q 168 1038 193 1033 l 94 1043 q 167 1127 129 1089 q 265 1221 204 1165 l 343 1294 l 574 1054 m 672 936 q 679 661 679 788 q 656 208 679 421 q 578 48 644 113 q 408 -26 513 -17 l 410 -26 q 364 -29 385 -29 q 207 -3 282 -29 q 83 75 132 22 q 31 204 33 128 q 33 508 31 306 l 35 599 q 38 817 38 746 q 36 951 38 908 l 71 951 l 154 954 q 274 939 222 954 q 268 700 268 783 q 286 254 268 499 l 286 256 q 311 213 294 228 q 347 199 328 199 q 389 217 369 199 q 415 263 408 235 l 415 261 q 424 665 421 389 l 425 754 q 428 938 425 821 l 457 942 q 510 946 476 942 q 578 950 567 951 q 661 936 638 950 l 672 936 z "},"Ü":{"ha":701,"x_min":31,"x_max":679,"o":"m 132 1047 q 126 1115 126 1075 l 128 1144 l 128 1168 l 129 1183 l 129 1197 q 177 1207 147 1203 q 235 1211 207 1211 q 322 1197 293 1211 q 321 1175 322 1183 l 318 1133 l 311 1046 l 132 1047 m 374 1047 q 368 1115 368 1075 l 369 1144 l 369 1168 l 371 1183 l 371 1197 q 419 1207 389 1203 q 476 1211 449 1211 q 564 1197 535 1211 q 563 1175 564 1183 l 560 1133 l 553 1046 l 374 1047 m 672 936 q 679 661 679 788 q 656 208 679 421 q 578 48 644 113 q 408 -26 513 -17 l 410 -26 q 364 -29 385 -29 q 207 -3 282 -29 q 83 75 132 22 q 31 204 33 128 q 33 508 31 306 l 35 599 q 38 817 38 746 q 36 951 38 908 l 71 951 l 154 954 q 274 939 222 954 q 268 700 268 783 q 286 254 268 499 l 286 256 q 311 213 294 228 q 347 199 328 199 q 389 217 369 199 q 415 263 408 235 l 415 261 q 424 665 421 389 l 425 754 q 428 938 425 821 l 457 942 q 510 946 476 942 q 578 950 567 951 q 661 936 638 950 l 672 936 z "},"Ù":{"ha":701,"x_min":31,"x_max":679,"o":"m 225 1292 q 307 1219 263 1263 q 389 1138 351 1176 l 389 1139 l 417 1111 l 444 1082 q 482 1044 482 1044 q 420 1035 461 1039 q 340 1032 379 1032 q 257 1036 286 1032 q 172 1121 242 1058 l 163 1129 l 164 1129 q 111 1176 132 1156 l 225 1292 m 672 936 q 679 661 679 788 q 656 208 679 421 q 578 48 644 113 q 408 -26 513 -17 l 410 -26 q 364 -29 385 -29 q 207 -3 282 -29 q 83 75 132 22 q 31 204 33 128 q 33 508 31 306 l 35 599 q 38 817 38 746 q 36 951 38 908 l 71 951 l 154 954 q 274 939 222 954 q 268 700 268 783 q 286 254 268 499 l 286 256 q 311 213 294 228 q 347 199 328 199 q 389 217 369 199 q 415 263 408 235 l 415 261 q 424 665 421 389 l 425 754 q 428 938 425 821 l 457 942 q 510 946 476 942 q 578 950 567 951 q 661 936 638 950 l 672 936 z "},"V":{"ha":611,"x_min":1,"x_max":640,"o":"m 640 957 q 543 511 597 728 q 407 -6 489 294 q 365 -7 376 -6 l 351 -8 q 300 -11 326 -11 q 164 6 213 -11 q 1 946 43 432 q 53 967 14 960 q 139 974 92 974 q 239 964 183 974 l 247 840 q 265 602 256 703 q 293 403 275 501 q 344 681 310 479 q 400 974 386 926 q 524 963 454 963 q 622 957 593 963 l 640 957 z "},"W":{"ha":646,"x_min":11,"x_max":640,"o":"m 640 967 q 596 503 632 854 q 549 4 565 193 q 498 -2 531 -1 q 399 -3 465 -3 q 372 49 382 18 q 350 128 361 81 q 329 201 336 185 q 272 4 283 40 q 186 -4 228 -4 q 113 1 147 -4 l 104 64 q 44 516 68 279 q 11 971 19 753 q 122 981 65 981 l 185 979 q 251 976 224 976 q 257 751 257 914 l 257 725 q 265 482 257 556 q 279 543 271 501 q 294 611 286 583 q 321 660 303 639 q 389 482 365 631 l 393 667 q 406 967 399 886 q 525 979 458 979 q 631 974 579 979 l 640 967 z "},"X":{"ha":606,"x_min":-25,"x_max":631,"o":"m 481 474 q 514 338 493 413 q 556 193 535 263 q 613 -7 588 90 q 564 -4 579 -4 l 478 -6 q 382 6 418 -6 q 359 71 371 31 q 333 169 347 111 q 307 269 325 197 l 299 242 q 253 93 281 178 q 219 -3 226 8 l 168 -4 q 115 -6 150 -6 q -8 11 44 -6 q 78 284 21 99 q 136 482 136 469 q -25 961 88 708 q 181 968 61 968 l 228 968 q 268 814 242 914 q 301 703 294 714 l 322 774 q 378 972 342 847 q 631 978 475 978 l 481 474 z "},"Y":{"ha":604,"x_min":-8,"x_max":639,"o":"m 235 -10 q 171 -6 201 -6 q 114 -8 150 -6 l 56 -10 q -8 -6 28 -10 q 119 339 25 94 l 176 483 q 142 592 163 539 q 89 719 121 646 q 33 863 51 813 q 0 968 14 913 q 82 972 26 967 q 147 978 126 978 q 228 960 196 978 q 266 832 240 908 q 315 696 292 756 q 360 822 322 710 q 407 958 401 947 q 558 974 483 974 q 639 968 604 974 q 557 727 606 843 q 425 436 508 611 q 314 198 358 300 q 235 -10 269 96 z "},"Ý":{"ha":603,"x_min":-8,"x_max":643,"o":"m 506 1132 q 413 1036 428 1067 q 326 1032 383 1032 q 247 1036 288 1032 q 185 1046 206 1040 q 278 1138 218 1074 q 440 1292 381 1243 l 553 1174 l 506 1132 m 643 960 q 568 754 614 865 q 404 378 522 643 q 233 -10 246 19 q 185 -7 200 -7 l 119 -8 q -8 -10 36 -11 q 124 346 8 49 l 175 479 q 134 606 160 542 q 103 683 108 669 l 89 715 q -1 963 21 872 l 60 965 q 80 967 69 965 q 103 968 90 968 q 156 971 133 971 q 254 956 215 971 q 318 751 283 835 q 386 901 342 799 l 410 957 q 569 967 500 967 q 643 960 615 967 z "},"Ÿ":{"ha":603,"x_min":-8,"x_max":643,"o":"m 106 1047 q 100 1115 100 1075 l 101 1144 l 101 1168 l 103 1183 l 103 1197 q 151 1207 121 1203 q 208 1211 181 1211 q 296 1197 267 1211 q 294 1175 296 1183 l 292 1133 l 285 1046 l 106 1047 m 347 1047 q 342 1115 342 1075 l 343 1144 l 343 1168 l 344 1183 l 344 1197 q 392 1207 363 1203 q 450 1211 422 1211 q 538 1197 508 1211 q 536 1175 538 1183 l 533 1133 l 526 1046 l 347 1047 m 643 960 q 568 754 614 865 q 404 378 522 643 q 233 -10 246 19 q 185 -7 200 -7 l 119 -8 q -8 -10 36 -11 q 124 346 8 49 l 175 479 q 134 606 160 542 q 103 683 108 669 l 89 715 q -1 963 21 872 l 60 965 q 80 967 69 965 q 103 968 90 968 q 156 971 133 971 q 254 956 215 971 q 318 751 283 835 q 386 901 342 799 l 410 957 q 569 967 500 967 q 643 960 615 967 z "},"Z":{"ha":658,"x_min":-3,"x_max":650,"o":"m 294 219 q 567 229 369 229 l 638 229 q 644 136 644 192 q 639 29 644 96 l 636 -11 q 311 -1 467 -1 q 29 -10 163 -1 q 15 108 15 13 l 15 169 q 14 221 15 207 q 145 450 64 329 q 340 722 226 571 q 350 739 353 740 q 194 750 294 746 q 25 754 94 754 q 11 796 14 774 q 8 854 8 818 q 4 917 8 885 q -3 964 0 949 q 271 976 117 976 q 454 974 332 976 q 646 971 579 971 q 650 901 650 939 q 649 821 650 849 l 647 739 q 433 421 585 635 q 294 219 349 299 z "},"Ž":{"ha":658,"x_min":-24,"x_max":629,"o":"m 108 1264 q 149 1282 124 1279 q 222 1285 175 1285 q 276 1282 260 1285 q 306 1270 293 1281 q 328 1247 318 1260 q 342 1228 338 1233 q 365 1251 346 1232 q 404 1281 385 1271 q 461 1285 431 1285 q 514 1281 489 1285 l 588 1275 q 515 1191 553 1229 q 417 1097 478 1153 l 339 1024 l 108 1264 m 274 219 q 546 229 349 229 l 617 229 q 624 136 624 192 q 618 29 624 96 l 615 -11 q 290 -1 446 -1 q 8 -10 142 -1 q -6 108 -6 13 l -6 169 q -7 221 -6 207 q 124 450 43 329 q 319 722 206 571 q 329 739 332 740 q 174 750 274 746 q 4 754 74 754 q -10 796 -7 774 q -12 854 -12 818 q -17 917 -12 885 q -24 964 -21 949 q 250 976 96 976 q 433 974 311 976 q 625 971 558 971 q 629 901 629 939 q 628 821 629 849 l 626 739 q 413 421 564 635 q 274 219 328 300 z "},"a":{"ha":661,"x_min":6,"x_max":635,"o":"m 629 699 q 631 675 629 692 q 633 644 633 658 q 632 536 632 608 q 633 390 632 439 l 633 307 l 635 224 q 631 56 635 142 l 631 42 q 625 8 631 19 q 596 -8 619 -4 l 419 -8 q 388 29 388 1 l 388 39 q 311 3 353 17 q 231 -10 269 -10 q 106 50 157 -10 q 31 198 56 110 q 6 369 6 286 q 39 535 6 461 q 131 653 72 610 q 260 697 189 696 q 340 690 303 697 q 388 674 378 683 q 385 692 388 681 q 386 708 382 703 q 406 711 389 711 q 472 708 431 711 q 524 703 513 704 l 611 699 l 629 699 m 218 342 q 246 240 218 281 q 321 199 274 199 q 365 215 351 199 q 383 260 379 232 q 386 343 386 288 l 386 379 q 384 460 386 439 q 372 490 382 482 q 335 497 361 497 q 263 473 290 497 q 226 414 235 449 q 218 342 218 386 z "},"á":{"ha":661,"x_min":6,"x_max":635,"o":"m 519 906 q 426 810 442 840 q 340 806 397 806 q 260 810 301 806 q 199 819 219 814 q 292 911 232 847 q 454 1065 394 1017 l 567 947 l 519 906 m 629 699 q 631 675 629 692 q 633 644 633 658 q 632 536 632 608 q 633 390 632 439 l 633 307 l 635 224 q 631 56 635 142 l 631 42 q 625 8 631 19 q 596 -8 619 -4 l 419 -8 q 388 29 388 1 l 388 39 q 311 3 353 17 q 231 -10 269 -10 q 106 50 157 -10 q 31 198 56 110 q 6 369 6 286 q 39 535 6 461 q 131 653 72 610 q 260 697 189 696 q 340 690 303 697 q 388 674 378 683 q 385 692 388 681 q 386 708 382 703 q 406 711 389 711 q 472 708 431 711 q 524 703 513 704 l 611 699 l 629 699 m 218 342 q 246 240 218 281 q 321 199 274 199 q 365 215 351 199 q 383 260 379 232 q 386 343 386 288 l 386 379 q 384 460 386 439 q 372 490 382 482 q 335 497 361 497 q 263 473 290 497 q 226 414 235 449 q 218 342 218 386 z "},"â":{"ha":661,"x_min":6,"x_max":635,"o":"m 583 828 q 542 810 568 813 q 469 807 517 807 q 415 810 432 807 q 386 822 399 811 q 364 845 374 832 q 350 864 354 858 q 326 840 346 860 q 288 811 307 821 q 231 807 260 807 q 178 811 203 807 l 104 817 q 176 901 139 863 q 275 994 214 939 l 353 1068 l 583 828 m 629 699 q 631 675 629 692 q 633 644 633 658 q 632 536 632 608 q 633 390 632 439 l 633 307 l 635 224 q 631 56 635 142 l 631 42 q 625 8 631 19 q 596 -8 619 -4 l 419 -8 q 388 29 388 1 l 388 39 q 311 3 353 17 q 231 -10 269 -10 q 106 50 157 -10 q 31 198 56 110 q 6 369 6 286 q 39 535 6 461 q 131 653 72 610 q 260 697 189 696 q 340 690 303 697 q 388 674 378 683 q 385 692 388 681 q 386 708 382 703 q 406 711 389 711 q 472 708 431 711 q 524 703 513 704 l 611 699 l 629 699 m 218 342 q 246 240 218 281 q 321 199 274 199 q 365 215 351 199 q 383 260 379 232 q 386 343 386 288 l 386 379 q 384 460 386 439 q 372 490 382 482 q 335 497 361 497 q 263 473 290 497 q 226 414 235 449 q 218 342 218 386 z "},"ä":{"ha":661,"x_min":6,"x_max":635,"o":"m 369 1058 q 371 996 369 1021 q 374 875 374 918 q 300 853 357 853 q 247 856 283 853 q 200 857 233 857 q 144 856 164 857 q 142 932 144 885 l 140 954 q 139 1063 138 1015 l 369 1058 m 625 1058 q 626 996 625 1021 q 629 875 629 918 q 556 853 613 853 q 503 856 539 853 q 456 857 489 857 q 400 856 419 857 q 397 932 400 885 l 396 954 q 394 1063 393 1015 l 625 1058 m 629 699 q 631 675 629 692 q 633 644 633 658 q 632 536 632 608 q 633 390 632 439 l 633 307 l 635 224 q 631 56 635 142 l 631 42 q 625 8 631 19 q 596 -8 619 -4 l 419 -8 q 388 29 388 1 l 388 39 q 311 3 353 17 q 231 -10 269 -10 q 106 50 157 -10 q 31 198 56 110 q 6 369 6 286 q 39 535 6 461 q 131 653 72 610 q 260 697 189 696 q 340 690 303 697 q 388 674 378 683 q 385 692 388 681 q 386 708 382 703 q 406 711 389 711 q 472 708 431 711 q 524 703 513 704 l 611 699 l 629 699 m 218 342 q 246 240 218 281 q 321 199 274 199 q 365 215 351 199 q 383 260 379 232 q 386 343 386 288 l 386 379 q 384 460 386 439 q 372 490 382 482 q 335 497 361 497 q 263 473 290 497 q 226 414 235 449 q 218 342 218 386 z "},"à":{"ha":661,"x_min":6,"x_max":635,"o":"m 251 1065 q 333 993 289 1036 q 415 911 378 950 l 415 913 l 443 885 l 471 856 q 508 818 508 818 q 447 809 488 813 q 367 806 406 806 q 283 810 313 806 q 199 894 268 832 l 189 903 l 190 903 q 138 950 158 929 l 251 1065 m 629 699 q 631 675 629 692 q 633 644 633 658 q 632 536 632 608 q 633 390 632 439 l 633 307 l 635 224 q 631 56 635 142 l 631 42 q 625 8 631 19 q 596 -8 619 -4 l 419 -8 q 388 29 388 1 l 388 39 q 311 3 353 17 q 231 -10 269 -10 q 106 50 157 -10 q 31 198 56 110 q 6 369 6 286 q 39 535 6 461 q 131 653 72 610 q 260 697 189 696 q 340 690 303 697 q 388 674 378 683 q 385 692 388 681 q 386 708 382 703 q 406 711 389 711 q 472 708 431 711 q 524 703 513 704 l 611 699 l 629 699 m 218 342 q 246 240 218 281 q 321 199 274 199 q 365 215 351 199 q 383 260 379 232 q 386 343 386 288 l 386 379 q 384 460 386 439 q 372 490 382 482 q 335 497 361 497 q 263 473 290 497 q 226 414 235 449 q 218 342 218 386 z "},"å":{"ha":661,"x_min":6,"x_max":635,"o":"m 292 783 q 242 800 265 786 q 208 833 218 814 q 200 919 200 883 q 208 990 200 957 l 225 1017 q 339 1051 264 1051 q 423 1039 381 1051 q 485 1000 465 1026 q 494 928 494 961 q 472 818 494 868 l 471 821 q 375 785 451 788 q 333 782 363 782 q 292 783 304 782 m 306 939 q 304 919 304 932 q 313 868 304 876 l 311 868 q 332 857 325 857 l 353 857 q 373 861 365 858 q 385 874 381 864 l 385 872 q 392 925 392 897 q 390 949 392 936 q 386 964 388 963 l 388 958 q 349 976 369 976 q 319 969 338 976 q 307 944 314 964 l 307 947 l 306 939 m 635 224 q 631 56 635 142 l 631 42 q 625 8 631 19 q 596 -8 619 -4 l 419 -8 q 388 29 388 1 l 388 39 q 311 3 353 17 q 231 -10 269 -10 q 106 50 157 -10 q 31 198 56 110 q 6 369 6 286 q 39 535 6 461 q 131 653 72 610 q 260 697 189 696 q 340 690 303 697 q 388 674 378 683 q 385 692 388 681 q 386 708 382 703 q 406 711 389 711 q 472 708 431 711 q 524 703 513 704 l 611 699 l 629 699 q 631 675 629 692 q 633 644 633 658 q 632 536 632 608 q 633 390 632 439 l 633 307 l 635 224 m 386 379 q 384 460 386 439 q 372 490 382 482 q 335 497 361 497 q 263 473 290 497 q 226 414 235 449 q 218 342 218 386 q 246 240 218 281 q 321 199 274 199 q 365 215 351 199 q 383 260 379 232 q 386 343 386 288 l 386 379 z "},"ã":{"ha":661,"x_min":6,"x_max":647,"o":"m 44 811 q 84 915 58 856 q 136 1003 110 974 q 194 1040 160 1026 q 265 1054 229 1054 q 350 1031 314 1054 q 373 1010 363 1022 q 386 996 383 999 q 419 963 407 972 q 435 957 426 957 q 467 983 451 957 q 493 1038 483 1010 q 613 1042 531 1042 l 646 1043 q 647 1015 647 1033 q 607 881 647 943 q 500 804 567 818 q 469 801 481 801 q 388 820 425 801 q 336 875 351 839 q 296 903 321 903 q 262 885 276 903 q 247 842 247 867 q 254 811 247 824 q 136 814 163 814 l 44 811 m 629 699 q 631 675 629 692 q 633 644 633 658 q 632 536 632 608 q 633 390 632 439 l 633 307 l 635 224 q 631 56 635 142 l 631 42 q 625 8 631 19 q 596 -8 619 -4 l 419 -8 q 388 29 388 1 l 388 39 q 311 3 353 17 q 231 -10 269 -10 q 106 50 157 -10 q 31 198 56 110 q 6 369 6 286 q 39 535 6 461 q 131 653 72 610 q 260 697 189 696 q 340 690 303 697 q 388 674 378 683 q 385 692 388 681 q 386 708 382 703 q 406 711 389 711 q 472 708 431 711 q 524 703 513 704 l 611 699 l 629 699 m 218 342 q 246 240 218 281 q 321 199 274 199 q 365 215 351 199 q 383 260 379 232 q 386 343 386 288 l 386 379 q 384 460 386 439 q 372 490 382 482 q 335 497 361 497 q 263 473 290 497 q 226 414 235 449 q 218 342 218 386 z "},"æ":{"ha":976,"x_min":-8,"x_max":972,"o":"m 618 308 q 622 247 619 265 q 635 213 625 229 q 668 175 649 189 q 706 161 688 161 q 747 190 731 161 q 761 278 764 219 q 843 275 800 272 l 872 275 l 901 276 q 968 268 938 276 q 965 238 965 249 q 952 119 960 164 q 926 56 944 74 q 739 -7 879 -7 q 667 -4 714 -7 q 604 -3 646 -3 q 535 21 568 3 q 479 63 501 39 l 422 24 q 261 -18 351 -18 q 128 9 190 -18 q 29 85 67 36 q -8 196 -8 133 q 33 328 -8 258 q 118 390 60 368 q 247 411 176 411 q 367 393 310 411 q 366 431 367 406 q 363 492 365 457 q 341 532 357 518 q 304 546 325 546 q 258 524 278 546 q 238 467 238 501 q 113 456 185 456 q 24 474 58 456 q 22 494 22 481 q 65 600 22 557 q 174 665 107 643 q 314 686 240 686 q 415 675 368 686 q 492 643 463 664 q 685 699 565 699 q 778 688 731 699 q 925 591 878 665 q 972 417 972 517 q 969 354 972 399 q 845 340 944 346 q 618 335 746 335 l 618 308 m 711 554 q 647 533 667 554 q 622 475 628 513 q 621 463 621 469 q 628 454 621 456 q 665 454 636 453 l 725 454 q 788 451 763 454 q 787 453 788 451 q 786 456 786 454 q 776 510 786 488 q 749 542 767 533 q 711 554 721 554 m 278 138 q 339 160 319 138 q 358 213 358 182 q 353 247 358 231 q 340 271 347 263 q 268 292 294 292 q 203 263 236 292 l 204 263 q 189 237 196 254 q 182 201 182 219 q 195 162 182 178 q 238 142 208 146 l 236 142 q 278 138 264 138 z "},"b":{"ha":644,"x_min":26,"x_max":636,"o":"m 253 961 q 256 887 254 950 q 258 771 258 824 l 257 689 q 378 704 310 704 q 510 685 457 704 q 604 580 572 660 q 636 396 636 500 q 614 201 632 281 q 542 64 596 121 q 383 -3 488 7 l 385 -3 q 364 -4 378 -4 q 258 47 297 -4 l 258 13 q 251 -3 258 4 q 165 -8 214 -8 l 67 -6 l 28 -6 q 26 169 26 49 q 31 503 26 331 q 36 886 36 736 l 36 981 q 138 990 82 990 q 217 985 181 990 q 253 976 253 981 l 253 961 m 426 436 q 391 506 419 482 q 315 529 363 529 q 271 519 283 529 q 255 481 258 510 q 251 376 251 451 q 265 228 251 275 q 331 182 279 182 q 407 234 378 182 q 436 357 436 286 q 428 435 436 413 l 435 431 l 426 436 z "},"c":{"ha":614,"x_min":11,"x_max":608,"o":"m 606 274 q 590 122 599 179 q 563 44 581 65 q 483 -10 535 6 q 361 -25 431 -25 q 288 -22 335 -25 q 219 -19 243 -19 q 90 43 143 -6 q 31 147 47 85 q 15 288 15 210 l 15 331 q 11 447 15 413 q 19 550 11 504 q 36 615 22 578 l 44 633 q 43 633 43 632 q 128 697 63 675 q 274 718 193 718 q 324 717 281 717 q 358 718 332 718 q 382 717 375 718 q 546 657 492 707 q 592 577 581 629 q 607 435 604 525 l 607 419 l 608 399 q 536 390 565 390 q 422 400 503 390 l 392 404 q 364 469 385 444 q 311 493 343 493 q 289 490 303 493 l 290 490 q 260 471 271 483 q 244 438 249 460 q 239 336 239 399 l 238 289 q 236 251 236 274 q 258 203 236 219 q 311 188 279 188 q 363 201 338 188 q 377 233 369 210 q 389 279 385 256 q 475 276 431 274 l 506 276 l 536 278 q 589 274 571 278 l 606 274 z "},"ç":{"ha":615,"x_min":13,"x_max":608,"o":"m 390 -78 l 382 -101 l 346 -212 l 221 -212 q 180 -214 200 -212 q 149 -221 160 -215 q 193 -93 181 -136 q 207 -54 201 -64 q 214 -34 211 -44 q 219 -19 217 -24 q 90 43 143 -6 q 31 147 47 85 q 15 288 15 210 l 15 331 l 14 393 q 13 453 13 413 q 43 633 13 563 q 128 697 63 675 q 274 718 193 718 q 324 717 281 717 q 358 718 332 718 q 382 717 375 718 q 546 657 492 707 q 592 577 581 629 q 607 435 604 525 l 607 419 l 608 399 q 536 390 565 390 q 422 400 503 390 l 392 404 q 364 469 385 444 q 311 493 343 493 q 289 490 303 493 l 290 490 q 260 471 271 483 q 244 438 249 460 q 239 336 239 399 l 238 289 q 236 251 236 274 q 258 203 236 219 q 311 188 279 188 q 363 201 338 188 q 377 233 369 210 q 389 279 385 256 q 475 276 431 274 l 506 276 l 536 278 q 606 269 568 278 q 603 229 603 242 q 589 116 596 154 q 561 43 582 78 q 503 -5 539 10 q 408 -24 467 -19 l 390 -78 z "},"d":{"ha":643,"x_min":8,"x_max":618,"o":"m 392 976 q 428 985 392 981 q 507 990 464 990 q 608 981 563 990 l 608 886 q 614 501 608 754 q 618 169 618 346 q 617 -6 618 49 l 578 -6 l 542 -7 q 393 -3 488 -7 q 386 13 386 4 l 385 44 l 382 40 q 340 6 363 17 q 289 -4 318 -4 q 260 -3 269 -4 l 261 -3 q 103 64 158 7 q 30 203 49 121 q 8 396 11 285 q 40 580 8 500 q 135 685 72 660 q 267 704 188 704 q 388 692 343 704 l 386 740 q 385 829 385 775 q 392 961 385 857 l 392 976 m 217 435 q 208 357 208 413 q 238 234 208 286 q 314 182 267 182 q 379 228 365 182 q 393 376 393 275 q 390 481 393 451 q 374 519 386 510 q 329 529 361 529 q 253 504 282 529 q 217 431 224 479 l 217 435 z "},"ð":{"ha":738,"x_min":4,"x_max":728,"o":"m 383 1093 q 411 1114 404 1108 q 449 1141 417 1118 q 546 1203 481 1164 q 603 1143 578 1157 l 607 1142 q 681 1088 656 1117 q 610 1044 678 1086 l 550 1007 q 597 956 574 985 q 635 901 621 926 q 685 753 669 835 q 717 540 701 671 q 728 364 728 444 q 438 -36 728 6 q 367 -40 407 -40 q 202 -11 279 -40 q 73 75 125 18 q 8 214 21 132 q 4 321 4 243 q 56 536 4 460 q 233 628 107 613 q 307 632 272 632 q 439 613 383 632 q 436 655 438 625 q 428 715 435 685 q 356 868 406 819 q 132 719 179 749 q 113 749 126 735 q 76 778 99 763 q 47 803 61 790 q 25 831 32 817 q 33 838 26 832 q 50 853 39 844 l 182 949 q 142 964 160 953 q 111 982 124 975 l 46 1015 l 21 1028 q 69 1071 19 1029 q 167 1145 118 1113 q 229 1172 215 1178 q 307 1132 260 1160 q 383 1093 346 1107 m 228 269 q 291 204 244 226 q 385 185 338 182 q 458 214 432 190 q 483 278 483 238 q 482 297 483 290 q 416 390 475 358 q 296 424 357 422 q 241 387 260 415 q 222 318 222 358 q 225 290 222 310 l 228 269 z "},"e":{"ha":617,"x_min":7,"x_max":613,"o":"m 238 308 q 242 241 239 263 q 261 196 246 219 q 290 164 272 175 q 328 153 308 153 q 375 184 357 153 q 390 276 393 215 q 476 274 431 271 l 607 267 q 598 140 607 204 q 564 43 589 76 q 484 -10 536 4 q 363 -25 432 -25 q 289 -22 336 -25 q 224 -21 267 -21 q 138 10 181 -15 q 39 160 71 63 q 7 371 7 257 q 40 590 7 490 q 143 688 68 653 q 310 722 218 722 q 407 711 360 722 q 563 610 514 690 q 613 419 613 531 q 610 357 613 401 q 489 344 583 350 q 313 338 394 338 l 238 338 l 238 308 m 374 558 q 336 571 353 571 q 267 549 288 571 q 242 486 246 526 q 240 474 240 481 q 249 464 240 465 q 290 464 257 463 l 351 464 l 393 463 l 411 463 q 417 463 415 461 q 418 468 418 464 l 418 474 q 408 525 418 503 q 379 557 397 547 l 374 558 z "},"é":{"ha":617,"x_min":7,"x_max":613,"o":"m 499 906 q 406 810 421 840 q 319 806 376 806 q 240 810 281 806 q 178 819 199 814 q 271 911 211 847 q 433 1065 374 1017 l 546 947 l 499 906 m 238 308 q 242 241 239 263 q 261 196 246 219 q 290 164 272 175 q 328 153 308 153 q 375 184 357 153 q 390 276 393 215 q 476 274 431 271 l 607 267 q 598 140 607 204 q 564 43 589 76 q 484 -10 536 4 q 363 -25 432 -25 q 289 -22 336 -25 q 224 -21 267 -21 q 138 10 181 -15 q 39 160 71 63 q 7 371 7 257 q 40 590 7 490 q 143 688 68 653 q 310 722 218 722 q 407 711 360 722 q 563 610 514 690 q 613 419 613 531 q 610 357 613 401 q 489 344 583 350 q 313 338 394 338 l 238 338 l 238 308 m 374 558 q 336 571 353 571 q 267 549 288 571 q 242 486 246 526 q 240 474 240 481 q 249 464 240 465 q 290 464 257 463 l 351 464 l 393 463 l 411 463 q 417 463 415 461 q 418 468 418 464 l 418 474 q 408 525 418 503 q 379 557 397 547 l 374 558 z "},"ê":{"ha":617,"x_min":7,"x_max":613,"o":"m 557 828 q 516 810 542 813 q 443 807 490 807 q 389 810 406 807 q 360 822 372 811 q 338 845 347 832 q 324 864 328 858 q 300 840 319 860 q 261 811 281 821 q 204 807 233 807 q 151 811 176 807 l 78 817 q 150 901 113 863 q 249 994 188 939 l 326 1068 l 557 828 m 238 308 q 242 241 239 263 q 261 196 246 219 q 290 164 272 175 q 328 153 308 153 q 375 184 357 153 q 390 276 393 215 q 476 274 431 271 l 607 267 q 598 140 607 204 q 564 43 589 76 q 484 -10 536 4 q 363 -25 432 -25 q 289 -22 336 -25 q 224 -21 267 -21 q 138 10 181 -15 q 39 160 71 63 q 7 371 7 257 q 40 590 7 490 q 143 688 68 653 q 310 722 218 722 q 407 711 360 722 q 563 610 514 690 q 613 419 613 531 q 610 357 613 401 q 489 344 583 350 q 313 338 394 338 l 238 338 l 238 308 m 374 558 q 336 571 353 571 q 267 549 288 571 q 242 486 246 526 q 240 474 240 481 q 249 464 240 465 q 290 464 257 463 l 351 464 l 393 463 l 411 463 q 417 463 415 461 q 418 468 418 464 l 418 474 q 408 525 418 503 q 379 557 397 547 l 374 558 z "},"ë":{"ha":617,"x_min":7,"x_max":613,"o":"m 296 1058 q 297 996 296 1021 q 300 875 300 918 q 226 853 283 853 q 174 856 210 853 q 126 857 160 857 q 71 856 90 857 q 68 932 71 885 l 67 954 q 65 1063 64 1015 l 296 1058 m 551 1058 q 553 996 551 1021 q 556 875 556 918 q 482 853 539 853 q 429 856 465 853 q 382 857 415 857 q 326 856 346 857 q 324 932 326 885 l 322 954 q 321 1063 319 1015 l 551 1058 m 238 308 q 242 241 239 263 q 261 196 246 219 q 290 164 272 175 q 328 153 308 153 q 375 184 357 153 q 390 276 393 215 q 476 274 431 271 l 607 267 q 598 140 607 204 q 564 43 589 76 q 484 -10 536 4 q 363 -25 432 -25 q 289 -22 336 -25 q 224 -21 267 -21 q 138 10 181 -15 q 39 160 71 63 q 7 371 7 257 q 40 590 7 490 q 143 688 68 653 q 310 722 218 722 q 407 711 360 722 q 563 610 514 690 q 613 419 613 531 q 610 357 613 401 q 489 344 583 350 q 313 338 394 338 l 238 338 l 238 308 m 374 558 q 336 571 353 571 q 267 549 288 571 q 242 486 246 526 q 240 474 240 481 q 249 464 240 465 q 290 464 257 463 l 351 464 l 393 463 l 411 463 q 417 463 415 461 q 418 468 418 464 l 418 474 q 408 525 418 503 q 379 557 397 547 l 374 558 z "},"è":{"ha":617,"x_min":7,"x_max":613,"o":"m 221 1065 q 303 993 258 1036 q 385 911 347 950 l 385 913 l 413 885 l 440 856 q 478 818 478 818 q 416 809 457 813 q 336 806 375 806 q 253 810 282 806 q 168 894 238 832 l 158 903 l 160 903 q 107 950 128 929 l 221 1065 m 238 308 q 242 241 239 263 q 261 196 246 219 q 290 164 272 175 q 328 153 308 153 q 375 184 357 153 q 390 276 393 215 q 476 274 431 271 l 607 267 q 598 140 607 204 q 564 43 589 76 q 484 -10 536 4 q 363 -25 432 -25 q 289 -22 336 -25 q 224 -21 267 -21 q 138 10 181 -15 q 39 160 71 63 q 7 371 7 257 q 40 590 7 490 q 143 688 68 653 q 310 722 218 722 q 407 711 360 722 q 563 610 514 690 q 613 419 613 531 q 610 357 613 401 q 489 344 583 350 q 313 338 394 338 l 238 338 l 238 308 m 374 558 q 336 571 353 571 q 267 549 288 571 q 242 486 246 526 q 240 474 240 481 q 249 464 240 465 q 290 464 257 463 l 351 464 l 393 463 l 411 463 q 417 463 415 461 q 418 468 418 464 l 418 474 q 408 525 418 503 q 379 557 397 547 l 374 558 z "},"f":{"ha":526,"x_min":-6,"x_max":550,"o":"m 313 -4 q 258 0 279 0 q 213 -3 240 0 l 206 -4 q 153 -7 175 -7 q 101 -4 132 -7 q 94 189 94 38 l 96 304 l 96 401 l 97 464 l 97 486 q -1 485 28 486 l -6 668 l 40 668 q 65 669 51 668 q 94 668 78 669 q 130 825 90 746 q 251 936 169 904 q 463 964 333 964 q 538 961 501 964 q 550 881 550 925 q 542 776 550 835 l 540 760 q 508 761 531 761 q 383 750 461 761 l 363 747 l 364 747 q 349 744 356 744 l 350 744 q 322 694 322 739 q 325 664 322 686 l 540 664 q 538 622 538 644 l 538 593 q 532 494 538 544 l 531 488 l 531 475 l 460 479 l 449 481 q 321 488 379 486 l 321 3 l 313 -4 z "},"g":{"ha":649,"x_min":10,"x_max":622,"o":"m 617 700 q 622 315 622 539 q 615 -60 622 100 l 615 -100 q 613 -147 615 -129 q 599 -185 610 -165 q 522 -260 564 -239 q 432 -285 481 -281 q 394 -287 418 -287 l 361 -286 l 328 -286 l 285 -285 q 157 -254 215 -285 q 61 -169 99 -224 q 46 -126 51 -153 q 40 -75 40 -99 q 42 -57 40 -62 q 138 -42 78 -42 q 261 -53 176 -42 q 280 -110 261 -89 q 324 -132 299 -132 q 360 -114 342 -132 q 385 -68 378 -96 l 385 -64 l 386 -56 q 388 -17 388 -50 q 386 4 386 -11 q 285 -8 354 -6 q 253 -10 264 -8 q 128 11 183 -10 q 50 82 74 32 l 51 82 q 23 160 32 121 q 10 247 14 199 q 23 458 10 369 q 92 617 36 547 q 261 697 147 688 q 385 667 344 697 q 392 697 385 688 q 490 703 440 703 l 514 701 l 538 701 l 574 700 l 617 700 m 367 171 q 383 195 378 175 q 393 250 389 215 q 376 471 393 399 l 376 469 q 352 502 368 492 q 317 513 336 513 q 288 506 303 513 q 263 490 272 500 l 263 492 q 211 382 221 446 q 208 340 208 368 l 208 317 q 246 200 208 246 q 325 164 275 164 q 367 171 347 164 z "},"h":{"ha":622,"x_min":26,"x_max":599,"o":"m 253 644 q 253 645 254 644 q 254 646 253 646 q 331 681 288 668 q 418 694 375 694 q 560 650 510 694 q 599 421 599 615 q 596 247 599 364 q 593 104 593 147 q 596 -1 593 57 q 446 -10 519 -12 l 381 -10 q 378 151 378 32 l 378 221 l 376 319 q 375 347 375 328 q 367 411 374 389 q 356 439 361 433 q 342 453 351 444 q 310 460 331 460 q 265 442 285 460 q 244 382 246 424 q 243 318 243 361 q 246 217 243 283 q 249 113 249 147 q 243 1 249 50 q 183 -10 206 -8 q 132 -11 160 -12 q 92 -10 119 -10 q 29 -12 60 -10 l 29 99 l 28 260 q 26 661 26 371 q 29 1014 26 926 q 99 1008 74 1008 q 144 1011 122 1008 l 168 1014 q 217 1018 214 1018 q 251 1006 250 1018 q 254 853 254 967 l 253 726 l 253 644 z "},"i":{"ha":288,"x_min":24,"x_max":265,"o":"m 258 1004 q 260 942 258 967 q 263 892 260 928 l 265 803 q 243 794 258 794 q 217 797 233 794 q 189 799 200 799 q 136 801 172 799 q 89 803 122 803 q 33 801 53 803 q 31 878 33 831 l 29 900 q 28 1008 26 961 l 258 1004 m 264 699 q 261 488 264 626 l 260 410 q 257 218 257 282 q 263 8 257 99 q 234 -5 256 -1 q 175 -8 213 -8 q 115 -7 132 -8 q 24 -15 61 -4 q 31 172 31 78 q 28 344 31 231 q 25 508 25 439 q 33 707 25 611 q 67 710 53 710 q 86 708 79 710 q 221 706 172 704 l 264 699 z "},"í":{"ha":288,"x_min":15,"x_max":383,"o":"m 336 906 q 243 810 258 840 q 157 806 214 806 q 77 810 118 806 q 15 819 36 814 q 108 911 49 847 q 271 1065 211 1017 l 383 947 l 336 906 m 264 699 q 261 488 264 626 l 260 410 q 257 218 257 282 q 263 8 257 99 q 234 -5 256 -1 q 175 -8 213 -8 q 115 -7 132 -8 q 24 -15 61 -4 q 31 172 31 78 q 28 344 31 231 q 25 508 25 439 q 33 707 25 611 q 67 710 53 710 q 86 708 79 710 q 221 706 172 704 l 264 699 z "},"î":{"ha":288,"x_min":-100,"x_max":379,"o":"m 379 828 q 338 810 364 813 q 265 807 313 807 q 211 810 228 807 q 182 822 194 811 q 160 845 169 832 q 146 864 150 858 q 122 840 142 860 q 83 811 103 821 q 26 807 57 807 q -26 811 -1 807 l -100 817 q -28 901 -65 863 q 71 994 10 939 l 149 1068 l 379 828 m 264 699 q 261 488 264 626 l 260 410 q 257 218 257 282 q 263 8 257 99 q 234 -5 256 -1 q 175 -8 213 -8 q 115 -7 132 -8 q 24 -15 61 -4 q 31 172 31 78 q 28 344 31 231 q 25 508 25 439 q 33 707 25 611 q 67 710 53 710 q 86 708 79 710 q 221 706 172 704 l 264 699 z "},"ï":{"ha":288,"x_min":-99,"x_max":393,"o":"m 133 1058 q 135 996 133 1021 q 138 875 138 918 q 64 853 121 853 q 11 856 47 853 q -36 857 -3 857 q -92 856 -72 857 q -94 932 -92 885 l -96 954 q -97 1063 -99 1015 l 133 1058 m 389 1058 q 390 996 389 1021 q 393 875 393 918 q 319 853 376 853 q 267 856 303 853 q 219 857 253 857 q 164 856 183 857 q 161 932 164 885 l 160 954 q 158 1063 157 1015 l 389 1058 m 264 699 q 261 488 264 626 l 260 410 q 257 218 257 282 q 263 8 257 99 q 234 -5 256 -1 q 175 -8 213 -8 q 115 -7 132 -8 q 24 -15 61 -4 q 31 172 31 78 q 28 344 31 231 q 25 508 25 439 q 33 707 25 611 q 67 710 53 710 q 86 708 79 710 q 221 706 172 704 l 264 699 z "},"ì":{"ha":288,"x_min":-99,"x_max":272,"o":"m 15 1065 q 97 993 53 1036 q 179 911 142 950 l 179 913 l 207 885 l 235 856 q 272 818 272 818 q 210 809 251 813 q 131 806 169 806 q 47 810 76 806 q -37 894 32 832 l -47 903 l -46 903 q -99 950 -78 929 l 15 1065 m 264 699 q 261 488 264 626 l 260 410 q 257 218 257 282 q 263 8 257 99 q 234 -5 256 -1 q 175 -8 213 -8 q 115 -7 132 -8 q 24 -15 61 -4 q 31 172 31 78 q 28 344 31 231 q 25 508 25 439 q 33 707 25 611 q 67 710 53 710 q 86 708 79 710 q 221 706 172 704 l 264 699 z "},"ĳ":{"ha":694,"x_min":24,"x_max":668,"o":"m 258 1004 q 260 942 258 967 q 263 821 263 864 q 189 799 246 799 q 136 801 172 799 q 89 803 122 803 q 33 801 53 803 q 31 878 33 831 l 29 900 q 28 1008 26 961 l 258 1004 m 661 1004 q 663 942 661 967 q 665 821 665 864 q 594 799 649 799 q 540 801 574 799 q 493 803 528 803 q 440 801 457 803 q 438 878 440 831 l 436 900 q 435 1008 433 961 l 661 1004 m 264 699 q 261 488 264 626 l 260 410 q 257 218 257 282 q 263 8 257 99 q 234 -5 256 -1 q 175 -8 213 -8 q 115 -7 132 -8 q 24 -15 61 -4 q 31 172 31 78 q 28 344 31 231 q 25 508 25 439 q 33 707 25 611 q 50 708 36 707 q 93 710 64 710 q 221 706 133 710 l 264 699 m 443 700 q 493 696 465 696 q 542 699 511 696 l 558 700 q 611 703 592 703 q 664 700 633 703 q 668 594 668 658 l 667 547 l 667 501 q 665 414 665 469 q 667 367 665 379 l 667 172 q 647 -136 667 -17 q 522 -238 617 -208 q 300 -268 426 -268 q 226 -265 263 -268 q 214 -185 214 -229 q 222 -81 214 -139 l 222 -76 l 224 -64 l 253 -65 q 365 -53 311 -65 q 438 -14 418 -40 q 439 213 439 54 q 443 504 439 422 l 443 700 z "},"j":{"ha":283,"x_min":-197,"x_max":257,"o":"m 250 1004 q 251 942 250 967 q 254 821 254 864 q 183 799 238 799 q 129 801 163 799 q 82 803 117 803 q 29 801 46 803 q 26 878 29 831 l 25 900 q 24 1008 22 961 l 250 1004 m 32 700 q 82 696 54 696 q 131 699 100 696 l 147 700 q 200 703 181 703 q 253 700 222 703 q 257 594 257 658 l 256 547 l 256 501 q 254 414 254 469 q 256 367 254 379 l 256 172 q 236 -136 256 -17 q 110 -238 206 -208 q -111 -268 15 -268 q -185 -265 -149 -268 q -197 -185 -197 -229 q -189 -81 -197 -139 l -189 -76 l -187 -64 l -158 -65 q -47 -53 -100 -65 q 26 -14 7 -40 q 28 213 28 54 q 32 504 28 422 l 32 700 z "},"k":{"ha":604,"x_min":26,"x_max":638,"o":"m 449 318 q 638 -7 567 135 l 554 -10 q 467 -12 499 -12 q 375 -6 404 -12 q 331 76 367 8 l 313 111 q 297 140 297 138 l 264 206 l 264 168 l 265 124 q 256 -8 265 40 q 163 -7 239 -7 q 93 -10 121 -10 q 32 -4 65 -10 q 26 322 26 140 q 29 640 26 429 q 32 1015 32 854 q 111 1017 89 1015 l 146 1017 l 182 1018 l 229 1015 l 263 1014 l 263 672 l 261 639 q 260 575 260 617 l 258 558 q 281 589 274 575 q 292 611 288 603 q 298 623 294 615 q 306 638 301 631 l 306 636 q 374 735 342 697 q 454 721 414 721 q 524 724 476 721 l 531 724 q 581 725 544 725 q 626 724 610 725 q 540 599 590 668 q 478 517 489 531 q 460 494 476 515 l 442 471 l 392 406 q 406 383 399 393 q 419 364 414 372 q 449 318 433 339 z "},"l":{"ha":286,"x_min":22,"x_max":264,"o":"m 261 765 l 261 725 l 260 589 q 257 286 257 386 q 263 8 257 99 q 234 -5 256 -1 q 175 -8 213 -8 q 115 -7 132 -8 q 24 -15 61 -4 q 33 232 33 118 q 28 482 33 315 q 22 754 22 663 q 35 1017 22 893 l 264 1013 l 261 765 z "},"m":{"ha":950,"x_min":26,"x_max":926,"o":"m 254 644 q 255 645 256 644 q 256 646 254 646 q 333 681 289 668 q 419 694 376 694 q 561 650 511 694 q 569 640 561 649 q 569 640 571 640 q 569 638 568 639 l 582 646 q 658 681 615 668 q 746 694 701 694 q 888 650 838 694 q 926 421 926 615 q 924 247 926 364 q 921 104 921 147 q 924 -1 921 57 q 774 -10 847 -12 l 708 -10 q 706 151 706 32 l 706 221 q 701 338 706 299 q 682 435 694 410 q 639 460 669 460 q 615 449 625 460 q 600 407 606 439 q 597 226 600 349 q 594 94 594 135 q 597 -1 594 51 q 447 -10 521 -12 l 382 -10 q 379 151 379 32 l 379 221 q 376 319 379 289 q 376 324 376 321 q 375 338 375 328 q 366 413 372 383 q 343 453 360 442 q 311 460 332 460 q 267 442 286 460 q 246 382 247 424 q 244 318 244 361 q 247 217 244 283 q 250 113 250 147 q 244 1 250 50 q 184 -10 207 -8 q 133 -11 161 -12 q 93 -10 121 -10 q 31 -12 61 -10 q 29 235 31 154 q 26 508 26 415 q 29 701 26 576 q 99 696 74 696 q 144 699 122 696 l 168 701 q 215 704 199 704 q 251 694 249 704 q 254 646 254 678 l 254 644 z "},"n":{"ha":625,"x_min":28,"x_max":601,"o":"m 256 644 q 256 645 257 644 q 257 646 256 646 q 334 681 290 668 q 421 694 378 694 q 563 650 513 694 q 601 421 601 615 q 599 247 601 364 q 596 104 596 147 q 599 -1 596 57 q 449 -10 522 -12 l 383 -10 q 381 151 381 32 l 381 221 q 378 319 381 289 l 376 328 l 376 338 q 370 399 374 376 q 352 440 367 421 q 307 460 338 460 q 267 440 285 460 q 247 382 249 421 q 246 318 246 361 q 249 217 246 283 q 251 113 251 147 q 246 1 251 50 q 185 -10 208 -8 q 135 -11 163 -12 q 94 -10 122 -10 q 32 -12 63 -10 q 31 235 32 154 q 28 508 28 415 q 31 701 28 576 q 100 696 75 696 q 146 699 124 696 l 169 701 q 217 704 200 704 q 253 694 250 704 q 256 646 256 678 l 256 644 z "},"ñ":{"ha":625,"x_min":14,"x_max":617,"o":"m 14 811 q 53 915 28 856 q 106 1003 79 974 q 164 1040 129 1026 q 235 1054 199 1054 q 319 1031 283 1054 q 342 1010 332 1022 q 356 996 353 999 q 389 963 376 972 q 404 957 396 957 q 437 983 421 957 q 463 1038 453 1010 q 582 1042 500 1042 l 615 1043 q 617 1015 617 1033 q 576 881 617 943 q 469 804 536 818 q 439 801 450 801 q 358 820 394 801 q 306 875 321 839 q 265 903 290 903 q 231 885 246 903 q 217 842 217 867 q 224 811 217 824 q 106 814 132 814 l 14 811 m 256 644 q 256 645 257 644 q 257 646 256 646 q 334 681 290 668 q 421 694 378 694 q 563 650 513 694 q 601 421 601 615 q 599 247 601 364 q 596 104 596 147 q 599 -1 596 57 q 449 -10 522 -12 l 383 -10 q 381 151 381 32 l 381 221 q 378 319 381 289 l 376 328 l 376 338 q 370 399 374 376 q 352 440 367 421 q 307 460 338 460 q 267 440 285 460 q 247 382 249 421 q 246 318 246 361 q 249 217 246 283 q 251 113 251 147 q 246 1 251 50 q 185 -10 208 -8 q 135 -11 163 -12 q 94 -10 122 -10 q 32 -12 63 -10 q 31 235 32 154 q 28 508 28 415 q 31 701 28 576 q 100 696 75 696 q 146 699 124 696 l 169 701 q 217 704 200 704 q 253 694 250 704 q 256 646 256 678 l 256 644 z "},"o":{"ha":622,"x_min":8,"x_max":610,"o":"m 274 721 q 324 719 281 719 q 358 721 332 721 q 382 719 375 721 q 474 701 431 717 q 544 658 518 685 q 597 558 585 626 q 610 400 610 490 l 610 354 q 596 156 606 236 q 563 47 586 75 q 483 -7 535 8 q 361 -22 431 -22 q 288 -19 335 -22 q 219 -17 243 -17 q 90 46 146 -3 q 31 151 47 88 q 14 293 14 214 l 13 451 q 22 560 8 489 q 49 640 35 631 q 128 700 64 679 q 274 721 193 721 m 244 440 q 242 402 243 426 q 240 365 240 378 l 239 338 q 236 261 239 303 q 260 211 238 231 q 310 192 282 192 q 365 204 338 192 q 386 250 374 208 l 388 257 q 396 358 396 326 q 390 418 396 392 q 363 475 383 454 q 313 496 343 496 q 290 493 307 496 q 250 463 256 482 l 244 440 z "},"ó":{"ha":622,"x_min":8,"x_max":610,"o":"m 499 906 q 406 810 421 840 q 319 806 376 806 q 240 810 281 806 q 178 819 199 814 q 271 911 211 847 q 433 1065 374 1017 l 546 947 l 499 906 m 274 721 q 324 719 281 719 q 358 721 332 721 q 382 719 375 721 q 474 701 431 717 q 544 658 518 685 q 597 558 585 626 q 610 400 610 490 l 610 354 q 596 156 606 236 q 563 47 586 75 q 483 -7 535 8 q 361 -22 431 -22 q 288 -19 335 -22 q 219 -17 243 -17 q 90 46 146 -3 q 31 151 47 88 q 14 293 14 214 l 13 451 q 22 560 8 489 q 49 640 35 631 q 128 700 64 679 q 274 721 193 721 m 244 440 q 242 402 243 426 q 240 365 240 378 l 239 338 q 236 261 239 303 q 260 211 238 231 q 310 192 282 192 q 365 204 338 192 q 386 250 374 208 l 388 257 q 396 358 396 326 q 390 418 396 392 q 363 475 383 454 q 313 496 343 496 q 290 493 307 496 q 250 463 256 482 l 244 440 z "},"ô":{"ha":622,"x_min":8,"x_max":610,"o":"m 557 828 q 516 810 542 813 q 443 807 490 807 q 389 810 406 807 q 360 822 372 811 q 338 845 347 832 q 324 864 328 858 q 300 840 319 860 q 261 811 281 821 q 204 807 233 807 q 151 811 176 807 l 78 817 q 150 901 113 863 q 249 994 188 939 l 326 1068 l 557 828 m 274 721 q 324 719 281 719 q 358 721 332 721 q 382 719 375 721 q 474 701 431 717 q 544 658 518 685 q 597 558 585 626 q 610 400 610 490 l 610 354 q 596 156 606 236 q 563 47 586 75 q 483 -7 535 8 q 361 -22 431 -22 q 288 -19 335 -22 q 219 -17 243 -17 q 90 46 146 -3 q 31 151 47 88 q 14 293 14 214 l 13 451 q 22 560 8 489 q 49 640 35 631 q 128 700 64 679 q 274 721 193 721 m 244 440 q 242 402 243 426 q 240 365 240 378 l 239 338 q 236 261 239 303 q 260 211 238 231 q 310 192 282 192 q 365 204 338 192 q 386 250 374 208 l 388 257 q 396 358 396 326 q 390 418 396 392 q 363 475 383 454 q 313 496 343 496 q 290 493 307 496 q 250 463 256 482 l 244 440 z "},"ö":{"ha":622,"x_min":8,"x_max":610,"o":"m 290 1058 q 292 996 290 1021 q 294 875 294 918 q 221 853 278 853 q 168 856 204 853 q 121 857 154 857 q 65 856 85 857 q 63 932 65 885 l 61 954 q 60 1063 58 1015 l 290 1058 m 546 1058 q 547 996 546 1021 q 550 875 550 918 q 476 853 533 853 q 424 856 460 853 q 376 857 410 857 q 321 856 340 857 q 318 932 321 885 l 317 954 q 315 1063 314 1015 l 546 1058 m 274 721 q 324 719 281 719 q 358 721 332 721 q 382 719 375 721 q 474 701 431 717 q 544 658 518 685 q 597 558 585 626 q 610 400 610 490 l 610 354 q 596 156 606 236 q 563 47 586 75 q 483 -7 535 8 q 361 -22 431 -22 q 288 -19 335 -22 q 219 -17 243 -17 q 90 46 146 -3 q 31 151 47 88 q 14 293 14 214 l 13 451 q 22 560 8 489 q 49 640 35 631 q 128 700 64 679 q 274 721 193 721 m 244 440 q 242 402 243 426 q 240 365 240 378 l 239 338 q 236 261 239 303 q 260 211 238 231 q 310 192 282 192 q 365 204 338 192 q 386 250 374 208 l 388 257 q 396 358 396 326 q 390 418 396 392 q 363 475 383 454 q 313 496 343 496 q 290 493 307 496 q 250 463 256 482 l 244 440 z "},"ò":{"ha":622,"x_min":8,"x_max":610,"o":"m 203 1065 q 285 993 240 1036 q 367 911 329 950 l 367 913 l 394 885 l 422 856 q 460 818 460 818 q 398 809 439 813 q 318 806 357 806 q 235 810 264 806 q 150 894 219 832 l 140 903 l 142 903 q 89 950 110 929 l 203 1065 m 274 721 q 324 719 281 719 q 358 721 332 721 q 382 719 375 721 q 474 701 431 717 q 544 658 518 685 q 597 558 585 626 q 610 400 610 490 l 610 354 q 596 156 606 236 q 563 47 586 75 q 483 -7 535 8 q 361 -22 431 -22 q 288 -19 335 -22 q 219 -17 243 -17 q 90 46 146 -3 q 31 151 47 88 q 14 293 14 214 l 13 451 q 22 560 8 489 q 49 640 35 631 q 128 700 64 679 q 274 721 193 721 m 244 440 q 242 402 243 426 q 240 365 240 378 l 239 338 q 236 261 239 303 q 260 211 238 231 q 310 192 282 192 q 365 204 338 192 q 386 250 374 208 l 388 257 q 396 358 396 326 q 390 418 396 392 q 363 475 383 454 q 313 496 343 496 q 290 493 307 496 q 250 463 256 482 l 244 440 z "},"ø":{"ha":488,"x_min":13,"x_max":475,"o":"m 472 378 q 469 231 472 289 q 457 113 467 172 q 399 22 443 58 q 294 -19 354 -14 q 236 -22 258 -22 l 219 -22 l 203 -24 l 188 -37 q 124 -44 163 -44 l 100 -44 l 75 -43 l 21 -43 q 23 -10 17 -35 q 39 39 29 15 q 43 54 42 44 q 13 318 13 193 q 18 444 13 358 q 21 488 21 472 q 26 542 22 519 q 42 589 29 565 l 40 589 q 79 646 54 621 q 222 689 138 689 l 243 689 q 263 688 256 689 q 296 707 263 707 q 325 704 315 704 l 381 706 q 446 692 422 706 q 440 669 446 683 l 440 671 q 426 625 425 638 q 475 469 475 565 q 472 414 475 444 l 472 378 m 144 396 q 126 224 132 318 q 125 208 125 218 q 201 476 125 176 q 144 396 167 450 m 285 253 q 258 163 281 240 q 255 153 257 157 q 250 140 253 149 q 290 170 272 151 q 317 210 308 189 q 335 356 335 281 q 331 381 335 381 q 305 322 322 381 q 285 253 288 263 z "},"õ":{"ha":622,"x_min":6,"x_max":610,"o":"m 6 811 q 45 915 19 856 q 97 1003 71 974 q 156 1040 121 1026 q 226 1054 190 1054 q 311 1031 275 1054 q 334 1010 324 1022 q 347 996 344 999 q 381 963 368 972 q 396 957 388 957 q 428 983 413 957 q 454 1038 444 1010 q 574 1042 492 1042 l 607 1043 q 608 1015 608 1033 q 568 881 608 943 q 461 804 528 818 q 431 801 442 801 q 349 820 386 801 q 297 875 313 839 q 257 903 282 903 q 223 885 238 903 q 208 842 208 867 q 215 811 208 824 q 97 814 124 814 l 6 811 m 274 721 q 324 719 281 719 q 358 721 332 721 q 382 719 375 721 q 474 701 431 717 q 544 658 518 685 q 597 558 585 626 q 610 400 610 490 l 610 354 q 596 156 606 236 q 563 47 586 75 q 483 -7 535 8 q 361 -22 431 -22 q 288 -19 335 -22 q 219 -17 243 -17 q 90 46 146 -3 q 31 151 47 88 q 14 293 14 214 l 13 451 q 22 560 8 489 q 49 640 35 631 q 128 700 64 679 q 274 721 193 721 m 244 440 q 242 402 243 426 q 240 365 240 378 l 239 338 q 236 261 239 303 q 260 211 238 231 q 310 192 282 192 q 365 204 338 192 q 386 250 374 208 l 388 257 q 396 358 396 326 q 390 418 396 392 q 363 475 383 454 q 313 496 343 496 q 290 493 307 496 q 250 463 256 482 l 244 440 z "},"œ":{"ha":976,"x_min":-3,"x_max":971,"o":"m 647 -6 q 493 75 544 11 q 389 4 456 18 q 235 -10 322 -10 l 222 -10 q 98 50 149 -10 q 22 198 47 110 q -3 369 -3 286 q 31 537 -3 463 q 122 655 64 611 q 251 700 181 699 l 299 701 q 354 704 335 704 q 444 692 406 704 q 504 644 482 679 q 609 691 550 681 q 736 700 668 701 l 786 700 q 926 603 881 685 q 971 404 971 521 q 969 354 971 369 q 843 341 943 347 q 640 335 743 335 l 597 335 l 597 306 q 602 238 599 260 q 621 193 606 217 q 650 161 632 172 q 688 150 668 150 q 735 181 717 150 q 750 274 753 213 q 836 271 790 268 l 879 271 q 927 269 906 271 q 967 264 949 268 q 958 135 967 203 q 924 40 949 68 q 853 4 906 21 q 736 -12 801 -12 q 668 -8 701 -12 l 647 -6 m 733 556 q 696 568 713 568 q 626 546 647 568 q 601 483 606 524 q 600 471 600 478 q 604 463 600 465 q 624 461 608 461 q 726 460 706 461 q 753 460 747 460 l 771 460 q 776 460 775 458 q 778 465 778 461 l 778 471 q 767 522 778 500 q 739 554 757 544 l 733 556 m 183 392 q 187 272 183 318 q 209 183 190 225 q 269 139 228 140 q 352 191 332 135 q 372 343 372 247 l 372 415 q 365 508 372 478 q 342 549 358 539 q 294 560 326 560 q 199 483 215 560 q 188 437 193 465 q 183 392 183 408 z "},"p":{"ha":644,"x_min":26,"x_max":636,"o":"m 36 -192 q 31 192 36 -61 q 26 525 26 350 q 28 700 26 646 l 67 700 l 103 701 l 257 699 q 258 668 258 697 q 331 701 285 701 q 383 697 354 701 q 542 631 488 688 q 614 494 596 574 q 636 299 632 414 q 604 115 636 194 q 510 10 572 35 q 378 -10 457 -10 q 257 3 301 -10 l 258 -46 q 260 -112 260 -71 q 257 -207 260 -137 q 253 -282 254 -233 q 207 -292 244 -287 q 126 -296 169 -296 q 36 -287 65 -296 l 36 -192 m 436 338 q 407 460 436 408 q 331 513 378 513 q 265 466 279 513 q 251 318 251 419 q 255 214 251 243 q 271 175 258 185 q 315 165 283 165 q 392 190 363 165 q 428 260 421 214 q 434 304 432 288 q 436 338 436 321 z "},"þ":{"ha":653,"x_min":21,"x_max":647,"o":"m 265 -132 q 269 -229 265 -181 q 238 -244 261 -240 q 179 -247 215 -247 q 115 -246 135 -247 q 21 -254 58 -243 q 28 401 28 -61 q 36 1015 28 844 l 267 1011 q 265 722 267 842 l 265 701 q 265 690 265 694 q 264 676 264 685 q 315 694 286 690 q 393 697 344 697 q 522 653 464 696 q 614 535 581 610 q 647 369 647 461 q 622 198 647 286 q 547 50 597 110 q 422 -10 496 -10 q 342 3 385 -10 q 265 39 300 17 l 265 -132 m 318 497 q 281 490 292 497 q 269 460 271 482 q 267 379 267 439 l 267 343 q 270 260 267 288 q 288 215 274 232 q 332 199 301 199 q 407 240 379 199 q 435 342 435 281 q 426 414 435 386 q 390 473 418 449 q 318 497 363 497 z "},"q":{"ha":643,"x_min":8,"x_max":618,"o":"m 392 -267 q 386 -135 386 -219 l 386 -76 l 388 4 q 267 -10 339 -10 q 135 10 188 -10 q 40 115 72 35 q 8 299 8 194 q 30 492 11 410 q 103 631 49 574 q 260 697 158 688 q 281 699 267 699 q 386 661 339 699 l 386 682 q 393 697 386 690 q 479 703 440 703 q 578 700 494 703 l 617 700 q 618 525 618 646 q 614 192 618 365 q 608 -192 608 -42 l 608 -287 q 507 -296 565 -296 q 428 -291 464 -296 q 392 -282 392 -286 l 392 -267 m 329 165 q 374 175 361 165 q 390 214 386 185 q 393 318 393 243 q 379 466 393 419 q 314 513 365 513 q 238 460 267 513 q 208 338 208 408 q 217 260 208 282 q 259 193 231 221 q 329 165 288 165 z "},"r":{"ha":511,"x_min":28,"x_max":518,"o":"m 261 665 q 278 672 268 667 q 299 679 289 676 q 450 697 357 697 q 518 690 518 697 l 517 618 l 518 431 l 481 443 l 400 463 q 340 467 367 467 q 275 446 297 467 q 254 374 253 425 q 260 1 260 203 q 200 -10 224 -8 q 140 -11 176 -12 q 96 -10 126 -10 q 32 -12 63 -10 q 31 235 32 154 q 28 508 28 415 q 31 701 28 576 q 100 696 75 696 q 171 700 136 696 q 236 704 204 704 q 260 700 260 704 l 261 667 l 261 665 z "},"s":{"ha":625,"x_min":-6,"x_max":626,"o":"m 604 467 q 526 461 569 461 q 385 476 461 461 q 386 494 386 482 q 368 543 386 524 q 315 560 350 563 q 281 537 294 553 q 268 501 268 521 q 281 460 268 479 q 317 431 293 440 l 315 431 q 483 394 419 415 q 581 331 547 374 q 618 208 618 269 q 596 100 618 163 q 492 1 564 33 q 328 -29 421 -31 q 85 32 176 -35 q -6 222 -6 99 q 108 229 50 229 l 242 226 q 268 172 243 193 q 324 150 293 150 q 363 167 346 150 q 378 214 379 185 q 356 265 382 250 q 276 290 329 279 l 256 294 q 169 319 199 307 q 51 403 93 349 q 8 518 8 458 q 51 638 8 582 q 168 714 94 693 q 314 728 218 728 q 497 708 415 728 q 595 619 564 681 q 626 474 626 557 l 604 467 z "},"š":{"ha":625,"x_min":-57,"x_max":575,"o":"m 74 985 q 115 1003 89 1000 q 188 1006 140 1006 q 242 1003 225 1006 q 271 991 258 1001 q 293 967 283 981 q 307 949 303 954 q 331 972 311 953 q 369 1001 350 992 q 426 1006 396 1006 q 479 1001 454 1006 l 553 996 q 481 912 518 950 q 382 818 443 874 l 304 744 l 74 985 m 553 467 q 475 461 518 461 q 333 476 410 461 q 335 494 335 482 q 317 543 335 524 q 264 560 299 563 q 230 537 243 553 q 217 501 217 521 q 229 460 217 479 q 265 431 242 440 l 264 431 q 432 394 368 415 q 529 331 496 374 q 567 208 567 269 q 544 100 567 163 q 441 1 513 33 q 276 -29 369 -31 q 34 32 125 -35 q -57 222 -57 99 q 57 229 -1 229 l 190 226 q 217 172 192 193 q 272 150 242 150 q 311 167 294 150 q 326 214 328 185 q 304 265 331 250 q 225 290 278 279 l 204 294 q 118 319 147 307 q -1 403 42 349 q -43 518 -43 458 q 0 638 -43 582 q 117 714 43 693 q 263 728 167 728 q 446 708 364 728 q 544 619 513 681 q 575 474 575 557 l 553 467 z "},"ß":{"ha":653,"x_min":26,"x_max":660,"o":"m 310 494 q 365 597 319 554 q 404 658 397 625 q 407 679 407 672 q 401 706 407 692 q 308 758 378 758 q 244 750 274 758 l 244 746 q 240 640 240 696 q 242 565 240 594 q 247 375 246 488 l 253 131 q 218 -7 254 -8 q 83 -6 117 -7 l 76 -6 q 32 1 53 -6 q 26 326 26 146 l 26 436 l 28 546 q 29 785 29 625 l 29 965 q 264 1000 151 1000 q 522 931 421 1000 q 622 706 622 863 q 551 485 622 604 l 551 486 q 550 472 546 476 q 633 357 607 403 q 660 251 660 311 q 656 200 660 228 q 525 26 635 82 q 453 -1 488 7 q 372 -10 419 -10 l 324 -7 l 299 -6 q 288 85 288 29 q 293 171 288 128 q 354 204 301 203 q 386 228 376 208 q 396 275 396 247 q 385 334 396 304 q 360 378 375 364 q 310 493 306 435 l 310 494 z "},"t":{"ha":538,"x_min":-6,"x_max":549,"o":"m 321 693 q 449 700 393 696 l 468 701 q 488 702 478 703 q 506 701 499 701 l 538 701 q 543 638 543 646 q 540 594 543 631 l 539 579 l 538 549 q 540 517 538 539 l 324 517 q 322 246 324 296 q 397 207 343 219 q 510 194 451 194 l 539 196 l 539 183 l 540 178 l 540 179 q 549 75 549 121 q 536 -6 549 31 q 463 -8 500 -8 q 241 22 336 -8 q 115 124 146 51 q 99 273 103 199 q 94 443 94 347 l 94 513 q 62 512 76 511 q 36 513 47 513 l -6 513 l -1 696 q 97 694 36 694 l 99 960 q 151 963 129 963 q 204 960 174 963 l 214 958 q 265 956 247 956 q 319 960 292 956 l 319 707 l 321 693 z "},"u":{"ha":625,"x_min":24,"x_max":597,"o":"m 369 50 l 367 49 l 368 49 q 292 13 335 26 q 204 0 249 0 q 63 44 113 0 q 24 274 24 79 q 26 447 24 331 q 29 590 29 547 q 26 696 29 638 q 176 704 100 707 l 242 704 q 244 543 244 663 q 247 404 244 465 q 249 357 249 386 q 282 240 254 264 q 313 235 293 235 q 356 253 338 235 q 378 313 375 271 q 381 369 381 351 q 376 467 381 417 q 374 516 375 483 q 372 574 372 549 q 379 693 372 646 q 438 705 415 703 q 488 706 460 707 q 531 704 500 704 q 593 707 563 704 q 594 460 593 540 q 597 186 597 279 q 594 -6 597 119 l 561 -4 q 507 -6 532 -4 q 421 -10 465 -10 q 372 0 372 -10 q 369 49 369 18 l 369 50 z "},"ú":{"ha":624,"x_min":24,"x_max":597,"o":"m 497 906 q 404 810 419 840 q 318 806 375 806 q 238 810 279 806 q 176 819 197 814 q 269 911 210 847 q 432 1065 372 1017 l 544 947 l 497 906 m 369 50 l 367 49 l 368 49 q 292 13 335 26 q 204 0 249 0 q 63 44 113 0 q 24 274 24 79 q 26 447 24 331 q 29 590 29 547 q 26 696 29 638 q 176 704 100 707 l 242 704 q 244 543 244 663 q 247 404 244 465 q 249 357 249 386 q 282 240 254 264 q 313 235 293 235 q 356 253 338 235 q 378 313 375 271 q 381 369 381 351 q 376 467 381 417 q 374 516 375 483 q 372 574 372 549 q 379 693 372 646 q 438 705 415 703 q 488 706 460 707 q 531 704 500 704 q 593 707 563 704 q 594 460 593 540 q 597 186 597 279 q 594 -6 597 119 l 561 -4 q 507 -6 532 -4 q 421 -10 465 -10 q 372 0 372 -10 q 369 49 369 18 l 369 50 z "},"û":{"ha":625,"x_min":24,"x_max":597,"o":"m 557 828 q 516 810 542 813 q 443 807 490 807 q 389 810 406 807 q 360 822 372 811 q 338 845 347 832 q 324 864 328 858 q 300 840 319 860 q 261 811 281 821 q 204 807 233 807 q 151 811 176 807 l 78 817 q 150 901 113 863 q 249 994 188 939 l 326 1068 l 557 828 m 369 50 l 367 49 l 368 49 q 292 13 335 26 q 204 0 249 0 q 63 44 113 0 q 24 274 24 79 q 26 447 24 331 q 29 590 29 547 q 26 696 29 638 q 176 704 100 707 l 242 704 q 244 543 244 663 q 247 404 244 465 q 249 357 249 386 q 282 240 254 264 q 313 235 293 235 q 356 253 338 235 q 378 313 375 271 q 381 369 381 351 q 376 467 381 417 q 374 516 375 483 q 372 574 372 549 q 379 693 372 646 q 438 705 415 703 q 488 706 460 707 q 531 704 500 704 q 593 707 563 704 q 594 460 593 540 q 597 186 597 279 q 594 -6 597 119 l 561 -4 q 507 -6 532 -4 q 421 -10 465 -10 q 372 0 372 -10 q 369 49 369 18 l 369 50 z "},"ü":{"ha":624,"x_min":24,"x_max":597,"o":"m 289 1058 q 290 996 289 1021 q 293 875 293 918 q 219 853 276 853 q 167 856 203 853 q 119 857 153 857 q 64 856 83 857 q 61 932 64 885 l 60 954 q 58 1063 57 1015 l 289 1058 m 544 1058 q 546 996 544 1021 q 549 875 549 918 q 475 853 532 853 q 422 856 458 853 q 375 857 408 857 q 319 856 339 857 q 317 932 319 885 l 315 954 q 314 1063 313 1015 l 544 1058 m 369 50 l 367 49 l 368 49 q 292 13 335 26 q 204 0 249 0 q 63 44 113 0 q 24 274 24 79 q 26 447 24 331 q 29 590 29 547 q 26 696 29 638 q 176 704 100 707 l 242 704 q 244 543 244 663 q 247 404 244 465 q 249 357 249 386 q 282 240 254 264 q 313 235 293 235 q 356 253 338 235 q 378 313 375 271 q 381 369 381 351 q 376 467 381 417 q 374 516 375 483 q 372 574 372 549 q 379 693 372 646 q 438 705 415 703 q 488 706 460 707 q 531 704 500 704 q 593 707 563 704 q 594 460 593 540 q 597 186 597 279 q 594 -6 597 119 l 561 -4 q 507 -6 532 -4 q 421 -10 465 -10 q 372 0 372 -10 q 369 49 369 18 l 369 50 z "},"ù":{"ha":625,"x_min":24,"x_max":597,"o":"m 201 1065 q 283 993 239 1036 q 365 911 328 950 l 365 913 l 393 885 l 421 856 q 458 818 458 818 q 397 809 438 813 q 317 806 356 806 q 233 810 263 806 q 149 894 218 832 l 139 903 l 140 903 q 88 950 108 929 l 201 1065 m 369 50 l 367 49 l 368 49 q 292 13 335 26 q 204 0 249 0 q 63 44 113 0 q 24 274 24 79 q 26 447 24 331 q 29 590 29 547 q 26 696 29 638 q 176 704 100 707 l 242 704 q 244 543 244 663 q 247 404 244 465 q 249 357 249 386 q 282 240 254 264 q 313 235 293 235 q 356 253 338 235 q 378 313 375 271 q 381 369 381 351 q 376 467 381 417 q 374 516 375 483 q 372 574 372 549 q 379 693 372 646 q 438 705 415 703 q 488 706 460 707 q 531 704 500 704 q 593 707 563 704 q 594 460 593 540 q 597 186 597 279 q 594 -6 597 119 l 561 -4 q 507 -6 532 -4 q 421 -10 465 -10 q 372 0 372 -10 q 369 49 369 18 l 369 50 z "},"v":{"ha":596,"x_min":-10,"x_max":617,"o":"m 300 285 q 329 442 314 350 q 390 696 361 619 l 461 697 q 543 700 514 700 q 617 697 590 700 q 560 510 585 608 q 501 256 535 411 q 440 -6 463 78 q 321 -14 392 -14 l 140 -11 q -10 706 74 394 q 71 699 26 699 q 115 700 100 699 l 163 701 q 228 697 192 701 l 257 528 q 300 285 281 371 z "},"w":{"ha":949,"x_min":-10,"x_max":969,"o":"m 229 697 q 249 575 238 658 q 300 279 294 286 q 390 703 357 490 q 426 701 403 701 l 500 703 q 583 696 535 706 q 615 499 596 643 q 653 281 638 335 q 676 381 664 318 q 693 463 689 443 q 722 594 707 529 q 749 696 736 660 q 818 699 771 696 q 899 701 868 701 q 969 697 915 701 q 913 510 938 608 q 854 256 888 411 q 793 -6 815 78 q 664 -12 756 -12 l 594 -12 q 510 -11 571 -11 q 490 108 501 28 l 475 204 q 460 111 468 172 q 453 62 458 99 q 440 -6 447 25 q 300 -12 394 -12 q 140 -11 210 -12 q -10 706 74 394 q 71 699 26 699 l 114 700 q 156 701 128 701 q 211 697 182 701 l 229 697 z "},"x":{"ha":574,"x_min":-19,"x_max":606,"o":"m 479 342 q 533 146 496 258 q 581 -11 550 96 q 532 -6 542 -6 l 335 1 q 300 117 314 40 l 288 172 q 232 -8 268 104 l 165 -8 l 96 -10 q -8 4 36 -10 q 49 188 6 54 q 74 264 61 225 q 99 343 86 303 q -19 696 68 471 q 100 701 64 701 q 240 690 229 701 q 285 518 267 575 q 307 601 294 549 q 332 697 322 667 q 506 704 363 701 q 606 706 574 704 q 554 571 589 654 q 506 445 524 496 q 479 342 489 394 z "},"y":{"ha":624,"x_min":-44,"x_max":635,"o":"m 229 697 q 260 536 243 647 q 274 457 265 510 q 315 261 301 311 q 330 331 322 272 q 346 456 338 389 q 370 641 360 578 q 392 700 381 704 q 460 701 436 700 l 533 703 l 635 700 q 590 513 618 635 q 560 385 574 438 q 532 276 564 400 q 448 1 492 107 q 306 -179 404 -104 q 38 -254 208 -254 q -28 -251 6 -254 q -44 -137 -44 -200 q -36 -54 -44 -94 q 29 -56 14 -54 q 72 -57 44 -57 q 146 14 146 -57 l 144 32 q 4 618 106 247 l 4 617 q -21 706 -7 644 q 56 699 21 699 l 151 700 q 211 697 194 700 l 229 697 z "},"ý":{"ha":624,"x_min":-44,"x_max":635,"o":"m 474 906 q 381 810 396 840 q 294 806 351 806 q 215 810 256 806 q 153 819 174 814 q 246 911 186 847 q 408 1065 349 1017 l 521 947 l 474 906 m 229 697 q 260 536 243 647 q 274 457 265 510 q 315 261 301 311 q 330 331 322 272 q 346 456 338 389 q 370 641 360 578 q 392 700 381 704 q 460 701 436 700 l 533 703 l 635 700 q 590 513 618 635 q 560 385 574 438 q 532 276 564 400 q 448 1 492 107 q 306 -179 404 -104 q 38 -254 208 -254 q -28 -251 6 -254 q -44 -137 -44 -200 q -36 -54 -44 -94 q 29 -56 14 -54 q 72 -57 44 -57 q 146 14 146 -57 l 144 32 q 4 618 106 247 l 4 617 q -21 706 -7 644 q 56 699 21 699 l 151 700 q 211 697 194 700 l 229 697 z "},"ÿ":{"ha":624,"x_min":-44,"x_max":635,"o":"m 301 1058 q 303 996 301 1021 q 306 875 306 918 q 232 853 289 853 q 179 856 215 853 q 132 857 165 857 q 76 856 96 857 q 74 932 76 885 l 72 954 q 71 1063 69 1015 l 301 1058 m 557 1058 q 558 996 557 1021 q 561 875 561 918 q 488 853 544 853 q 435 856 471 853 q 388 857 421 857 q 332 856 351 857 q 329 932 332 885 l 328 954 q 326 1063 325 1015 l 557 1058 m 229 697 q 260 536 243 647 q 274 457 265 510 q 315 261 301 311 q 330 331 322 272 q 346 456 338 389 q 370 641 360 578 q 392 700 381 704 q 460 701 436 700 l 533 703 l 635 700 q 590 513 618 635 q 560 385 574 438 q 532 276 564 400 q 448 1 492 107 q 306 -179 404 -104 q 38 -254 208 -254 q -28 -251 6 -254 q -44 -137 -44 -200 q -36 -54 -44 -94 q 29 -56 14 -54 q 72 -57 44 -57 q 146 14 146 -57 l 144 32 q 4 618 106 247 l 4 617 q -21 706 -7 644 q 56 699 21 699 l 151 700 q 211 697 194 700 l 229 697 z "},"z":{"ha":633,"x_min":8,"x_max":624,"o":"m 622 572 q 624 506 622 522 q 482 364 579 458 q 322 204 371 258 l 617 213 l 618 111 q 619 3 619 81 q 13 -6 278 -6 q 15 21 15 0 q 13 83 15 39 q 8 154 8 121 q 10 178 8 171 q 76 253 36 213 q 183 358 117 294 q 322 497 293 465 q 18 471 136 489 l 18 485 q 15 538 15 526 l 17 603 q 18 697 19 664 l 246 697 l 611 697 l 624 697 l 622 572 z "},"ž":{"ha":633,"x_min":19,"x_max":635,"o":"m 114 985 q 155 1003 129 1000 q 228 1006 181 1006 q 282 1003 265 1006 q 311 991 299 1001 q 333 967 324 981 q 347 949 343 954 q 371 972 351 953 q 410 1001 390 992 q 467 1006 436 1006 q 519 1001 494 1006 l 593 996 q 521 912 558 950 q 422 818 483 874 l 344 744 l 114 985 m 633 572 q 635 506 633 522 q 493 364 590 458 q 333 204 382 258 l 628 213 l 629 111 q 631 3 631 81 q 24 -6 289 -6 q 26 21 26 0 q 24 83 26 39 q 19 154 19 121 q 21 178 19 171 q 88 253 47 213 q 194 358 128 294 q 333 497 304 465 q 29 471 147 489 l 29 485 q 26 538 26 526 l 28 603 q 29 697 31 664 l 257 697 l 622 697 l 635 697 l 633 572 z "},"ﬀ":{"ha":1096,"x_min":-8,"x_max":1129,"o":"m 919 783 q 896 765 904 781 q 888 725 888 749 q 892 688 888 708 l 1108 688 q 1111 611 1111 654 l 1110 581 l 1110 556 l 1108 529 l 1108 507 q 929 513 1025 513 l 888 513 l 888 -7 q 839 -3 879 -3 q 735 -6 801 -3 q 657 -7 663 -8 q 647 461 657 240 q 644 507 644 486 q 335 513 478 513 l 335 -7 q 288 -3 326 -3 q 188 -6 254 -3 l 119 -8 q 103 -7 104 -8 q 97 197 97 33 l 99 318 l 99 421 l 100 488 l 100 511 q -4 510 28 511 l -8 703 l 40 703 q 65 703 51 703 q 96 703 78 704 q 111 808 93 751 q 168 914 129 865 q 263 986 207 963 q 485 1015 344 1015 l 563 1013 q 575 929 575 976 q 567 818 575 882 l 565 800 l 535 801 q 448 796 496 801 q 365 783 400 790 q 335 733 335 778 q 339 699 335 718 l 650 700 q 686 874 647 790 q 817 986 725 958 l 815 986 q 1039 1015 901 1015 q 1115 1013 1076 1015 q 1129 921 1129 975 q 1117 799 1129 851 q 1076 801 1092 801 q 919 783 1000 801 z "},"ﬃ":{"ha":1325,"x_min":-8,"x_max":1301,"o":"m 646 699 q 682 872 643 788 q 813 983 721 956 l 811 983 q 1033 1013 897 1013 q 1113 1010 1074 1013 q 1124 925 1124 975 q 1119 851 1124 893 q 1113 799 1114 810 l 1083 800 q 997 794 1044 800 q 914 782 949 789 q 892 763 899 779 q 885 724 885 747 q 888 688 885 701 l 1061 688 l 1061 743 q 1079 744 1064 743 q 1124 746 1094 746 q 1256 742 1165 746 l 1301 742 l 1301 729 q 1299 511 1301 658 l 1297 426 q 1294 229 1294 293 q 1300 10 1294 106 q 1218 -8 1282 -8 q 1156 -6 1194 -8 q 1053 -18 1093 -3 q 1061 332 1061 114 l 1063 508 q 925 513 1000 513 l 883 513 l 883 -3 q 814 1 853 1 q 653 -4 760 1 q 643 463 653 246 l 640 507 q 332 513 467 513 l 332 -3 q 297 1 325 1 q 247 0 271 1 q 204 -3 222 -1 q 125 -7 161 -7 q 101 -4 107 -7 q 99 246 99 32 l 99 511 q -4 510 28 511 l -8 701 l 39 701 q 64 702 50 701 q 96 701 78 703 q 131 872 93 792 q 260 983 168 951 q 483 1013 346 1013 l 561 1010 q 572 925 572 975 q 567 851 572 893 q 561 799 563 810 l 532 800 q 445 794 493 800 q 363 782 397 789 q 333 731 333 776 q 336 697 333 710 l 646 699 z "},"ﬄ":{"ha":1403,"x_min":-8,"x_max":1382,"o":"m 650 700 q 686 874 647 790 q 817 986 725 958 l 815 986 q 908 1009 864 1003 q 1014 1015 953 1015 q 1090 1013 1051 1015 q 1099 972 1097 992 q 1101 921 1101 951 q 1092 799 1101 839 q 1054 801 1067 801 q 919 783 1000 801 q 896 765 904 781 q 888 725 888 749 q 892 688 888 708 l 1094 688 q 1097 608 1097 663 q 1094 507 1097 590 q 929 513 1011 513 l 888 513 l 888 -7 q 835 -3 863 -3 q 782 -6 815 -3 l 765 -7 q 710 -10 732 -10 q 657 -7 688 -10 q 647 461 657 240 l 644 507 q 335 513 472 513 l 335 -7 q 279 -3 307 -3 q 224 -6 260 -3 l 211 -7 q 156 -10 178 -10 q 103 -7 133 -10 q 97 197 97 33 l 99 318 l 99 421 l 100 488 l 100 511 q -4 510 28 511 l -8 703 l 40 703 q 65 703 51 703 q 96 703 78 704 q 111 808 93 751 q 168 914 129 865 q 263 986 207 963 q 485 1015 344 1015 l 563 1013 q 575 929 575 976 q 567 818 575 882 l 565 800 l 535 801 q 448 796 496 801 q 365 783 400 790 q 335 733 335 778 q 339 699 335 718 l 650 700 m 1382 6 q 1297 -12 1364 -12 q 1231 -10 1272 -12 q 1132 -17 1169 -7 q 1140 199 1140 82 q 1132 483 1140 294 q 1124 767 1124 669 q 1133 1014 1124 899 l 1375 1010 l 1382 6 z "},"ﬁ":{"ha":771,"x_min":-10,"x_max":747,"o":"m 507 507 q 331 511 444 511 l 331 -1 q 286 1 300 1 q 215 -1 263 1 q 138 -6 178 -6 q 103 -4 114 -6 q 94 236 94 49 q 97 479 94 299 l 97 510 q -6 508 26 510 l -10 689 l 94 689 q 129 865 92 781 q 258 981 167 949 q 481 1010 344 1010 l 558 1007 q 569 922 569 972 q 565 849 569 890 q 558 796 560 807 q 522 797 546 797 q 363 781 468 797 q 338 762 346 778 q 331 722 331 746 q 335 685 331 706 l 508 685 l 508 740 q 526 742 511 740 q 571 743 542 743 q 706 739 614 743 l 747 732 q 746 607 747 661 q 743 517 744 553 q 740 403 742 471 q 739 246 739 336 q 746 10 739 107 q 664 -8 728 -8 q 601 -6 640 -8 q 497 -18 538 -3 q 508 346 508 133 l 507 507 z "},"ﬂ":{"ha":781,"x_min":-10,"x_max":760,"o":"m 517 515 q 376 519 454 519 l 335 519 l 335 -3 q 282 1 310 1 q 229 -1 263 1 l 213 -3 q 157 -6 179 -6 q 103 -3 133 -6 q 97 201 97 38 l 99 322 l 99 426 l 100 518 q -6 517 26 518 l -10 700 l 96 700 q 131 876 90 789 q 263 996 171 964 q 488 1025 350 1025 q 714 1019 526 1025 l 760 1019 q 758 841 760 922 q 756 699 757 760 q 750 283 750 413 q 757 10 750 128 q 671 -8 739 -8 q 604 -6 646 -8 q 507 -12 544 -3 q 515 324 515 114 l 517 515 m 513 810 l 513 811 l 365 808 q 343 784 351 804 q 335 736 335 764 q 339 696 335 717 l 515 696 l 513 810 z "},"ª":{"ha":383,"x_min":14,"x_max":358,"o":"m 358 1011 q 356 994 358 1008 q 354 919 354 981 l 356 844 l 356 814 l 357 785 q 353 681 357 729 l 353 672 q 348 653 353 660 q 325 644 343 646 l 232 644 q 208 661 213 649 q 138 643 172 643 q 45 706 76 643 q 14 840 14 768 q 53 963 14 914 q 153 1011 93 1011 q 183 1006 168 1011 q 206 1000 197 1001 l 206 1003 q 213 1013 206 1011 q 236 1015 219 1015 l 332 1011 l 358 1011 m 128 826 q 144 766 128 790 q 185 742 160 742 q 215 761 210 742 q 221 828 221 781 q 219 890 221 874 q 213 910 218 906 q 192 915 207 915 q 153 902 168 915 q 132 865 138 889 q 128 826 128 849 z "},"º":{"ha":353,"x_min":15,"x_max":339,"o":"m 178 906 q 283 865 243 906 q 333 767 324 825 q 339 699 339 725 q 299 529 339 601 q 175 457 258 457 q 114 467 144 457 q 50 520 71 486 q 24 591 29 554 q 17 683 18 628 l 15 711 q 56 849 15 792 q 178 906 96 906 m 194 656 q 196 694 196 668 q 182 785 196 768 q 172 792 175 792 q 163 785 168 792 q 153 736 156 775 q 149 674 149 701 q 157 600 149 647 q 172 575 165 575 q 188 603 182 575 q 194 656 193 631 z "},"¹":{"ha":260,"x_min":3,"x_max":222,"o":"m 168 450 q 97 457 132 450 l 97 518 q 103 639 97 558 q 104 689 103 674 l 106 742 q 88 732 99 732 q 40 742 78 732 q 3 758 3 751 q 40 835 4 776 q 83 900 76 894 l 90 900 l 144 901 q 218 897 178 901 q 222 792 222 846 q 219 697 222 758 l 218 650 q 215 508 215 556 l 215 465 q 168 450 215 450 z "},"²":{"ha":367,"x_min":24,"x_max":347,"o":"m 24 458 q 25 515 25 475 q 28 574 25 550 q 43 617 32 599 q 84 653 63 638 q 139 688 106 668 q 185 718 172 707 q 203 763 203 731 q 201 790 203 781 q 189 800 199 800 q 170 773 176 796 q 164 724 164 750 q 89 719 126 719 q 31 722 67 719 q 25 769 25 746 q 36 826 25 797 q 65 878 47 856 q 121 907 83 896 q 196 918 158 918 q 271 907 244 918 q 322 860 303 890 q 344 794 342 829 q 347 738 347 758 q 322 682 343 701 q 260 640 301 663 q 200 604 221 621 q 171 558 179 588 q 189 559 176 558 q 235 560 201 560 l 329 560 q 336 503 336 539 q 335 460 336 476 l 24 458 z "},"³":{"ha":353,"x_min":18,"x_max":331,"o":"m 19 606 q 142 608 90 606 q 150 583 140 593 q 172 574 160 574 q 190 582 185 574 q 196 606 196 592 q 186 628 196 622 q 135 640 174 640 q 107 638 115 640 q 106 669 106 651 l 107 699 q 103 732 107 711 q 139 733 122 733 q 163 732 156 732 q 184 742 175 732 q 193 772 193 751 q 181 800 193 800 q 152 795 158 801 q 144 778 146 789 q 140 761 143 768 l 110 761 l 60 760 l 18 761 l 18 781 q 64 882 21 850 q 178 914 107 914 q 263 899 224 914 q 317 857 301 883 q 331 731 331 829 l 329 649 q 328 599 328 629 q 324 562 326 586 q 315 522 322 538 q 240 461 293 479 q 168 453 211 453 q 126 456 151 453 q 53 481 82 461 q 28 522 33 497 q 21 571 22 546 q 19 606 19 596 z "},"½":{"ha":836,"x_min":7,"x_max":824,"o":"m 571 725 q 318 4 415 257 l 315 6 l 315 -1 q 233 -6 283 -8 q 193 -6 211 -4 q 146 -18 175 -8 q 246 269 189 115 l 257 300 l 286 379 q 401 705 353 561 q 490 1000 450 849 q 538 990 519 990 l 556 992 l 564 992 q 656 978 636 994 l 571 725 m 113 489 q 119 624 113 550 l 121 682 q 122 739 122 700 q 101 728 114 728 q 49 740 92 728 q 7 758 7 751 q 49 844 8 778 q 97 917 89 910 l 106 917 l 165 918 q 249 914 203 918 q 253 794 253 856 q 250 689 253 758 l 249 636 l 247 583 q 244 478 244 514 l 244 429 q 192 413 244 413 q 113 421 149 413 l 113 489 m 710 190 q 652 154 667 168 q 617 100 638 140 l 665 100 l 726 100 q 806 101 749 101 q 813 61 813 85 l 813 49 l 813 15 q 814 -3 813 4 q 810 -6 814 -6 q 800 -7 807 -7 l 525 -11 q 503 -12 515 -12 q 488 -11 493 -12 q 479 -10 483 -10 q 483 50 483 18 q 488 120 483 93 q 507 174 492 147 q 603 247 536 206 q 664 288 640 269 q 686 336 686 301 q 678 369 686 354 q 657 385 669 383 q 626 360 635 383 q 615 297 618 336 q 531 290 575 290 q 486 296 507 290 q 482 344 482 324 q 524 467 482 419 q 581 500 543 489 q 660 511 618 511 q 742 499 713 511 q 798 447 778 481 q 821 374 818 414 l 821 368 l 822 361 q 823 335 822 353 q 822 308 824 317 q 790 241 819 267 q 710 190 761 215 z "},"¼":{"ha":826,"x_min":7,"x_max":808,"o":"m 571 725 q 318 4 415 257 l 315 6 l 315 -1 q 233 -6 283 -8 q 193 -6 211 -4 q 146 -18 175 -8 q 246 269 189 115 l 257 300 l 286 379 q 401 705 353 561 q 490 1000 450 849 q 538 990 519 990 l 556 992 l 564 992 q 656 978 636 994 l 571 725 m 113 489 q 119 624 113 550 l 121 682 q 122 739 122 700 q 101 728 114 728 q 49 740 92 728 q 7 758 7 751 q 49 844 8 778 q 97 917 89 910 l 106 917 l 165 918 q 249 914 203 918 q 253 794 253 856 q 250 689 253 758 l 249 636 l 247 583 q 244 478 244 514 l 244 429 q 192 413 244 413 q 113 421 149 413 l 113 489 m 806 126 q 785 127 790 126 q 758 128 779 128 q 761 126 760 128 q 761 118 763 124 l 758 83 q 751 8 753 11 q 728 1 746 3 q 682 0 710 0 l 635 0 q 632 25 632 6 q 638 138 632 49 q 616 136 632 138 q 576 135 600 135 q 519 136 546 135 q 488 143 492 138 q 481 202 481 168 q 481 242 481 236 q 510 294 496 265 q 547 359 515 306 q 638 500 578 413 l 735 501 q 765 499 754 501 l 765 485 q 761 257 761 356 l 761 240 l 768 240 l 808 239 l 806 126 m 658 372 l 639 332 q 589 239 599 239 l 654 238 l 658 372 z "},"¾":{"ha":869,"x_min":17,"x_max":860,"o":"m 610 992 q 701 978 682 994 l 364 4 l 361 6 l 361 -1 q 279 -6 329 -8 q 239 -6 257 -4 q 192 -18 221 -8 q 292 269 235 115 l 303 300 l 332 379 q 447 705 399 561 q 536 1000 496 849 q 583 990 565 990 l 601 992 l 610 992 m 325 489 q 249 421 303 439 q 179 413 218 413 q 128 417 149 413 q 99 422 108 419 q 92 424 97 424 l 86 426 l 88 426 q 61 437 71 431 q 50 446 51 443 q 22 497 28 465 l 19 531 l 19 533 l 18 576 q 45 576 29 575 q 72 578 61 578 q 106 581 89 581 q 131 579 122 581 q 152 549 138 563 q 182 536 167 536 q 208 553 197 536 l 208 551 q 213 575 213 568 q 200 608 213 593 q 158 621 178 621 q 119 615 150 621 q 111 654 111 635 q 113 678 111 665 q 114 703 114 690 q 113 719 114 714 q 160 726 128 726 q 198 733 185 726 q 211 761 211 739 q 186 800 211 800 q 153 788 171 800 q 131 760 136 776 q 63 757 114 757 l 17 758 l 17 788 l 17 804 q 19 829 17 821 l 19 828 q 79 897 33 874 q 182 921 125 921 q 269 903 228 921 q 328 858 310 886 q 335 834 332 850 q 339 806 339 818 l 339 713 q 338 571 339 617 l 338 553 q 325 489 335 511 m 857 126 q 836 127 842 126 q 810 128 831 128 q 813 126 811 128 q 813 118 814 124 l 810 83 q 803 8 804 11 q 779 1 797 3 q 733 0 761 0 l 686 0 q 683 25 683 6 q 689 138 683 49 q 667 136 683 138 q 628 135 651 135 q 570 136 597 135 q 539 143 543 138 q 532 202 532 168 q 532 242 532 236 q 561 294 547 265 q 598 359 567 306 q 689 500 629 413 l 786 501 q 817 499 806 501 l 817 485 q 813 257 813 356 l 813 240 l 819 240 l 860 239 l 857 126 m 710 372 l 690 332 q 640 239 650 239 l 706 238 l 710 372 z "},"⅛":{"ha":817,"x_min":7,"x_max":810,"o":"m 315 -1 q 233 -6 283 -8 q 193 -6 211 -4 q 146 -18 175 -8 q 246 269 189 115 l 257 300 l 286 379 q 401 705 353 561 q 490 1000 450 849 q 538 990 519 990 l 556 992 l 564 992 q 656 978 636 994 l 571 725 q 318 4 415 257 l 315 6 l 315 -1 m 192 413 q 113 421 149 413 l 113 489 q 119 624 113 550 l 121 682 q 122 739 122 700 q 101 728 114 728 q 49 740 92 728 q 7 758 7 751 q 49 844 8 778 q 97 917 89 910 l 106 917 l 165 918 q 249 914 203 918 q 253 794 253 856 q 250 689 253 758 l 249 636 l 247 583 q 244 478 244 514 l 244 429 q 192 413 244 413 m 807 322 q 758 243 797 276 q 795 194 782 222 q 808 139 808 167 q 799 85 808 111 q 771 39 789 58 q 722 8 754 19 q 654 -3 689 -3 q 579 10 614 -3 q 526 46 544 22 q 502 90 511 64 q 493 142 493 115 q 538 247 493 200 q 500 346 500 289 q 533 447 500 403 q 624 492 567 490 q 665 493 639 493 q 751 476 719 493 l 758 472 q 795 424 781 458 q 810 350 810 390 l 810 340 q 807 322 810 329 m 653 307 q 669 317 663 307 q 675 338 675 326 q 667 356 675 349 q 650 364 660 364 q 629 350 635 364 q 633 322 626 336 q 653 307 639 308 m 681 164 q 678 177 681 171 q 674 185 676 183 q 649 193 660 193 q 631 183 638 193 q 624 158 624 172 q 635 132 624 138 q 664 129 644 129 q 676 140 671 131 q 681 164 682 150 z "},"⅜":{"ha":867,"x_min":17,"x_max":864,"o":"m 374 -1 q 292 -6 342 -8 q 251 -6 269 -4 q 204 -18 233 -8 q 304 269 247 115 l 315 300 l 344 379 q 460 705 411 561 q 549 1000 508 849 q 596 990 578 990 l 614 992 l 622 992 q 714 978 694 994 l 629 725 q 376 4 474 257 l 374 6 l 374 -1 m 19 531 l 19 533 l 18 576 q 45 576 29 575 q 72 578 61 578 q 106 581 89 581 q 131 579 122 581 q 152 549 138 563 q 182 536 167 536 q 208 553 197 536 l 208 551 q 213 575 213 568 q 200 608 213 593 q 158 621 178 621 q 119 615 150 621 q 111 654 111 635 q 113 678 111 665 q 114 703 114 690 q 113 719 114 714 q 160 726 128 726 q 198 733 185 726 q 211 761 211 739 q 186 800 211 800 q 153 788 171 800 q 131 760 136 776 q 63 757 114 757 l 17 758 l 17 788 l 17 804 q 19 829 17 821 l 19 828 q 79 897 33 874 q 182 921 125 921 q 269 903 228 921 q 328 858 310 886 q 335 834 332 850 q 339 806 339 818 l 339 713 q 338 571 339 617 l 338 553 q 325 489 335 511 q 249 421 303 439 q 179 413 218 413 q 128 417 149 413 q 99 422 108 419 q 92 424 97 424 l 86 426 l 88 426 q 61 437 71 431 q 50 446 51 443 q 22 497 28 465 l 19 531 m 861 322 q 813 243 851 276 q 849 194 836 222 q 863 139 863 167 q 853 85 863 111 q 825 39 843 58 q 776 8 808 19 q 708 -3 743 -3 q 633 10 668 -3 q 581 46 599 22 q 556 90 565 64 q 547 142 547 115 q 592 247 547 200 q 554 346 554 289 q 588 447 554 403 q 678 492 621 490 q 719 493 693 493 q 806 476 774 493 l 813 472 q 849 424 835 458 q 864 350 864 390 l 864 340 q 861 322 864 329 m 707 307 q 723 317 717 307 q 729 338 729 326 q 722 356 729 349 q 704 364 714 364 q 683 350 689 364 q 687 322 681 336 q 707 307 693 308 m 735 164 q 733 177 735 171 q 728 185 731 183 q 703 193 714 193 q 685 183 692 193 q 678 158 678 172 q 689 132 678 138 q 718 129 699 129 q 731 140 725 131 q 735 164 736 150 z "},"⅝":{"ha":868,"x_min":19,"x_max":864,"o":"m 375 -1 q 293 -6 343 -8 q 253 -6 271 -4 q 206 -18 235 -8 q 306 269 249 115 l 317 300 l 346 379 q 461 705 413 561 q 550 1000 510 849 q 597 990 579 990 l 615 992 l 624 992 q 715 978 696 994 l 631 725 q 378 4 475 257 l 375 6 l 375 -1 m 143 576 q 153 545 144 554 q 175 539 163 536 q 203 560 193 543 q 213 600 213 578 q 203 641 213 622 q 178 665 193 660 q 144 668 167 668 q 110 667 121 668 l 94 667 q 54 665 82 665 q 21 668 36 665 q 19 792 21 754 l 19 911 q 64 913 43 911 l 299 915 q 332 913 321 915 q 335 894 335 911 q 332 839 335 872 l 332 817 l 332 807 q 204 803 310 803 q 144 804 154 803 q 143 792 143 799 q 146 785 143 786 q 160 784 149 783 q 181 783 171 785 l 214 781 q 310 711 278 768 q 343 581 343 654 q 339 519 343 549 q 280 445 329 472 q 169 418 231 418 q 63 447 107 418 q 19 532 19 476 q 24 579 19 550 l 143 582 l 143 576 m 861 322 q 813 243 851 276 q 849 194 836 222 q 863 139 863 167 q 853 85 863 111 q 825 39 843 58 q 776 8 808 19 q 708 -3 743 -3 q 633 10 668 -3 q 581 46 599 22 q 556 90 565 64 q 547 142 547 115 q 592 247 547 200 q 554 346 554 289 q 588 447 554 403 q 678 492 621 490 q 719 493 693 493 q 806 476 774 493 l 813 472 q 849 424 835 458 q 864 350 864 390 l 864 340 q 861 322 864 329 m 707 307 q 723 317 717 307 q 729 338 729 326 q 722 356 729 349 q 704 364 714 364 q 683 350 689 364 q 687 322 681 336 q 707 307 693 308 m 735 164 q 733 177 735 171 q 728 185 731 183 q 703 193 714 193 q 685 183 692 193 q 678 158 678 172 q 689 132 678 138 q 718 129 699 129 q 731 140 725 131 q 735 164 736 150 z "},"⅞":{"ha":856,"x_min":13,"x_max":853,"o":"m 363 -1 q 281 -6 331 -8 q 240 -6 258 -4 q 193 -18 222 -8 q 293 269 236 115 l 304 300 l 333 379 q 449 705 400 561 q 538 1000 497 849 q 585 990 567 990 l 603 992 l 611 992 q 703 978 683 994 l 618 725 q 365 4 463 257 l 363 6 l 363 -1 m 15 786 q 19 857 19 813 l 19 869 l 19 883 q 51 885 28 885 l 81 885 l 118 885 l 201 886 q 326 881 275 886 l 326 853 l 326 821 q 328 786 328 810 q 211 563 294 708 q 131 414 218 572 q 54 411 106 414 q 13 417 28 411 l 38 468 q 88 571 65 528 l 113 622 q 148 699 129 658 q 185 781 167 740 q 51 788 85 788 l 15 786 m 850 322 q 801 243 840 276 q 838 194 825 222 q 851 139 851 167 q 842 85 851 111 q 814 39 832 58 q 765 8 797 19 q 697 -3 732 -3 q 622 10 657 -3 q 569 46 588 22 q 545 90 554 64 q 536 142 536 115 q 581 247 536 200 q 543 346 543 289 q 576 447 543 403 q 667 492 610 490 q 708 493 682 493 q 794 476 763 493 l 801 472 q 838 424 824 458 q 853 350 853 390 l 853 340 q 850 322 853 329 m 696 307 q 712 317 706 307 q 718 338 718 326 q 710 356 718 349 q 693 364 703 364 q 672 350 678 364 q 676 322 669 336 q 696 307 682 308 m 724 164 q 722 177 724 171 q 717 185 719 183 q 692 193 703 193 q 674 183 681 193 q 667 158 667 172 q 678 132 667 138 q 707 129 688 129 q 719 140 714 131 q 724 164 725 150 z "},"*":{"ha":510,"x_min":8,"x_max":511,"o":"m 463 672 q 491 641 478 654 q 511 622 504 628 l 468 579 l 343 483 q 301 529 304 528 l 290 540 q 249 581 242 589 l 222 554 l 213 546 q 171 510 199 532 l 172 510 q 160 504 168 506 q 133 503 153 503 q 111 524 117 519 l 101 533 l 103 533 q 8 618 69 565 q 68 688 15 632 l 108 731 q 99 740 107 729 q 87 755 96 744 q 67 778 78 765 l 67 776 l 56 790 q 29 823 43 803 q 11 853 15 843 l 19 858 l 44 885 l 72 914 q 142 978 119 961 q 228 917 168 974 q 239 907 233 911 q 247 900 244 903 l 246 900 l 260 889 q 328 937 286 910 q 378 964 371 964 l 378 971 l 478 869 l 499 847 q 483 820 497 836 q 442 779 468 804 q 407 733 421 760 q 447 692 429 717 q 463 672 450 689 z "},"\\":{"ha":572,"x_min":7,"x_max":557,"o":"m 264 207 q 233 290 253 235 l 188 419 l 164 486 q 161 494 163 490 q 158 503 160 499 q 129 592 147 542 q 64 779 117 629 q 50 828 61 790 l 38 869 l 38 868 q 11 958 19 922 l 7 974 q 59 989 32 986 q 128 990 86 992 q 161 989 139 989 q 228 996 194 989 q 269 851 246 922 q 297 771 292 779 l 315 715 q 325 682 321 693 q 350 611 333 651 q 481 250 474 279 q 525 126 510 175 l 524 128 l 531 113 q 536 98 533 106 q 535 97 539 90 q 557 15 557 38 q 540 -8 557 -8 l 414 -7 q 376 -5 389 -7 q 344 4 363 -3 l 264 207 z "},"·":{"ha":228,"x_min":28,"x_max":200,"o":"m 196 551 q 197 489 196 514 q 200 369 200 411 q 172 349 190 353 q 117 347 154 346 q 96 349 113 349 q 63 347 76 349 l 35 346 q 32 422 35 375 l 31 444 q 29 553 28 506 l 196 551 z "},"•":{"ha":401,"x_min":49,"x_max":356,"o":"m 56 303 q 51 388 49 343 q 58 468 51 439 l 61 476 q 150 518 82 518 l 225 518 q 306 500 269 518 q 351 444 342 482 q 356 404 356 418 q 351 356 356 389 l 347 319 q 292 253 338 276 q 270 245 281 247 q 221 242 260 243 l 207 242 q 157 239 175 242 q 140 238 151 238 q 101 247 119 238 q 71 271 83 256 q 56 303 58 289 z "},":":{"ha":285,"x_min":33,"x_max":250,"o":"m 39 461 q 33 539 33 494 l 35 572 l 35 600 l 36 617 l 36 631 q 151 647 74 647 q 246 638 226 647 q 249 629 247 636 q 250 614 250 622 q 247 564 250 603 l 239 460 l 39 461 m 39 -6 q 33 72 33 28 l 35 106 l 35 133 l 36 150 l 36 164 q 151 181 74 181 q 246 171 226 181 q 249 163 247 169 q 250 147 250 156 q 247 97 250 136 l 239 -7 l 39 -6 z "},",":{"ha":261,"x_min":22,"x_max":239,"o":"m 203 -135 q 200 -158 200 -146 q 167 -146 179 -149 q 138 -143 154 -143 l 71 -143 q 67 -126 67 -139 q 74 -81 67 -111 l 75 -75 q 81 -32 81 -57 q 82 -3 81 -14 l 74 -6 l 67 -7 q 44 -3 65 -7 q 22 8 26 -3 q 29 169 22 43 q 103 181 61 181 q 171 176 138 181 l 169 176 l 239 171 l 231 6 l 229 -1 l 228 -8 q 224 -31 224 -19 l 207 -114 l 203 -135 z "},"…":{"ha":722,"x_min":22,"x_max":699,"o":"m 28 -6 q 22 72 22 28 l 24 106 l 24 133 l 25 150 l 25 164 q 140 181 63 181 q 235 171 215 181 q 238 163 236 169 q 239 147 239 156 q 236 97 239 136 l 228 -7 l 28 -6 m 257 -6 q 251 72 251 28 l 253 104 l 253 132 l 254 149 l 254 164 q 369 181 292 181 q 464 171 444 181 q 467 163 465 169 q 468 147 468 156 q 465 97 468 136 l 457 -7 l 257 -6 m 488 -6 q 482 72 482 28 l 483 106 l 483 133 l 485 150 l 485 164 q 600 181 522 181 q 694 171 675 181 q 697 163 696 169 q 699 147 699 156 q 696 97 699 136 l 688 -7 l 488 -6 z "},"!":{"ha":301,"x_min":32,"x_max":265,"o":"m 101 986 q 182 992 151 992 q 263 981 228 992 l 261 956 l 261 936 q 257 574 257 760 q 264 238 257 371 q 165 233 208 233 q 132 232 153 232 l 104 231 l 76 229 l 42 229 l 35 324 q 33 525 35 458 l 32 622 l 32 719 q 39 986 32 876 l 101 986 m 71 -6 q 52 6 57 -6 q 47 39 47 17 q 50 90 47 54 q 54 167 54 131 q 132 181 88 181 q 192 178 153 181 q 265 175 228 175 l 265 146 l 264 121 q 261 -6 261 43 l 231 -6 l 215 -4 l 175 -4 l 71 -6 z "},"¡":{"ha":300,"x_min":36,"x_max":260,"o":"m 231 883 q 249 872 244 883 q 254 839 254 861 q 251 786 254 822 q 247 710 247 747 q 169 697 218 697 q 110 700 149 697 q 36 703 74 703 l 36 732 l 38 757 q 40 883 40 835 l 71 883 l 86 882 l 126 882 l 231 883 m 186 -108 q 150 -112 175 -110 q 119 -114 125 -115 q 39 -103 74 -114 l 39 -78 q 44 304 44 89 q 38 640 44 507 q 136 644 94 644 q 169 646 149 646 l 197 647 l 225 647 l 260 649 q 258 494 258 600 l 256 -104 l 233 -104 l 186 -108 z "},"#":{"ha":929,"x_min":14,"x_max":918,"o":"m 890 357 q 899 331 897 342 q 900 300 900 319 q 903 215 900 254 q 783 208 847 208 q 658 207 717 208 q 654 199 656 203 q 651 192 653 194 l 642 161 l 642 163 l 635 142 q 615 85 631 132 q 572 -6 599 39 l 554 -6 q 488 -8 535 -8 l 372 -6 q 406 99 383 40 l 415 125 q 443 213 432 168 l 403 213 q 322 211 356 213 l 294 138 q 260 49 279 104 q 238 0 256 35 q 206 -7 231 -7 q 142 -4 183 -4 l 38 -7 q 96 178 51 68 l 103 197 l 107 208 l 90 207 q 54 206 78 206 q 18 207 32 206 q 15 313 15 239 l 14 350 l 14 406 q 125 363 57 363 q 178 364 154 363 l 178 368 q 182 399 178 385 q 221 525 200 468 l 32 524 l 31 697 q 78 685 42 692 q 175 679 115 679 q 249 681 221 679 l 268 681 l 274 681 q 308 786 286 713 q 339 897 331 860 q 436 889 369 890 q 485 888 449 888 l 544 886 q 540 858 544 875 q 526 813 535 840 l 486 682 l 563 682 q 581 683 569 682 q 613 682 592 683 q 682 900 631 715 q 751 890 726 890 l 807 892 q 876 886 842 892 q 878 872 878 882 q 867 824 878 854 q 861 804 864 808 q 855 786 858 796 q 849 765 851 776 l 822 678 l 828 678 l 843 676 l 908 676 l 908 664 l 918 529 l 768 525 q 750 472 756 492 l 740 442 l 714 364 l 724 364 q 890 357 782 364 m 538 456 q 558 526 554 504 l 540 526 q 431 528 467 529 q 401 443 406 457 q 386 399 389 408 l 375 364 l 507 365 q 519 402 511 382 q 531 435 526 422 l 538 456 z "},".":{"ha":263,"x_min":22,"x_max":239,"o":"m 28 -6 q 22 72 22 28 l 24 106 l 24 133 l 25 150 l 25 164 q 140 181 63 181 q 235 171 215 181 q 238 163 236 169 q 239 147 239 156 q 236 97 239 136 l 228 -7 l 28 -6 z "},"?":{"ha":626,"x_min":1,"x_max":619,"o":"m 179 331 q 200 422 189 385 q 236 499 211 458 l 235 497 q 274 553 243 513 l 283 565 q 338 644 319 613 q 356 704 356 675 q 315 758 356 743 q 294 763 303 763 q 269 753 279 763 q 246 722 260 743 q 236 709 243 719 q 221 692 229 699 q 203 682 213 685 q 138 679 167 679 q 72 682 114 679 l 39 685 l 1 689 q 49 833 6 764 q 164 947 92 903 q 319 990 236 990 q 469 957 400 990 q 578 865 538 924 q 619 735 619 807 q 549 558 619 646 l 504 507 q 465 463 483 486 q 427 390 442 429 q 401 296 413 350 l 400 292 q 394 265 394 275 q 399 244 394 257 q 340 239 374 240 q 281 239 306 238 l 189 239 q 178 256 181 247 q 176 276 176 264 l 179 331 m 179 -6 q 174 72 174 28 l 175 106 l 175 133 l 176 150 l 176 164 q 292 181 214 181 q 386 171 367 181 q 389 163 388 169 q 390 147 390 156 q 388 97 390 136 l 379 -7 l 179 -6 z "},"¿":{"ha":625,"x_min":4,"x_max":622,"o":"m 444 857 q 450 779 450 824 l 449 746 l 449 718 l 447 701 l 447 688 q 332 671 410 671 q 238 681 257 671 q 235 689 236 682 q 233 704 233 696 q 236 754 233 715 l 244 858 l 444 857 m 444 521 q 424 430 435 467 q 388 353 413 393 l 389 354 q 350 299 381 339 l 340 286 q 286 208 304 239 q 268 147 268 176 q 308 93 268 108 q 329 89 321 89 q 354 99 344 89 q 378 129 364 108 q 388 142 381 132 q 403 160 394 153 q 421 169 411 167 q 486 172 457 172 q 551 169 510 172 l 585 167 l 622 163 q 575 18 618 88 q 460 -95 532 -51 q 304 -139 388 -139 q 155 -106 224 -139 q 45 -14 86 -72 q 4 117 4 44 q 75 293 4 206 l 119 344 q 158 389 140 365 q 197 462 182 422 q 222 556 211 501 l 224 560 q 229 586 229 576 q 225 607 229 594 q 284 613 250 611 q 343 613 318 614 l 435 613 q 445 597 443 604 q 447 575 447 589 l 444 521 z "},"\"":{"ha":525,"x_min":29,"x_max":497,"o":"m 81 988 l 94 989 q 176 994 142 994 q 226 979 217 994 q 228 751 226 836 l 229 658 l 229 632 l 156 632 q 94 631 139 631 q 31 635 51 631 l 29 715 l 29 817 q 33 985 29 881 l 56 985 l 81 988 m 349 988 l 363 989 q 444 994 410 994 q 494 979 485 994 q 496 751 494 836 l 497 658 l 497 632 l 424 632 q 363 631 407 631 q 299 635 319 631 l 297 715 l 297 817 q 301 985 297 881 l 324 985 l 349 988 z "},"'":{"ha":257,"x_min":29,"x_max":229,"o":"m 81 988 l 94 989 q 176 994 142 994 q 226 979 217 994 q 228 751 226 836 l 229 658 l 229 632 l 156 632 q 94 631 139 631 q 31 635 51 631 l 29 715 l 29 817 q 33 985 29 881 l 56 985 l 81 988 z "},";":{"ha":285,"x_min":33,"x_max":251,"o":"m 39 461 q 33 539 33 494 l 35 572 l 35 600 l 36 617 l 36 631 q 151 647 74 647 q 246 638 226 647 q 249 629 247 636 q 250 614 250 622 q 247 564 250 603 l 239 460 l 39 461 m 215 -135 q 213 -158 213 -146 q 179 -146 192 -149 q 150 -143 167 -143 l 83 -143 q 79 -126 79 -139 q 86 -81 79 -111 l 88 -75 q 101 -8 99 -40 q 74 -6 90 -7 q 35 0 57 -4 q 42 169 35 43 q 115 181 74 181 q 183 176 150 181 l 182 176 l 251 171 l 243 6 l 242 -1 l 240 -8 q 236 -31 236 -19 l 219 -114 l 215 -135 z "},"/":{"ha":572,"x_min":14,"x_max":565,"o":"m 224 0 q 190 -6 204 -4 q 158 -7 176 -7 l 31 -8 q 14 15 14 -8 q 36 97 14 38 q 46 119 40 110 l 44 119 l 44 122 q 90 250 65 189 q 222 611 97 276 l 247 682 q 252 696 249 686 q 256 713 256 706 q 274 769 265 744 q 302 851 278 778 q 344 996 326 924 q 411 989 378 989 l 479 990 q 565 974 532 990 q 560 969 564 972 q 554 963 556 967 q 558 960 556 964 q 560 951 561 956 l 558 947 l 522 828 q 507 779 511 790 l 496 744 l 475 686 l 442 592 q 413 506 418 525 q 410 496 411 500 q 407 486 408 492 l 390 438 l 381 408 l 339 290 l 328 258 l 308 207 l 228 4 l 224 0 z "},"_":{"ha":903,"x_min":36,"x_max":871,"o":"m 407 -49 l 451 -49 l 618 -47 q 779 -46 740 -47 l 871 -44 q 863 -108 865 -83 q 863 -157 861 -133 l 863 -176 l 864 -215 l 158 -212 l 39 -212 l 39 -199 l 38 -172 q 36 -51 36 -137 l 57 -51 l 407 -49 z "},"{":{"ha":442,"x_min":-8,"x_max":428,"o":"m 407 -6 q 364 -8 382 -8 q 248 15 297 -8 q 173 74 199 38 q 150 150 147 110 q 156 218 156 192 q 126 352 156 299 q 29 401 97 406 q 11 403 19 401 q -3 410 3 404 q -8 463 -8 432 q 1 556 -8 503 q 24 554 8 554 q 126 603 96 554 q 157 729 157 653 q 154 781 157 750 l 154 779 q 151 810 151 799 q 182 899 151 860 q 263 946 213 938 l 281 947 q 351 951 315 951 l 403 949 l 421 947 q 426 875 426 908 q 424 822 426 853 l 424 811 q 374 789 393 800 q 351 756 356 778 q 349 661 346 718 q 349 647 349 657 q 350 617 350 638 q 336 528 350 563 q 278 474 322 493 q 336 401 321 446 q 349 296 351 357 l 347 268 q 428 149 347 156 l 428 51 q 426 -6 428 10 l 407 -6 z "},"}":{"ha":442,"x_min":14,"x_max":450,"o":"m 15 -6 q 14 149 14 10 q 94 268 94 156 l 93 296 q 106 400 90 356 q 167 474 122 444 q 107 528 122 493 q 92 617 92 564 l 92 638 l 93 661 q 90 756 96 718 q 67 788 86 776 q 18 810 47 800 q 14 875 14 839 q 21 947 14 911 l 39 949 l 90 951 q 163 947 129 951 l 181 946 q 260 899 231 938 q 290 810 290 860 q 288 779 290 799 l 288 781 q 285 729 285 750 q 315 603 285 653 q 418 554 346 554 q 440 556 433 554 q 450 463 450 485 q 444 410 450 432 q 431 403 439 404 q 413 401 422 401 q 315 352 344 406 q 286 218 286 299 q 292 150 286 192 q 269 74 294 110 q 194 15 243 38 q 78 -8 144 -8 q 35 -6 60 -8 l 15 -6 z "},"[":{"ha":446,"x_min":39,"x_max":433,"o":"m 39 469 q 53 983 39 776 q 153 992 100 992 q 224 989 171 992 l 257 988 q 342 985 329 985 q 433 990 382 985 l 433 938 q 431 861 433 890 q 417 808 428 832 q 372 810 401 810 q 331 808 343 810 l 324 808 q 271 807 289 806 q 265 636 265 754 q 271 401 265 554 q 276 190 276 268 l 358 193 l 388 192 l 425 188 q 431 54 431 104 q 429 -6 431 13 l 39 -11 l 39 469 z "},"]":{"ha":446,"x_min":13,"x_max":407,"o":"m 17 -6 q 15 54 15 13 q 21 188 15 104 l 58 192 l 86 193 q 136 194 103 194 q 169 192 161 194 q 175 401 169 257 q 181 636 181 549 q 174 806 181 753 q 115 808 151 806 q 75 810 103 810 q 24 808 43 810 q 15 863 17 832 q 13 950 13 893 l 13 990 q 99 985 57 985 q 189 988 128 985 l 222 989 q 290 992 261 992 q 393 981 344 992 q 406 511 406 810 l 406 179 q 407 3 406 61 l 407 -11 q 203 -7 357 -7 l 17 -6 z "},"(":{"ha":436,"x_min":25,"x_max":424,"o":"m 76 113 q 25 321 25 210 q 32 583 33 497 l 32 617 q 33 678 33 636 q 40 780 33 735 q 68 865 47 825 q 165 960 104 926 q 294 994 225 993 q 418 982 368 992 q 421 918 421 963 q 419 847 421 871 l 418 828 l 418 804 q 282 658 303 783 q 270 574 274 622 q 264 414 267 526 q 278 283 264 336 l 278 285 q 338 215 296 242 q 424 186 379 188 l 424 171 q 421 92 421 146 q 422 54 421 67 q 423 28 422 43 q 422 -1 424 14 q 376 -7 411 -7 l 317 -7 q 219 8 260 -4 q 138 51 169 26 q 94 92 110 71 q 76 113 78 113 z "},")":{"ha":435,"x_min":13,"x_max":411,"o":"m 360 113 q 411 321 411 210 q 404 583 403 497 l 404 617 q 403 678 403 636 q 396 780 403 735 q 368 865 389 825 q 272 960 332 926 q 142 994 211 993 q 18 982 68 992 q 15 918 15 963 q 17 847 15 871 l 18 828 l 18 804 q 154 658 133 783 q 166 574 163 622 q 172 414 169 526 q 158 283 172 336 l 158 285 q 99 215 140 242 q 13 186 57 188 l 13 171 q 15 92 15 146 q 14 54 15 67 q 13 28 14 43 q 14 -1 13 14 q 60 -7 25 -7 l 119 -7 q 217 8 176 -4 q 299 51 267 26 q 342 92 326 71 q 360 113 358 113 z "},"—":{"ha":961,"x_min":32,"x_max":932,"o":"m 35 419 l 36 482 l 36 501 l 928 501 l 928 465 l 926 426 l 926 385 l 925 340 q 932 206 925 261 q 481 210 792 206 l 432 210 l 53 215 l 32 215 l 35 419 z "},"–":{"ha":632,"x_min":31,"x_max":600,"o":"m 33 426 l 35 486 l 35 501 l 597 501 q 600 214 597 376 q 315 218 500 214 l 51 224 l 31 224 l 33 426 z "},"-":{"ha":724,"x_min":29,"x_max":694,"o":"m 32 449 l 33 494 l 33 510 l 690 510 q 689 425 690 451 l 688 394 l 688 367 q 694 264 688 313 q 361 268 583 264 l 50 274 l 29 274 l 32 449 z "},"­":{"ha":513,"x_min":29,"x_max":485,"o":"m 249 431 q 485 432 338 432 q 479 372 478 392 l 479 361 l 481 338 l 411 338 l 161 339 l 31 339 l 31 360 l 29 393 l 29 429 l 65 429 l 249 431 z "},"«":{"ha":810,"x_min":-1,"x_max":804,"o":"m 364 -1 q 211 142 315 47 q 87 258 133 211 q -1 364 40 306 q 112 489 28 401 q 351 736 196 576 q 409 697 392 713 q 429 678 426 681 q 483 626 467 638 q 415 551 456 592 q 367 500 375 510 q 239 361 276 407 q 369 236 289 317 l 497 118 l 476 99 l 364 -1 m 671 -1 q 551 111 614 56 q 474 183 526 136 q 373 281 408 244 q 306 364 338 317 q 419 489 335 401 q 658 736 503 576 q 716 697 699 713 q 736 678 733 681 q 790 626 774 638 q 722 551 763 592 q 674 500 682 510 q 546 361 583 407 q 708 208 603 310 l 804 118 l 671 -1 z "},"»":{"ha":810,"x_min":-1,"x_max":804,"o":"m 132 -1 q 251 111 189 56 q 329 183 276 136 q 430 281 394 244 q 497 364 465 317 q 384 489 468 401 q 144 736 300 576 q 87 697 104 713 q 67 678 69 681 q 13 626 29 638 q 81 551 40 592 q 129 500 121 510 q 257 361 219 407 q 94 208 200 310 l -1 118 l 132 -1 m 439 -1 q 592 142 488 47 q 716 258 669 211 q 804 364 763 306 q 691 489 775 401 q 451 736 607 576 q 394 697 411 713 q 374 678 376 681 q 319 626 336 638 q 388 551 347 592 q 436 500 428 510 q 564 361 526 407 q 433 236 514 317 l 306 118 l 326 99 l 439 -1 z "},"‹":{"ha":503,"x_min":-1,"x_max":497,"o":"m 365 -1 q 219 138 326 39 q 90 260 138 213 q -1 364 43 307 q 112 489 28 401 q 351 736 196 576 q 438 669 396 711 q 483 626 460 646 q 363 494 460 599 q 239 361 286 418 q 401 208 296 310 l 497 118 l 365 -1 z "},"›":{"ha":503,"x_min":6,"x_max":504,"o":"m 6 118 q 263 361 58 163 q 188 444 233 397 q 132 504 143 492 q 19 626 60 579 q 45 649 32 636 q 65 668 58 661 q 104 705 86 690 q 151 736 122 719 q 258 624 183 704 l 504 364 q 194 50 469 310 l 136 -4 l 6 118 z "},"„":{"ha":490,"x_min":-31,"x_max":481,"o":"m 308 210 q 388 214 357 214 q 481 206 435 214 q 434 22 463 129 q 390 -143 406 -86 l 318 -143 q 257 -144 301 -144 q 192 -140 213 -144 l 208 -75 l 226 -4 q 290 210 251 101 l 308 210 m 86 210 q 176 213 158 213 q 258 206 224 213 q 212 22 240 129 q 168 -143 183 -86 l 96 -143 q 35 -144 79 -144 q -31 -140 -10 -144 l -14 -75 l 4 -4 q 68 210 29 101 l 86 210 z "},"“":{"ha":510,"x_min":1,"x_max":513,"o":"m 164 986 q 247 992 217 992 q 290 978 289 992 q 244 794 272 901 q 200 629 215 686 l 128 629 q 67 628 111 628 q 1 632 22 628 l 18 697 l 36 768 q 100 982 61 874 l 118 982 l 146 985 l 164 986 m 386 986 q 469 992 439 992 q 513 978 511 992 q 466 794 494 901 q 422 629 438 686 l 350 629 q 289 628 333 628 q 224 632 244 628 l 240 697 l 249 729 q 322 982 290 890 l 340 982 l 368 985 l 386 986 z "},"”":{"ha":510,"x_min":4,"x_max":515,"o":"m 258 851 q 194 638 233 746 l 176 638 l 149 635 l 131 633 q 47 628 78 628 q 4 642 6 628 q 53 826 25 718 q 94 990 81 933 l 167 990 l 228 992 q 262 990 244 992 q 293 988 279 989 l 276 922 l 258 851 m 450 992 q 484 990 467 992 q 515 988 501 989 l 499 922 l 481 851 q 417 638 456 746 l 399 638 l 371 635 l 353 633 q 269 628 300 628 q 226 642 228 628 q 275 826 247 718 q 317 990 303 933 l 389 990 l 450 992 z "},"‘":{"ha":288,"x_min":4,"x_max":293,"o":"m 228 992 q 262 990 244 992 q 293 988 279 989 l 276 922 l 258 851 q 194 638 233 746 l 176 638 l 149 635 l 131 633 q 47 628 78 628 q 4 642 6 628 q 53 826 25 718 q 94 990 81 933 l 167 990 l 228 992 z "},"’":{"ha":288,"x_min":4,"x_max":293,"o":"m 228 992 q 262 990 244 992 q 293 988 279 989 l 276 922 l 258 851 q 194 638 233 746 l 176 638 l 149 635 l 131 633 q 47 628 78 628 q 4 642 6 628 q 53 826 25 718 q 94 990 81 933 l 167 990 l 228 992 z "},"‚":{"ha":272,"x_min":-26,"x_max":263,"o":"m -26 -131 q 22 53 -6 -54 q 64 218 50 161 l 197 219 q 231 218 214 219 q 263 215 249 217 q 235 104 239 126 q 202 -18 215 28 q 164 -135 189 -64 l 100 -139 q 19 -144 33 -144 q -26 -131 -25 -144 z "}," ":{"ha":278,"x_min":0,"x_max":0,"o":""},"€":{"ha":681,"x_min":19,"x_max":665,"o":"m 310 -3 q 172 47 236 10 q 115 93 129 74 q 19 489 19 215 q 21 611 19 571 q 22 643 21 635 q 22 654 22 651 q 40 763 26 714 q 85 864 53 813 q 193 951 125 924 q 333 984 261 978 q 522 990 406 990 l 650 990 q 657 861 657 931 q 653 772 657 808 q 649 772 651 772 q 644 768 647 771 q 596 771 615 768 l 597 771 q 504 775 554 775 q 342 711 389 775 q 381 701 363 703 q 428 699 400 699 q 461 697 450 699 q 465 629 465 667 q 461 554 465 588 q 369 543 428 543 q 283 546 353 543 q 286 508 283 521 l 306 508 q 460 506 408 508 q 468 432 468 471 q 463 357 468 396 q 347 347 407 347 q 329 346 338 347 q 314 344 321 344 q 300 351 304 344 q 344 276 310 300 q 415 248 378 253 q 532 240 453 243 q 661 226 610 238 q 663 142 660 199 q 665 79 665 106 q 657 6 665 38 q 474 -10 568 -10 q 386 -7 447 -10 l 336 -6 l 310 -3 z "},"¢":{"ha":486,"x_min":18,"x_max":475,"o":"m 196 553 q 194 470 194 511 q 197 388 194 429 q 201 345 197 367 q 217 314 206 324 q 218 480 218 394 q 217 646 218 565 q 204 635 208 646 q 199 611 200 625 q 197 582 197 597 q 196 553 197 567 m 296 396 q 297 415 296 410 l 365 414 q 464 403 428 417 q 467 349 464 379 l 467 350 q 469 285 472 317 q 404 185 461 229 q 296 125 347 140 q 294 96 294 111 l 294 71 q 289 35 294 46 q 264 32 281 32 q 204 44 238 32 q 203 92 203 53 l 203 119 q 88 153 140 119 q 28 243 35 186 q 19 400 19 311 l 19 449 l 21 500 q 22 614 22 536 q 38 714 18 664 q 97 796 58 764 q 188 828 136 828 l 204 826 l 204 896 q 222 908 208 903 q 251 913 235 913 q 294 900 278 913 q 294 885 294 899 q 293 817 293 871 q 388 784 346 817 q 452 701 429 751 q 475 597 475 651 q 463 528 475 561 q 386 522 425 522 q 286 535 351 522 q 285 563 285 540 q 280 619 283 599 q 264 639 276 639 l 264 624 q 267 554 267 596 q 264 492 267 531 q 261 428 261 453 q 269 311 261 389 l 275 311 q 297 340 297 311 l 296 396 z "},"¤":{"ha":843,"x_min":3,"x_max":839,"o":"m 714 279 q 839 154 796 175 l 806 126 q 771 100 797 124 l 772 100 q 756 86 765 93 q 697 41 724 57 q 647 29 671 25 q 607 70 625 53 q 582 94 589 88 q 522 154 549 122 q 397 144 465 144 q 289 153 331 144 q 271 128 288 151 q 197 29 229 74 q 142 46 169 28 q 71 100 114 64 q 3 151 25 143 l 57 217 l 78 242 q 96 263 83 249 q 107 279 108 278 q 91 358 94 318 q 88 467 88 399 q 108 681 88 607 q 54 747 88 708 q 6 803 32 765 l 165 939 l 175 938 l 313 783 q 352 792 329 790 q 417 794 375 794 q 532 786 478 794 l 560 817 l 589 851 l 658 928 l 672 943 l 839 803 l 825 788 l 825 789 l 767 722 l 747 701 l 722 672 q 751 593 743 635 q 756 479 756 569 q 714 279 756 357 m 567 483 q 569 524 569 511 q 557 579 569 551 q 519 615 544 607 q 422 631 472 631 q 335 621 386 631 q 282 550 293 607 q 276 485 276 521 l 279 396 q 295 340 279 364 q 338 308 311 315 q 365 303 344 306 q 413 300 386 300 q 496 314 461 300 q 540 353 529 336 q 556 406 550 369 l 563 451 q 567 483 563 469 z "},"$":{"ha":618,"x_min":7,"x_max":613,"o":"m 325 717 q 294 699 308 717 q 281 661 281 682 q 323 578 281 618 q 440 488 365 538 l 468 469 l 485 457 q 574 350 540 417 q 607 222 607 283 q 518 56 607 129 l 519 56 q 488 35 514 50 q 438 8 461 21 l 438 -4 l 436 -42 l 436 -96 q 363 -140 436 -140 l 321 -140 l 304 -142 l 265 -142 q 209 -127 222 -142 q 196 -83 196 -112 l 197 -46 q 191 -10 197 -24 q 168 8 185 4 q 63 67 97 32 q 17 148 28 103 q 7 265 7 193 q 11 316 7 301 q 33 337 15 331 q 92 343 50 343 q 133 340 111 343 l 132 340 l 139 339 l 149 339 q 175 338 158 338 q 241 329 219 338 q 263 286 263 321 l 263 253 l 264 243 q 301 189 264 189 q 331 201 317 189 q 344 232 344 214 q 307 331 344 288 q 197 429 269 374 q 99 514 143 469 q 40 607 63 556 q 18 704 18 658 q 74 835 18 779 q 129 874 94 856 q 200 906 164 893 l 199 911 q 198 915 199 913 q 197 921 197 917 q 197 924 197 922 q 196 931 196 926 q 194 951 194 940 q 193 972 194 963 l 190 1024 q 210 1048 190 1043 q 271 1053 231 1053 l 294 1053 q 383 1049 346 1053 q 432 1025 421 1046 l 432 914 q 431 901 432 901 q 529 860 486 897 q 592 782 572 822 q 609 727 606 753 q 613 658 613 701 l 613 650 q 595 617 613 626 q 544 607 578 607 l 522 607 l 503 606 l 486 606 q 444 604 475 604 q 372 622 389 604 q 351 672 356 639 q 344 706 349 696 q 325 717 340 717 z "},"ƒ":{"ha":664,"x_min":3,"x_max":660,"o":"m 188 436 q 138 435 154 436 q 3 440 88 433 q 6 489 6 456 l 7 635 q 34 635 25 635 q 54 636 43 636 l 107 636 q 183 633 156 636 q 185 708 185 660 q 176 913 185 811 q 271 930 194 926 q 557 933 347 933 l 649 933 q 650 906 649 918 q 651 879 650 890 q 654 839 651 872 q 660 710 660 699 q 544 699 649 706 q 389 690 439 692 q 388 678 388 688 q 389 658 388 667 q 390 642 390 649 q 464 640 414 640 l 533 640 l 576 640 q 577 615 576 628 q 579 578 578 601 q 582 490 582 533 l 579 436 l 511 438 q 400 435 464 438 q 399 435 400 435 q 399 429 399 435 q 399 411 399 424 l 400 375 q 396 185 400 281 q 392 57 392 118 l 389 -12 q 189 -7 300 -7 l 186 417 l 188 436 z "},"£":{"ha":675,"x_min":6,"x_max":671,"o":"m 192 518 q 188 685 188 597 q 190 851 188 778 q 197 936 193 924 l 232 936 q 400 947 338 936 q 403 722 403 797 q 405 603 403 667 q 408 514 407 539 l 504 514 l 585 514 q 586 464 586 496 q 583 386 586 439 q 581 317 581 344 l 538 317 l 465 317 l 403 315 q 403 283 400 317 q 407 240 407 249 l 521 233 q 671 222 657 225 q 663 53 668 178 l 661 31 l 660 -4 l 525 -4 q 274 -1 342 -4 q 188 17 206 3 q 190 119 190 49 q 185 322 190 219 q 140 322 158 324 q 108 321 121 321 q 61 320 78 321 q 36 319 44 319 q 8 325 19 319 q 6 471 8 424 q 10 515 6 508 q 49 517 21 515 q 110 519 76 519 q 182 518 153 519 l 192 518 z "},"¥":{"ha":736,"x_min":15,"x_max":735,"o":"m 644 339 q 606 342 619 342 q 533 339 589 342 q 465 338 511 338 l 457 319 l 451 307 q 449 300 450 304 q 443 288 449 296 l 461 288 l 494 289 l 528 290 l 560 290 q 665 288 613 290 l 665 250 l 664 226 l 664 203 q 669 147 664 169 q 382 142 582 149 q 358 90 365 114 q 347 56 350 65 q 318 -11 338 31 q 251 -3 272 -3 l 228 -3 l 201 -4 l 190 -4 q 138 -7 163 -7 q 83 -4 119 -7 q 115 94 89 35 l 132 136 q 65 138 117 138 l 18 139 l 17 192 q 18 241 17 215 q 26 285 19 267 q 85 282 76 282 l 126 283 l 140 285 q 192 288 158 285 l 200 313 q 201 317 200 315 q 206 326 203 321 q 208 333 208 331 q 189 335 200 335 q 165 333 176 335 l 143 332 l 121 332 q 19 346 69 332 q 15 392 15 371 l 17 422 q 22 472 17 442 q 188 479 81 479 q 263 482 250 479 q 188 686 233 578 q 94 971 115 861 q 158 967 136 967 q 219 968 196 967 q 276 971 253 971 q 304 969 293 971 q 335 967 321 967 l 340 950 q 360 890 349 929 l 371 856 q 406 751 392 786 q 493 950 438 814 q 497 953 493 950 q 510 958 501 956 q 658 967 579 967 q 735 961 708 967 q 526 486 649 707 q 578 482 546 482 l 665 485 l 665 408 q 669 342 665 367 l 644 339 z "},"+":{"ha":618,"x_min":6,"x_max":608,"o":"m 492 556 q 608 549 568 556 q 607 453 607 514 q 603 343 607 382 q 571 335 590 336 q 515 333 551 333 q 438 331 471 333 q 432 219 439 288 q 428 161 428 182 q 364 149 428 149 q 265 151 329 149 q 214 146 242 150 q 178 138 186 142 l 175 161 q 172 235 169 194 l 172 304 q 174 325 172 319 q 80 333 133 326 q 11 349 26 339 l 13 376 q 7 507 13 438 l 7 506 q 6 547 6 518 q 14 547 7 547 q 35 546 21 546 q 130 548 79 546 q 186 551 181 550 l 183 604 l 183 619 l 185 635 l 189 685 q 190 704 190 692 l 193 717 l 193 728 l 194 756 q 278 728 238 728 l 313 728 l 349 729 q 438 726 410 732 l 438 621 l 439 575 q 433 556 439 557 q 465 555 450 554 q 492 556 479 556 z "},"×":{"ha":1021,"x_min":35,"x_max":983,"o":"m 976 590 q 983 18 976 196 q 982 11 982 17 q 967 -4 981 1 q 900 -13 954 -10 q 729 -17 846 -17 q 43 -4 463 -17 q 50 275 50 153 q 43 601 50 400 q 36 1015 35 889 l 976 1013 l 976 590 m 393 882 q 485 646 419 801 l 485 644 q 496 615 488 635 l 525 678 q 614 883 583 799 l 393 882 m 222 229 q 299 426 265 328 q 333 515 308 456 l 315 578 q 276 696 296 642 q 224 819 257 750 q 222 569 222 740 l 222 319 l 222 229 m 794 290 l 794 400 l 793 535 l 792 799 l 768 756 q 698 612 722 665 q 667 514 674 558 q 714 383 678 458 q 794 238 750 307 l 794 290 m 574 140 q 625 136 621 140 l 496 408 l 468 346 q 450 308 457 321 q 417 238 443 294 q 379 136 392 182 l 442 139 l 574 140 z "},"÷":{"ha":647,"x_min":10,"x_max":639,"o":"m 214 461 q 208 539 208 494 l 210 572 q 210 608 210 596 q 211 631 211 621 q 326 647 249 647 q 421 638 401 647 q 424 629 422 636 q 425 614 425 622 q 422 564 425 603 l 414 460 l 214 461 m 10 231 q 11 360 10 319 l 13 392 l 13 406 l 636 406 q 635 340 636 357 l 633 317 l 633 294 q 639 224 633 261 l 324 226 l 199 228 q 76 229 107 228 l 31 231 l 10 231 m 214 -6 q 208 72 208 28 l 210 106 l 211 150 l 211 164 q 326 181 249 181 q 421 171 401 181 q 424 163 422 169 q 425 147 425 156 q 422 97 425 136 l 414 -7 l 214 -6 z "},"=":{"ha":647,"x_min":36,"x_max":611,"o":"m 39 593 l 40 635 l 40 650 l 608 650 l 607 610 l 607 576 l 606 556 l 606 535 q 611 438 606 496 q 324 442 514 438 l 217 443 q 113 444 138 443 l 57 446 l 36 446 l 39 593 m 39 306 l 40 347 l 40 363 l 608 363 l 607 322 l 607 289 l 606 268 l 606 247 q 611 150 606 208 q 324 154 514 150 l 217 156 q 113 157 138 156 l 57 158 l 36 158 l 39 306 z "},">":{"ha":504,"x_min":7,"x_max":506,"o":"m 7 129 q 136 247 57 171 l 135 247 l 154 267 l 179 290 l 264 372 q 139 510 190 457 q 21 638 49 603 q 74 688 38 649 q 153 747 108 722 l 210 688 l 233 663 l 233 664 l 240 656 l 294 601 l 324 572 l 346 549 q 506 375 464 428 q 424 280 467 322 q 308 171 381 238 l 281 144 q 138 7 200 71 q 54 86 58 76 l 54 83 l 28 110 l 29 110 l 7 129 z "},"<":{"ha":504,"x_min":-1,"x_max":497,"o":"m 454 88 q 450 82 451 85 q 364 10 442 74 q 244 122 307 67 l 226 139 l 228 139 l 211 153 q 87 269 133 222 q -1 375 40 317 q 158 549 40 428 l 181 572 l 210 601 l 264 656 l 271 664 l 271 663 l 290 683 l 351 747 q 409 708 392 724 q 429 689 426 692 q 483 638 467 649 q 368 513 457 604 q 318 461 360 504 q 239 372 276 418 q 350 267 289 328 l 369 247 l 368 247 q 497 129 447 171 l 476 110 l 454 88 z "},"±":{"ha":696,"x_min":18,"x_max":683,"o":"m 208 501 q 210 522 208 517 q 116 530 169 524 q 47 546 63 536 l 49 574 q 43 704 49 635 l 43 703 q 42 744 42 715 q 131 746 51 743 q 218 751 210 749 l 224 925 q 257 924 238 924 q 296 925 276 925 q 390 926 325 926 q 474 924 443 926 l 478 754 q 528 753 497 753 q 644 746 604 753 q 643 650 643 711 q 639 540 643 579 q 607 532 626 533 q 551 531 588 531 q 474 525 483 531 l 468 417 q 467 393 467 410 l 467 367 q 465 347 467 351 q 451 344 465 344 l 400 346 q 301 349 365 346 l 268 349 q 210 344 218 349 l 208 432 l 208 501 m 21 183 l 22 229 l 22 244 l 679 244 q 678 160 679 186 l 676 129 l 676 101 q 683 -1 676 47 q 350 3 574 -1 l 39 8 l 18 8 l 21 183 z "},"~":{"ha":792,"x_min":0,"x_max":785,"o":"m 231 178 q 113 183 208 183 q 0 182 32 183 q 47 313 13 235 q 115 429 81 390 q 190 477 146 460 q 282 494 235 494 q 390 465 347 494 q 442 415 421 443 q 475 376 446 408 q 504 360 494 360 q 551 398 529 360 q 582 472 574 436 q 651 475 621 475 l 689 476 l 714 478 l 738 478 l 782 481 q 785 447 785 469 q 762 340 785 397 q 706 235 739 282 q 625 181 676 199 q 549 168 592 168 q 445 193 492 168 q 379 265 399 218 l 381 264 q 355 293 367 283 q 326 301 343 303 q 274 286 304 301 l 275 286 q 254 256 264 279 q 250 229 250 242 q 257 181 250 215 l 231 178 z "},"¬":{"ha":654,"x_min":7,"x_max":624,"o":"m 501 461 l 500 565 q 181 572 350 567 q 8 581 11 576 l 8 593 l 7 626 l 7 663 l 35 663 l 315 661 l 394 661 q 550 658 493 661 q 624 647 607 656 l 619 385 l 619 342 l 501 342 l 501 461 z "},"µ":{"ha":636,"x_min":33,"x_max":611,"o":"m 271 -179 q 272 -219 272 -186 q 244 -233 265 -229 q 185 -236 222 -236 q 125 -235 142 -236 q 35 -243 72 -232 l 35 -186 q 33 68 33 -125 q 36 288 33 254 q 39 465 36 390 l 39 474 q 42 629 42 585 q 40 696 42 676 q 190 704 114 707 l 256 704 q 258 543 258 663 l 258 474 q 261 375 258 406 l 261 365 l 263 357 q 296 240 268 264 q 326 235 307 235 q 370 253 351 235 q 392 313 389 271 q 393 361 393 329 q 390 439 393 386 l 389 478 q 385 596 385 532 q 390 696 385 653 q 501 701 464 704 q 607 707 551 701 q 608 460 607 540 q 611 186 611 279 q 608 -4 611 121 q 551 -7 582 -4 q 449 -12 490 -12 q 405 -10 422 -12 q 386 -3 388 -7 q 383 33 383 17 q 334 11 357 17 q 267 0 311 6 l 271 -181 l 271 -179 z "},"%":{"ha":839,"x_min":4,"x_max":838,"o":"m 829 365 q 835 283 836 315 q 819 167 838 226 q 761 68 801 108 q 657 28 721 28 q 565 51 613 28 q 517 97 532 74 q 493 153 501 119 l 489 189 q 483 229 486 217 l 482 238 l 481 272 l 483 307 l 485 319 q 486 335 485 331 q 490 359 488 343 q 494 386 492 375 l 461 290 l 450 258 l 431 207 l 350 4 l 346 0 q 313 -6 326 -4 q 281 -7 299 -7 l 153 -8 q 136 15 136 -8 q 158 97 136 38 q 168 119 163 110 l 167 119 l 167 122 q 213 250 188 189 q 329 571 222 283 q 270 496 307 524 q 181 468 233 468 q 89 492 136 468 q 40 537 56 514 q 17 593 25 560 l 13 629 q 7 669 10 657 l 6 678 l 4 713 l 7 747 l 8 760 q 10 775 8 771 q 24 846 15 817 q 56 900 33 875 q 183 956 104 956 q 298 913 256 956 q 353 806 340 869 q 358 724 360 756 q 344 613 361 667 l 369 682 q 374 696 371 686 q 378 713 378 706 q 396 769 388 744 q 424 851 400 778 q 467 996 449 924 q 533 989 500 989 l 601 990 q 688 974 654 990 q 682 969 686 972 q 676 963 678 967 q 681 960 678 964 q 682 951 683 956 l 681 947 l 644 828 q 629 779 633 790 l 618 744 l 597 686 l 564 592 q 535 506 540 525 q 532 496 533 500 q 529 486 531 492 l 513 438 l 507 421 q 532 460 515 440 q 660 515 581 515 q 774 472 732 515 q 829 365 817 429 m 203 657 q 204 707 204 674 q 194 818 204 776 q 181 821 182 818 q 186 831 179 824 q 175 835 182 836 q 160 818 172 831 l 160 819 q 156 798 157 814 q 156 767 154 782 l 163 665 l 164 651 l 164 639 q 165 614 164 622 q 170 597 165 604 q 182 593 175 590 q 193 608 189 594 q 200 639 197 622 l 200 638 l 201 642 l 201 653 l 203 657 m 679 217 q 681 267 681 233 q 671 378 681 336 q 657 381 658 378 q 663 390 656 383 q 651 394 658 396 q 636 378 649 390 l 636 379 q 632 358 633 374 q 632 326 631 342 l 639 225 l 640 211 l 640 199 q 642 174 640 182 q 647 157 642 164 q 658 153 651 150 q 669 168 665 154 q 676 199 674 182 l 676 197 l 678 201 l 678 213 l 679 217 z "},"‰":{"ha":1185,"x_min":-36,"x_max":1258,"o":"m 347 0 q 314 -6 328 -4 q 282 -7 300 -7 l 154 -8 q 138 15 138 -8 q 160 97 138 38 q 169 119 164 110 l 168 119 l 168 122 q 214 250 189 189 q 346 611 221 276 q 397 769 383 715 q 426 851 401 778 q 468 996 450 924 q 535 989 501 989 l 603 990 q 689 974 656 990 q 599 686 683 929 l 565 592 l 514 438 q 432 207 481 336 l 351 4 l 347 0 m 13 900 q 140 956 61 956 q 255 913 213 956 q 310 806 297 869 q 315 724 317 756 q 300 608 318 667 q 242 508 282 549 q 138 468 201 468 q 46 492 93 468 q -3 537 13 514 q -26 593 -18 560 l -31 629 q -33 669 -31 642 q -36 742 -36 717 q -26 830 -36 790 q 13 900 -15 869 m 139 593 q 149 596 146 593 q 156 612 153 599 q 160 657 158 625 q 161 707 161 674 q 151 818 161 776 q 135 829 146 829 q 124 826 129 829 q 117 818 118 822 q 113 797 114 813 q 113 767 111 782 l 117 694 q 122 617 118 640 q 139 593 125 593 m 578 435 q 706 490 626 490 q 820 447 778 490 q 875 340 863 404 q 881 258 882 290 q 865 142 883 201 q 807 43 847 83 q 703 3 767 3 q 611 26 658 3 q 558 83 575 50 q 537 148 542 115 q 526 247 532 181 q 540 360 532 319 q 578 435 547 401 m 953 435 q 1081 490 1001 490 q 1195 447 1153 490 q 1250 340 1238 404 q 1256 258 1257 290 q 1240 142 1258 201 q 1182 43 1222 83 q 1078 3 1142 3 q 986 26 1033 3 q 938 72 953 49 q 914 128 922 94 q 908 185 911 167 q 901 276 901 258 q 953 435 901 376 m 704 128 q 715 131 711 128 q 721 147 718 133 q 725 192 724 160 q 726 242 726 208 q 717 353 726 311 q 700 364 711 364 q 689 360 694 364 q 682 353 683 357 q 678 332 679 347 q 678 301 676 317 l 682 229 q 687 151 683 175 q 704 128 690 128 m 1079 128 q 1090 131 1086 128 q 1096 147 1093 133 q 1100 192 1099 160 q 1101 242 1101 208 q 1092 353 1101 311 q 1075 364 1086 364 q 1064 360 1069 364 q 1057 353 1058 357 q 1053 332 1054 347 q 1053 301 1051 317 l 1057 229 q 1062 151 1058 175 q 1079 128 1065 128 z "},"●":{"ha":804,"x_min":49,"x_max":763,"o":"m 669 622 q 763 403 763 553 q 757 313 763 361 q 750 253 751 265 q 744 218 747 243 q 738 174 742 190 l 738 178 q 669 79 719 126 l 671 79 q 567 23 629 38 q 415 4 504 8 q 392 1 408 1 q 213 22 278 1 q 110 95 150 50 q 61 193 69 140 q 49 349 49 265 q 54 471 49 388 q 72 534 57 501 q 110 594 86 567 q 235 673 158 654 q 417 692 311 692 q 525 682 472 692 q 656 629 596 668 l 654 629 q 669 621 656 628 l 669 622 z "},"@":{"ha":783,"x_min":25,"x_max":761,"o":"m 563 649 q 583 594 585 621 l 583 567 l 582 554 q 581 474 581 531 q 583 365 581 392 q 587 357 582 360 q 595 366 592 354 q 599 410 599 378 l 600 457 q 601 515 603 500 l 601 571 q 578 695 601 654 q 504 765 556 736 l 504 764 q 375 790 450 790 q 253 742 301 790 l 253 743 q 212 656 222 710 q 197 517 201 601 q 196 454 196 496 q 210 281 196 363 q 235 185 218 222 q 279 128 251 147 l 278 129 q 340 110 303 117 q 406 103 376 103 l 418 104 l 444 104 q 564 133 490 107 q 699 189 638 158 l 758 58 q 655 6 718 32 q 549 -28 592 -21 q 407 -39 500 -39 q 308 -35 354 -39 q 108 69 175 -17 q 59 169 81 108 q 35 271 38 229 q 25 522 25 436 l 25 564 q 42 704 26 640 q 99 824 57 768 q 188 887 133 865 q 314 918 243 908 q 389 922 335 922 q 507 913 444 922 q 594 888 551 906 q 667 842 636 869 q 744 708 726 786 q 761 528 761 629 l 761 453 q 753 326 761 378 q 697 240 743 271 q 581 207 650 208 q 501 233 540 207 q 494 240 494 240 q 386 215 453 215 q 251 268 300 215 q 207 422 207 319 q 269 596 207 518 q 350 649 294 626 q 463 672 406 672 q 556 650 522 672 l 554 651 l 563 649 m 397 365 q 422 444 422 375 q 426 483 422 458 q 436 524 431 508 q 383 494 397 521 q 369 457 372 476 q 367 407 367 438 l 367 397 q 376 369 367 379 q 397 365 386 360 z "},"&":{"ha":785,"x_min":4,"x_max":789,"o":"m 788 39 q 747 0 779 8 q 661 -8 715 -8 l 654 -8 q 564 -1 594 -8 q 499 38 533 7 q 414 6 461 15 q 304 -8 367 -4 q 142 37 210 -8 q 39 154 74 82 q 4 306 4 226 q 44 441 4 371 q 143 569 83 511 q 36 806 36 715 q 78 915 36 865 q 187 993 119 964 q 325 1022 254 1022 q 459 992 400 1022 q 551 913 518 963 q 585 804 585 863 q 569 731 585 764 q 515 636 553 697 l 507 624 l 507 625 l 501 618 l 497 610 q 478 579 488 597 q 469 557 469 567 q 500 458 465 518 l 500 476 q 526 527 504 508 q 601 546 549 546 l 700 546 q 754 534 736 546 q 772 488 772 522 q 751 384 772 446 q 696 264 731 322 q 695 262 694 263 q 694 260 696 261 q 683 229 683 235 q 699 201 683 219 l 699 203 l 706 193 l 714 185 l 719 178 l 722 175 q 766 116 749 143 q 789 61 783 89 l 789 46 l 788 39 m 286 801 q 292 739 286 776 q 304 703 299 701 q 332 829 332 707 q 325 851 332 851 q 286 801 286 851 m 356 204 q 378 214 378 213 q 379 231 378 225 l 385 290 q 366 363 383 333 q 307 393 349 393 q 290 392 296 393 q 265 363 275 390 q 256 303 256 335 q 257 279 256 286 q 326 200 267 200 q 353 203 336 200 l 358 204 l 356 204 z "},"¶":{"ha":933,"x_min":6,"x_max":931,"o":"m 926 1018 q 928 953 926 981 q 931 822 931 867 q 854 800 914 800 q 810 803 838 800 l 792 804 q 790 735 790 781 l 789 657 q 781 -39 781 221 q 785 -275 781 -199 q 756 -288 778 -285 q 697 -292 735 -292 q 638 -290 654 -292 q 546 -299 583 -287 q 561 344 561 -93 q 565 806 561 663 l 533 806 l 500 807 q 490 14 490 292 q 496 -275 490 -193 q 467 -288 489 -285 q 408 -292 446 -292 q 349 -290 365 -292 q 257 -299 294 -287 q 271 144 271 -150 q 268 433 271 244 q 219 432 254 432 q 106 465 146 432 q 21 578 65 497 q 6 732 6 647 q 18 897 6 810 q 99 994 32 964 q 253 1015 142 1013 q 303 1017 286 1015 l 774 1021 l 926 1018 z "},"§":{"ha":1204,"x_min":0,"x_max":0,"o":""},"©":{"ha":768,"x_min":29,"x_max":743,"o":"m 724 344 q 651 228 710 286 q 356 150 567 150 q 193 171 257 150 q 90 244 131 199 q 42 342 50 289 q 29 497 29 415 q 35 619 29 536 q 52 683 38 650 q 90 743 67 715 q 168 802 119 778 q 272 835 217 826 l 300 836 l 335 838 q 397 840 371 840 q 506 831 453 840 q 653 769 575 817 q 723 681 703 735 q 743 554 743 626 q 737 460 743 526 q 724 346 731 394 l 724 344 m 481 733 q 378 739 436 739 q 275 733 318 739 q 200 692 231 729 q 164 614 169 656 q 158 525 158 576 q 160 479 158 499 q 163 446 161 460 q 167 365 167 404 q 206 285 167 318 q 299 249 246 253 q 378 244 317 244 q 452 254 414 246 q 500 264 490 263 q 573 317 544 272 q 607 414 601 361 l 613 585 q 607 638 611 618 q 589 674 603 658 q 542 712 571 696 q 481 733 514 728 m 361 574 q 358 478 358 538 q 360 432 358 444 q 375 389 363 389 q 383 401 379 390 q 393 460 386 411 l 438 460 q 508 453 475 463 q 510 432 510 446 q 474 335 510 378 q 383 288 439 292 q 289 303 333 283 q 240 364 244 322 q 236 483 236 410 l 236 526 l 238 588 q 246 626 238 607 q 272 669 260 657 q 297 684 283 679 q 313 690 310 689 q 361 697 332 697 q 468 660 424 697 q 513 567 513 622 l 513 553 q 508 521 513 532 q 460 515 482 515 q 390 524 429 515 l 389 536 l 388 551 q 383 579 386 565 q 375 594 379 593 l 371 596 q 361 574 361 596 z "},"®":{"ha":768,"x_min":29,"x_max":743,"o":"m 651 228 q 547 172 610 186 q 396 153 485 157 q 356 150 371 150 q 193 171 257 150 q 90 244 131 199 q 42 342 50 289 q 29 497 29 415 q 35 619 29 536 q 52 683 38 650 q 90 743 67 715 q 168 802 119 778 q 272 835 217 826 l 397 840 q 506 831 453 840 q 681 739 618 810 q 743 551 743 668 q 738 462 743 510 q 731 401 732 414 q 721 351 729 392 q 697 285 713 311 q 650 228 681 258 l 651 228 m 478 719 q 374 726 422 726 l 311 728 q 235 717 265 728 q 188 670 206 706 q 174 567 171 635 q 175 449 172 525 l 178 410 q 185 340 181 364 q 209 296 190 315 q 265 268 228 276 q 326 264 294 264 l 425 263 q 481 264 463 263 q 606 406 606 271 q 601 469 606 419 q 600 504 600 482 q 591 620 594 594 q 578 665 588 646 q 478 719 558 703 m 524 293 q 490 292 503 293 l 467 290 l 417 293 q 409 304 414 296 q 400 319 404 313 q 369 386 379 367 q 372 343 369 368 l 375 301 q 256 290 332 290 q 243 329 249 290 q 238 422 238 368 q 235 581 238 506 q 231 697 233 657 q 300 703 253 697 q 339 706 307 703 q 403 707 371 710 q 499 664 460 701 q 538 578 538 626 q 440 464 538 481 l 472 424 q 517 355 500 383 q 546 293 533 326 l 524 293 m 356 578 q 357 547 356 557 q 389 550 379 547 l 388 550 q 403 579 403 556 q 393 607 403 597 l 394 607 q 369 613 385 613 q 356 611 360 613 l 356 578 z "},"™":{"ha":783,"x_min":33,"x_max":747,"o":"m 383 851 q 378 775 383 814 q 350 776 368 776 q 285 774 329 776 l 288 668 l 290 589 l 296 378 q 249 375 276 375 l 211 376 q 169 379 186 379 q 131 378 146 379 l 131 413 l 132 504 q 125 774 132 633 q 101 775 113 775 q 82 775 89 775 q 35 778 51 775 q 34 794 33 785 q 35 814 35 804 l 35 847 l 35 906 l 172 906 l 382 899 l 383 851 m 744 381 q 654 385 699 388 l 631 383 l 607 383 q 604 486 604 447 q 597 625 604 574 q 583 599 592 615 q 572 576 575 583 q 559 602 564 589 q 549 626 554 615 q 548 610 549 625 q 546 522 547 596 q 550 389 546 460 q 496 383 518 383 q 469 383 474 383 l 451 383 l 410 386 q 403 426 404 396 q 401 536 401 457 q 403 738 401 651 l 404 889 q 494 896 432 896 l 538 896 q 571 844 563 869 q 576 855 572 847 q 606 897 579 863 q 667 899 631 896 l 707 900 q 747 899 731 900 q 746 828 746 876 l 746 621 l 744 381 z "},"°":{"ha":414,"x_min":15,"x_max":400,"o":"m 101 564 q 29 624 42 594 q 19 665 22 642 q 15 743 15 699 q 24 818 15 790 q 68 876 36 853 q 146 907 100 899 q 222 910 183 910 q 307 894 264 910 l 314 892 q 356 868 346 881 q 397 799 393 839 q 400 736 400 783 q 368 615 400 667 q 271 557 336 564 q 196 550 233 550 q 104 563 146 550 l 101 564 m 142 774 q 140 728 140 760 l 140 690 q 147 660 140 672 q 163 646 153 647 q 243 649 201 643 q 272 696 264 649 l 276 732 l 278 739 q 282 772 282 764 q 267 808 282 803 q 213 819 256 819 q 161 810 172 819 q 149 797 156 807 q 142 774 143 786 z "},"|":{"ha":279,"x_min":42,"x_max":239,"o":"m 206 -46 q 96 -43 171 -46 l 57 -42 l 42 -42 l 42 1015 q 236 1021 111 1015 q 238 486 236 740 l 239 -4 l 239 -46 l 206 -46 z "},"¦":{"ha":204,"x_min":0,"x_max":0,"o":""},"†":{"ha":376,"x_min":6,"x_max":372,"o":"m 226 329 l 210 328 q 128 321 169 328 q 119 474 119 383 l 121 549 l 121 693 l 85 693 q 43 693 65 692 q 7 696 21 694 q 6 750 6 708 l 6 811 q 63 815 33 815 l 78 815 q 131 821 113 815 l 126 964 q 204 975 157 975 q 260 968 238 975 q 257 889 254 935 q 258 854 258 879 q 257 819 258 829 l 314 822 q 369 819 314 822 q 368 757 368 803 q 372 696 368 721 q 301 694 318 696 q 254 693 289 693 q 257 526 257 588 q 260 332 257 386 l 239 329 l 226 329 z "},"‡":{"ha":397,"x_min":14,"x_max":383,"o":"m 33 599 q 115 603 58 603 l 131 603 q 133 647 133 642 q 131 692 133 653 l 19 694 q 17 727 19 704 q 17 768 15 750 q 18 793 18 775 q 17 818 18 811 q 97 824 57 824 q 114 823 107 824 q 129 822 121 822 q 130 858 128 840 q 132 885 132 875 l 133 913 q 135 965 135 929 q 213 976 165 976 q 267 969 244 976 l 267 893 q 268 824 268 875 l 274 824 l 350 822 l 379 821 q 381 696 379 725 q 344 699 356 699 q 294 696 328 699 l 265 694 q 264 669 264 686 q 268 607 264 661 q 315 608 283 608 q 358 606 333 608 l 379 604 l 379 558 q 383 483 379 513 l 358 483 l 336 482 l 313 481 q 267 478 288 478 q 268 421 268 463 l 268 401 q 267 383 268 396 q 271 336 267 369 q 169 329 228 329 l 132 329 l 132 346 l 131 367 q 129 435 129 385 q 128 455 129 444 q 129 475 128 465 l 104 475 l 17 476 q 14 499 14 488 q 17 543 14 518 l 17 599 l 33 599 z "},"^":{"ha":611,"x_min":-8,"x_max":625,"o":"m 589 658 l 578 656 q 464 646 522 646 q 390 650 422 646 q 326 697 364 653 l 310 718 q 306 724 308 721 q 300 729 304 728 l 278 704 l 267 693 q 235 663 249 674 q 210 650 222 651 q 175 649 197 649 q 139 650 153 649 l -8 657 q 76 759 32 713 q 186 865 121 806 l 185 865 q 222 899 185 865 l 264 938 l 286 958 l 285 958 l 306 978 l 625 658 l 589 658 z "},"´":{"ha":354,"x_min":-14,"x_max":354,"o":"m 307 819 q 214 724 229 754 q 128 719 185 719 q 48 724 89 719 q -14 733 7 728 q 79 825 19 761 q 242 979 182 931 l 354 861 l 307 819 z "},"¸":{"ha":264,"x_min":-3,"x_max":264,"o":"m 264 -1 q 228 -111 254 -36 l 210 -162 l 199 -197 q 196 -212 196 -203 l 69 -212 q 28 -214 49 -212 q -3 -221 8 -215 q 51 -64 33 -124 l 74 1 l 264 -1 z "},"ˆ":{"ha":482,"x_min":-8,"x_max":471,"o":"m 460 729 l 456 728 l 449 726 l 442 725 l 443 725 q 357 718 394 718 q 303 721 319 718 q 279 731 290 722 q 254 756 268 739 l 254 754 q 251 758 251 757 l 238 775 l 231 769 l 218 758 q 175 722 186 726 q 136 718 150 718 q 100 721 131 718 q 65 722 72 721 l -8 728 q 58 806 22 769 q 144 890 93 843 l 174 917 l 206 947 l 240 979 l 471 739 l 460 729 z "},"¨":{"ha":485,"x_min":25,"x_max":463,"o":"m 31 718 q 25 786 25 746 l 26 815 l 26 839 l 28 854 l 28 868 q 76 878 46 874 q 133 882 106 882 q 221 868 192 882 q 219 846 221 854 l 217 804 l 210 717 l 31 718 m 272 718 q 267 786 267 746 l 268 815 l 268 839 l 269 854 l 269 868 q 317 878 288 874 q 375 882 347 882 q 463 868 433 882 q 461 846 463 854 l 458 804 l 451 717 l 272 718 z "},"`":{"ha":354,"x_min":-3,"x_max":368,"o":"m 111 976 q 193 904 149 947 q 275 822 238 861 l 275 824 l 303 796 l 331 767 q 368 729 368 729 q 306 720 347 724 q 226 717 265 717 q 143 721 172 717 q 58 806 128 743 l 49 814 l 50 814 q -3 861 18 840 l 111 976 z "},"˜":{"ha":624,"x_min":0,"x_max":608,"o":"m 182 685 q 92 689 164 689 l 0 686 q 37 785 10 724 q 89 876 64 846 q 149 915 114 901 q 224 929 185 929 q 308 906 275 929 q 343 876 328 892 q 364 851 353 863 q 386 833 375 839 q 420 847 401 818 q 451 911 439 876 q 563 915 493 915 q 606 911 581 915 q 608 883 608 903 q 592 805 608 847 q 550 731 575 763 q 525 704 538 714 q 493 688 513 694 q 426 676 460 676 q 344 695 381 676 q 293 750 308 714 l 294 749 q 272 772 281 765 q 254 778 264 779 q 219 765 244 778 l 221 765 q 204 742 211 758 l 206 742 q 203 724 203 736 q 208 685 203 707 l 182 685 z "}}}
